M48
;DRILL file {kicad (2014-jul-16 BZR unknown)-product} date Sun 02 Nov 2014 04:51:07 PM PST
;FORMAT={2:4/ absolute / inch / suppress leading zeros}
FMAT,2
INCH,TZ
T1C0.025
T2C0.030
T3C0.030
T4C0.032
T5C0.032
T6C0.039
T7C0.040
T8C0.047
T9C0.050
T10C0.100
T11C0.125
T12C0.150
%
G90
G05
M72
T1
X28750Y-33500
X30500Y-39650
X30750Y-34000
X31250Y-34500
X31250Y-35250
X32000Y-40950
X32500Y-41250
X35000Y-44000
X35500Y-45000
X35500Y-46000
X36000Y-33750
X36500Y-34250
X36750Y-38250
X37000Y-36750
X37250Y-45000
X37500Y-34250
X38000Y-37750
X38500Y-42000
X38750Y-38000
X39500Y-38000
X40000Y-34750
X40000Y-35500
X40500Y-41250
X43500Y-47250
X44000Y-33500
X44500Y-33750
X45000Y-34000
X45000Y-46500
X45500Y-35250
X46500Y-41250
X47750Y-41250
X49000Y-36250
X49000Y-40500
X50250Y-41500
X50250Y-43750
X51000Y-36750
X52250Y-36750
T2
X31890Y-32283
X31890Y-46457
X32677Y-32283
X32677Y-46457
X33465Y-32283
X33465Y-46457
X34252Y-32283
X34252Y-46457
X36614Y-32283
X36614Y-46457
X37402Y-32283
X37402Y-46457
X38189Y-32283
X38189Y-46457
X38976Y-32283
X38976Y-46457
X41339Y-32283
X41339Y-46457
X42126Y-32283
X42126Y-46457
X42913Y-32283
X42913Y-46457
X43701Y-32283
X43701Y-46457
X46063Y-32283
X46063Y-46457
X46850Y-32283
X46850Y-46457
X47638Y-32283
X47638Y-46457
X48425Y-32283
X48425Y-46457
X50787Y-32283
X50787Y-46457
X51575Y-32283
X51575Y-46457
X52362Y-32283
X52362Y-46457
X53150Y-32283
X53150Y-46457
X55512Y-32283
X55512Y-46457
X56299Y-32283
X56299Y-46457
X57087Y-32283
X57087Y-46457
X57874Y-32283
X57874Y-46457
T3
X32250Y-34000
X32250Y-35000
T4
X20750Y-32250
X20750Y-33250
X24209Y-45089
X25209Y-45089
X26000Y-46250
X26000Y-47250
X26571Y-45089
X27571Y-45089
X38500Y-41250
X39500Y-36250
X39500Y-41250
X40500Y-36250
X40500Y-41250
X41039Y-43000
X41500Y-41250
X42000Y-34750
X42000Y-35750
X42500Y-41250
X42961Y-43000
X43500Y-41250
X45750Y-42750
X46750Y-42750
X56500Y-35750
X56500Y-36750
X56500Y-40750
X56500Y-41750
T5
X22000Y-31250
X22000Y-34250
X23000Y-31250
X23000Y-34250
X24000Y-31250
X24000Y-34250
X25000Y-31250
X25000Y-34250
X33500Y-37250
X33500Y-40250
X34500Y-37250
X34500Y-40250
X35500Y-37250
X35500Y-40250
X36500Y-37250
X36500Y-40250
X37500Y-37250
X37500Y-40250
X38500Y-37250
X38500Y-40250
X39500Y-37250
X39500Y-40250
X40500Y-37250
X40500Y-40250
X41500Y-37250
X41500Y-40250
X42500Y-37250
X42500Y-40250
X43500Y-37250
X43500Y-40250
X44500Y-37250
X44500Y-40250
X45500Y-37250
X45500Y-40250
X46500Y-37250
X46500Y-40250
X49000Y-34750
X49000Y-37750
X49000Y-39750
X49000Y-42750
X50000Y-34750
X50000Y-37750
X50000Y-39750
X50000Y-42750
X51000Y-34750
X51000Y-37750
X51000Y-39750
X51000Y-42750
X52000Y-34750
X52000Y-37750
X52000Y-39750
X52000Y-42750
X53000Y-34750
X53000Y-37750
X53000Y-39750
X53000Y-42750
X54000Y-34750
X54000Y-37750
X54000Y-39750
X54000Y-42750
X55000Y-34750
X55000Y-37750
X55000Y-39750
X55000Y-42750
T6
X20750Y-46250
X20750Y-47500
X24750Y-46250
X24750Y-47500
X25000Y-43500
X26000Y-43500
X27000Y-43500
X29250Y-36500
X29250Y-40500
X30500Y-36500
X30500Y-40500
X30500Y-42250
X30500Y-43500
X30500Y-44750
X34500Y-34500
X34500Y-36000
X34500Y-42250
X34500Y-43500
X34500Y-44750
X36500Y-44500
X38500Y-34500
X38500Y-36000
X40500Y-44500
X42250Y-44750
X43250Y-36000
X46250Y-44750
X47250Y-36000
X47500Y-44250
X51500Y-44250
X52500Y-38750
X56500Y-38750
X57000Y-44250
T7
X20500Y-44250
X21154Y-37370
X21154Y-38370
X21154Y-39370
X21154Y-40370
X21154Y-41370
X21500Y-44250
X22154Y-37370
X22154Y-38370
X22154Y-39370
X22154Y-40370
X22154Y-41370
X22500Y-44250
X28250Y-32000
X28250Y-33000
X28250Y-34000
X29250Y-32000
X29250Y-33000
X29250Y-34000
X29250Y-42000
X29250Y-43000
X29250Y-44000
X29250Y-45000
X29250Y-46000
X29250Y-47000
X36250Y-42250
X36250Y-43250
X37250Y-42250
X37250Y-43250
T8
X58000Y-37720
X58000Y-40280
T9
X53000Y-44250
T10
X21654Y-25591
X21654Y-29528
X21654Y-49213
X21654Y-53150
X25591Y-21654
X25591Y-25591
X25591Y-29528
X25591Y-49213
X25591Y-53150
X25591Y-57087
X29528Y-21654
X29528Y-25591
X29528Y-29528
X29528Y-49213
X29528Y-53150
X29528Y-57087
X33465Y-21654
X33465Y-25591
X33465Y-29528
X33465Y-49213
X33465Y-53150
X33465Y-57087
X37402Y-21654
X37402Y-25591
X37402Y-29528
X37402Y-49213
X37402Y-53150
X37402Y-57087
X41339Y-21654
X41339Y-25591
X41339Y-29528
X41339Y-49213
X41339Y-53150
X41339Y-57087
X45276Y-21654
X45276Y-25591
X45276Y-29528
X45276Y-49213
X45276Y-53150
X45276Y-57087
X49213Y-21654
X49213Y-25591
X49213Y-29528
X49213Y-49213
X49213Y-53150
X49213Y-57087
X53150Y-21654
X53150Y-25591
X53150Y-29528
X53150Y-49213
X53150Y-53150
X53150Y-57087
X57087Y-25591
X57087Y-29528
X57087Y-49213
X57087Y-53150
T11
X21654Y-21654
X21654Y-57087
X57087Y-21654
X57087Y-57087
T12
X26000Y-36900
T0
M30
