%FSLAX36Y36*%
G04 Gerber Fmt 3.6, Leading zero omitted, Abs format (unit inch)*
G04 Created by KiCad (PCBNEW (2014-jul-16 BZR unknown)-product) date Sun 02 Nov 2014 04:51:11 PM PST*
%MOIN*%
G01*
G04 APERTURE LIST*
%ADD10C,0.003937*%
%ADD11C,0.008000*%
%ADD12C,0.012000*%
%ADD13C,0.015000*%
%ADD14C,0.010000*%
%ADD15C,0.005906*%
G04 APERTURE END LIST*
D10*
D11*
X3546191Y-4253095D02*
X3553810Y-4253095D01*
X3557619Y-4255000D01*
X3561429Y-4258810D01*
X3563333Y-4266429D01*
X3563333Y-4279762D01*
X3561429Y-4287381D01*
X3557619Y-4291190D01*
X3553810Y-4293095D01*
X3546191Y-4293095D01*
X3542381Y-4291190D01*
X3538571Y-4287381D01*
X3536667Y-4279762D01*
X3536667Y-4266429D01*
X3538571Y-4258810D01*
X3542381Y-4255000D01*
X3546191Y-4253095D01*
X3789524Y-4343095D02*
X3789524Y-4303095D01*
X3804762Y-4303095D01*
X3808571Y-4305000D01*
X3810476Y-4306905D01*
X3812381Y-4310714D01*
X3812381Y-4316429D01*
X3810476Y-4320238D01*
X3808571Y-4322143D01*
X3804762Y-4324048D01*
X3789524Y-4324048D01*
X3812381Y-4243095D02*
X3793333Y-4243095D01*
X3793333Y-4203095D01*
X4275105Y-3397295D02*
X4275105Y-3357295D01*
X4275105Y-3372533D02*
X4278914Y-3370629D01*
X4286533Y-3370629D01*
X4290343Y-3372533D01*
X4292248Y-3374438D01*
X4294152Y-3378248D01*
X4294152Y-3389676D01*
X4292248Y-3393486D01*
X4290343Y-3395390D01*
X4286533Y-3397295D01*
X4278914Y-3397295D01*
X4275105Y-3395390D01*
X4328438Y-3370629D02*
X4328438Y-3397295D01*
X4311295Y-3370629D02*
X4311295Y-3391581D01*
X4313200Y-3395390D01*
X4317010Y-3397295D01*
X4322724Y-3397295D01*
X4326533Y-3395390D01*
X4328438Y-3393486D01*
X4345581Y-3395390D02*
X4349391Y-3397295D01*
X4357010Y-3397295D01*
X4360819Y-3395390D01*
X4362724Y-3391581D01*
X4362724Y-3389676D01*
X4360819Y-3385867D01*
X4357010Y-3383962D01*
X4351295Y-3383962D01*
X4347486Y-3382057D01*
X4345581Y-3378248D01*
X4345581Y-3376343D01*
X4347486Y-3372533D01*
X4351295Y-3370629D01*
X4357010Y-3370629D01*
X4360819Y-3372533D01*
X4370343Y-3401105D02*
X4400819Y-3401105D01*
X4427486Y-3370629D02*
X4427486Y-3403010D01*
X4425581Y-3406819D01*
X4423676Y-3408724D01*
X4419867Y-3410629D01*
X4414152Y-3410629D01*
X4410343Y-3408724D01*
X4427486Y-3395390D02*
X4423676Y-3397295D01*
X4416057Y-3397295D01*
X4412248Y-3395390D01*
X4410343Y-3393486D01*
X4408438Y-3389676D01*
X4408438Y-3378248D01*
X4410343Y-3374438D01*
X4412248Y-3372533D01*
X4416057Y-3370629D01*
X4423676Y-3370629D01*
X4427486Y-3372533D01*
X4446533Y-3397295D02*
X4446533Y-3370629D01*
X4446533Y-3378248D02*
X4448438Y-3374438D01*
X4450343Y-3372533D01*
X4454152Y-3370629D01*
X4457962Y-3370629D01*
X4477010Y-3397295D02*
X4473200Y-3395390D01*
X4471295Y-3393486D01*
X4469391Y-3389676D01*
X4469391Y-3378248D01*
X4471295Y-3374438D01*
X4473200Y-3372533D01*
X4477010Y-3370629D01*
X4482724Y-3370629D01*
X4486533Y-3372533D01*
X4488438Y-3374438D01*
X4490343Y-3378248D01*
X4490343Y-3389676D01*
X4488438Y-3393486D01*
X4486533Y-3395390D01*
X4482724Y-3397295D01*
X4477010Y-3397295D01*
X4503676Y-3370629D02*
X4513200Y-3397295D01*
X4522724Y-3370629D01*
X4553200Y-3395390D02*
X4549391Y-3397295D01*
X4541771Y-3397295D01*
X4537962Y-3395390D01*
X4536057Y-3391581D01*
X4536057Y-3376343D01*
X4537962Y-3372533D01*
X4541771Y-3370629D01*
X4549391Y-3370629D01*
X4553200Y-3372533D01*
X4555105Y-3376343D01*
X4555105Y-3380152D01*
X4536057Y-3383962D01*
X4593200Y-3397295D02*
X4570343Y-3397295D01*
X4581771Y-3397295D02*
X4581771Y-3357295D01*
X4577962Y-3363010D01*
X4574152Y-3366819D01*
X4570343Y-3368724D01*
X4608438Y-3361105D02*
X4610343Y-3359200D01*
X4614152Y-3357295D01*
X4623676Y-3357295D01*
X4627486Y-3359200D01*
X4629391Y-3361105D01*
X4631295Y-3364914D01*
X4631295Y-3368724D01*
X4629391Y-3374438D01*
X4606533Y-3397295D01*
X4631295Y-3397295D01*
X4701771Y-3397295D02*
X4688438Y-3378248D01*
X4678914Y-3397295D02*
X4678914Y-3357295D01*
X4694152Y-3357295D01*
X4697962Y-3359200D01*
X4699867Y-3361105D01*
X4701771Y-3364914D01*
X4701771Y-3370629D01*
X4699867Y-3374438D01*
X4697962Y-3376343D01*
X4694152Y-3378248D01*
X4678914Y-3378248D01*
X4734152Y-3395390D02*
X4730343Y-3397295D01*
X4722724Y-3397295D01*
X4718914Y-3395390D01*
X4717010Y-3391581D01*
X4717010Y-3376343D01*
X4718914Y-3372533D01*
X4722724Y-3370629D01*
X4730343Y-3370629D01*
X4734152Y-3372533D01*
X4736057Y-3376343D01*
X4736057Y-3380152D01*
X4717010Y-3383962D01*
X4749391Y-3370629D02*
X4758914Y-3397295D01*
X4768438Y-3370629D01*
X4783676Y-3393486D02*
X4785581Y-3395390D01*
X4783676Y-3397295D01*
X4781771Y-3395390D01*
X4783676Y-3393486D01*
X4783676Y-3397295D01*
X4831295Y-3385867D02*
X4850343Y-3385867D01*
X4827486Y-3397295D02*
X4840819Y-3357295D01*
X4854152Y-3397295D01*
X4896057Y-3361105D02*
X4897962Y-3359200D01*
X4901771Y-3357295D01*
X4911295Y-3357295D01*
X4915105Y-3359200D01*
X4917010Y-3361105D01*
X4918914Y-3364914D01*
X4918914Y-3368724D01*
X4917010Y-3374438D01*
X4894152Y-3397295D01*
X4918914Y-3397295D01*
X4936057Y-3397295D02*
X4936057Y-3357295D01*
X4958914Y-3397295D01*
X4958914Y-3357295D01*
X4983676Y-3397295D02*
X4979867Y-3395390D01*
X4977962Y-3393486D01*
X4976057Y-3389676D01*
X4976057Y-3378248D01*
X4977962Y-3374438D01*
X4979867Y-3372533D01*
X4983676Y-3370629D01*
X4989390Y-3370629D01*
X4993200Y-3372533D01*
X4995105Y-3374438D01*
X4997010Y-3378248D01*
X4997010Y-3389676D01*
X4995105Y-3393486D01*
X4993200Y-3395390D01*
X4989390Y-3397295D01*
X4983676Y-3397295D01*
X5010343Y-3370629D02*
X5019867Y-3397295D01*
X5029390Y-3370629D01*
X5042724Y-3361105D02*
X5044629Y-3359200D01*
X5048438Y-3357295D01*
X5057962Y-3357295D01*
X5061771Y-3359200D01*
X5063676Y-3361105D01*
X5065581Y-3364914D01*
X5065581Y-3368724D01*
X5063676Y-3374438D01*
X5040819Y-3397295D01*
X5065581Y-3397295D01*
X5090343Y-3357295D02*
X5094152Y-3357295D01*
X5097962Y-3359200D01*
X5099867Y-3361105D01*
X5101771Y-3364914D01*
X5103676Y-3372533D01*
X5103676Y-3382057D01*
X5101771Y-3389676D01*
X5099867Y-3393486D01*
X5097962Y-3395390D01*
X5094152Y-3397295D01*
X5090343Y-3397295D01*
X5086533Y-3395390D01*
X5084629Y-3393486D01*
X5082724Y-3389676D01*
X5080819Y-3382057D01*
X5080819Y-3372533D01*
X5082724Y-3364914D01*
X5084629Y-3361105D01*
X5086533Y-3359200D01*
X5090343Y-3357295D01*
X5141771Y-3397295D02*
X5118914Y-3397295D01*
X5130343Y-3397295D02*
X5130343Y-3357295D01*
X5126533Y-3363010D01*
X5122724Y-3366819D01*
X5118914Y-3368724D01*
X5176057Y-3370629D02*
X5176057Y-3397295D01*
X5166533Y-3355390D02*
X5157010Y-3383962D01*
X5181771Y-3383962D01*
X5238914Y-3412533D02*
X5237010Y-3410629D01*
X5233200Y-3404914D01*
X5231295Y-3401105D01*
X5229390Y-3395390D01*
X5227486Y-3385867D01*
X5227486Y-3378248D01*
X5229390Y-3368724D01*
X5231295Y-3363010D01*
X5233200Y-3359200D01*
X5237010Y-3353486D01*
X5238914Y-3351581D01*
X5271295Y-3395390D02*
X5267486Y-3397295D01*
X5259867Y-3397295D01*
X5256057Y-3395390D01*
X5254152Y-3393486D01*
X5252248Y-3389676D01*
X5252248Y-3378248D01*
X5254152Y-3374438D01*
X5256057Y-3372533D01*
X5259867Y-3370629D01*
X5267486Y-3370629D01*
X5271295Y-3372533D01*
X5284629Y-3412533D02*
X5286533Y-3410629D01*
X5290343Y-3404914D01*
X5292248Y-3401105D01*
X5294152Y-3395390D01*
X5296057Y-3385867D01*
X5296057Y-3378248D01*
X5294152Y-3368724D01*
X5292248Y-3363010D01*
X5290343Y-3359200D01*
X5286533Y-3353486D01*
X5284629Y-3351581D01*
X5343676Y-3361105D02*
X5345581Y-3359200D01*
X5349390Y-3357295D01*
X5358914Y-3357295D01*
X5362724Y-3359200D01*
X5364629Y-3361105D01*
X5366533Y-3364914D01*
X5366533Y-3368724D01*
X5364629Y-3374438D01*
X5341771Y-3397295D01*
X5366533Y-3397295D01*
X5391295Y-3357295D02*
X5395105Y-3357295D01*
X5398914Y-3359200D01*
X5400819Y-3361105D01*
X5402724Y-3364914D01*
X5404629Y-3372533D01*
X5404629Y-3382057D01*
X5402724Y-3389676D01*
X5400819Y-3393486D01*
X5398914Y-3395390D01*
X5395105Y-3397295D01*
X5391295Y-3397295D01*
X5387486Y-3395390D01*
X5385581Y-3393486D01*
X5383676Y-3389676D01*
X5381771Y-3382057D01*
X5381771Y-3372533D01*
X5383676Y-3364914D01*
X5385581Y-3361105D01*
X5387486Y-3359200D01*
X5391295Y-3357295D01*
X5442724Y-3397295D02*
X5419867Y-3397295D01*
X5431295Y-3397295D02*
X5431295Y-3357295D01*
X5427486Y-3363010D01*
X5423676Y-3366819D01*
X5419867Y-3368724D01*
X5477009Y-3370629D02*
X5477009Y-3397295D01*
X5467486Y-3355390D02*
X5457962Y-3383962D01*
X5482724Y-3383962D01*
X5528438Y-3397295D02*
X5528438Y-3357295D01*
X5528438Y-3372533D02*
X5532248Y-3370629D01*
X5539867Y-3370629D01*
X5543676Y-3372533D01*
X5545581Y-3374438D01*
X5547486Y-3378248D01*
X5547486Y-3389676D01*
X5545581Y-3393486D01*
X5543676Y-3395390D01*
X5539867Y-3397295D01*
X5532248Y-3397295D01*
X5528438Y-3395390D01*
X5560819Y-3370629D02*
X5570343Y-3397295D01*
X5579867Y-3370629D02*
X5570343Y-3397295D01*
X5566533Y-3406819D01*
X5564629Y-3408724D01*
X5560819Y-3410629D01*
X5646533Y-3359200D02*
X5642724Y-3357295D01*
X5637009Y-3357295D01*
X5631295Y-3359200D01*
X5627486Y-3363010D01*
X5625581Y-3366819D01*
X5623676Y-3374438D01*
X5623676Y-3380152D01*
X5625581Y-3387771D01*
X5627486Y-3391581D01*
X5631295Y-3395390D01*
X5637009Y-3397295D01*
X5640819Y-3397295D01*
X5646533Y-3395390D01*
X5648438Y-3393486D01*
X5648438Y-3380152D01*
X5640819Y-3380152D01*
X5665581Y-3397295D02*
X5665581Y-3370629D01*
X5665581Y-3378248D02*
X5667486Y-3374438D01*
X5669390Y-3372533D01*
X5673200Y-3370629D01*
X5677009Y-3370629D01*
X5707486Y-3397295D02*
X5707486Y-3376343D01*
X5705581Y-3372533D01*
X5701771Y-3370629D01*
X5694152Y-3370629D01*
X5690343Y-3372533D01*
X5707486Y-3395390D02*
X5703676Y-3397295D01*
X5694152Y-3397295D01*
X5690343Y-3395390D01*
X5688438Y-3391581D01*
X5688438Y-3387771D01*
X5690343Y-3383962D01*
X5694152Y-3382057D01*
X5703676Y-3382057D01*
X5707486Y-3380152D01*
X5726533Y-3397295D02*
X5726533Y-3370629D01*
X5726533Y-3374438D02*
X5728438Y-3372533D01*
X5732248Y-3370629D01*
X5737962Y-3370629D01*
X5741771Y-3372533D01*
X5743676Y-3376343D01*
X5743676Y-3397295D01*
X5743676Y-3376343D02*
X5745581Y-3372533D01*
X5749390Y-3370629D01*
X5755105Y-3370629D01*
X5758914Y-3372533D01*
X5760819Y-3376343D01*
X5760819Y-3397295D01*
X5785581Y-3397295D02*
X5781771Y-3395390D01*
X5779867Y-3391581D01*
X5779867Y-3357295D01*
X5800819Y-3397295D02*
X5800819Y-3370629D01*
X5800819Y-3357295D02*
X5798914Y-3359200D01*
X5800819Y-3361105D01*
X5802724Y-3359200D01*
X5800819Y-3357295D01*
X5800819Y-3361105D01*
X5837009Y-3395390D02*
X5833200Y-3397295D01*
X5825581Y-3397295D01*
X5821771Y-3395390D01*
X5819867Y-3393486D01*
X5817962Y-3389676D01*
X5817962Y-3378248D01*
X5819867Y-3374438D01*
X5821771Y-3372533D01*
X5825581Y-3370629D01*
X5833200Y-3370629D01*
X5837009Y-3372533D01*
X5854152Y-3397295D02*
X5854152Y-3357295D01*
X5871295Y-3397295D02*
X5871295Y-3376343D01*
X5869390Y-3372533D01*
X5865581Y-3370629D01*
X5859867Y-3370629D01*
X5856057Y-3372533D01*
X5854152Y-3374438D01*
X3136905Y-2763095D02*
X3136905Y-2723095D01*
X3136905Y-2738333D02*
X3140714Y-2736429D01*
X3148333Y-2736429D01*
X3152143Y-2738333D01*
X3154048Y-2740238D01*
X3155952Y-2744048D01*
X3155952Y-2755476D01*
X3154048Y-2759286D01*
X3152143Y-2761190D01*
X3148333Y-2763095D01*
X3140714Y-2763095D01*
X3136905Y-2761190D01*
X3190238Y-2736429D02*
X3190238Y-2763095D01*
X3173095Y-2736429D02*
X3173095Y-2757381D01*
X3175000Y-2761190D01*
X3178810Y-2763095D01*
X3184524Y-2763095D01*
X3188333Y-2761190D01*
X3190238Y-2759286D01*
X3207381Y-2761190D02*
X3211191Y-2763095D01*
X3218810Y-2763095D01*
X3222619Y-2761190D01*
X3224524Y-2757381D01*
X3224524Y-2755476D01*
X3222619Y-2751667D01*
X3218810Y-2749762D01*
X3213095Y-2749762D01*
X3209286Y-2747857D01*
X3207381Y-2744048D01*
X3207381Y-2742143D01*
X3209286Y-2738333D01*
X3213095Y-2736429D01*
X3218810Y-2736429D01*
X3222619Y-2738333D01*
X3232143Y-2766905D02*
X3262619Y-2766905D01*
X3289286Y-2736429D02*
X3289286Y-2768810D01*
X3287381Y-2772619D01*
X3285476Y-2774524D01*
X3281667Y-2776429D01*
X3275952Y-2776429D01*
X3272143Y-2774524D01*
X3289286Y-2761190D02*
X3285476Y-2763095D01*
X3277857Y-2763095D01*
X3274048Y-2761190D01*
X3272143Y-2759286D01*
X3270238Y-2755476D01*
X3270238Y-2744048D01*
X3272143Y-2740238D01*
X3274048Y-2738333D01*
X3277857Y-2736429D01*
X3285476Y-2736429D01*
X3289286Y-2738333D01*
X3308333Y-2763095D02*
X3308333Y-2736429D01*
X3308333Y-2744048D02*
X3310238Y-2740238D01*
X3312143Y-2738333D01*
X3315952Y-2736429D01*
X3319762Y-2736429D01*
X3338810Y-2763095D02*
X3335000Y-2761190D01*
X3333095Y-2759286D01*
X3331191Y-2755476D01*
X3331191Y-2744048D01*
X3333095Y-2740238D01*
X3335000Y-2738333D01*
X3338810Y-2736429D01*
X3344524Y-2736429D01*
X3348333Y-2738333D01*
X3350238Y-2740238D01*
X3352143Y-2744048D01*
X3352143Y-2755476D01*
X3350238Y-2759286D01*
X3348333Y-2761190D01*
X3344524Y-2763095D01*
X3338810Y-2763095D01*
X3365476Y-2736429D02*
X3375000Y-2763095D01*
X3384524Y-2736429D01*
X3415000Y-2761190D02*
X3411191Y-2763095D01*
X3403571Y-2763095D01*
X3399762Y-2761190D01*
X3397857Y-2757381D01*
X3397857Y-2742143D01*
X3399762Y-2738333D01*
X3403571Y-2736429D01*
X3411191Y-2736429D01*
X3415000Y-2738333D01*
X3416905Y-2742143D01*
X3416905Y-2745952D01*
X3397857Y-2749762D01*
X3455000Y-2763095D02*
X3432143Y-2763095D01*
X3443571Y-2763095D02*
X3443571Y-2723095D01*
X3439762Y-2728810D01*
X3435952Y-2732619D01*
X3432143Y-2734524D01*
X3470238Y-2726905D02*
X3472143Y-2725000D01*
X3475952Y-2723095D01*
X3485476Y-2723095D01*
X3489286Y-2725000D01*
X3491191Y-2726905D01*
X3493095Y-2730714D01*
X3493095Y-2734524D01*
X3491191Y-2740238D01*
X3468333Y-2763095D01*
X3493095Y-2763095D01*
X3563571Y-2763095D02*
X3550238Y-2744048D01*
X3540714Y-2763095D02*
X3540714Y-2723095D01*
X3555952Y-2723095D01*
X3559762Y-2725000D01*
X3561667Y-2726905D01*
X3563571Y-2730714D01*
X3563571Y-2736429D01*
X3561667Y-2740238D01*
X3559762Y-2742143D01*
X3555952Y-2744048D01*
X3540714Y-2744048D01*
X3595952Y-2761190D02*
X3592143Y-2763095D01*
X3584524Y-2763095D01*
X3580714Y-2761190D01*
X3578810Y-2757381D01*
X3578810Y-2742143D01*
X3580714Y-2738333D01*
X3584524Y-2736429D01*
X3592143Y-2736429D01*
X3595952Y-2738333D01*
X3597857Y-2742143D01*
X3597857Y-2745952D01*
X3578810Y-2749762D01*
X3611191Y-2736429D02*
X3620714Y-2763095D01*
X3630238Y-2736429D01*
X3645476Y-2759286D02*
X3647381Y-2761190D01*
X3645476Y-2763095D01*
X3643571Y-2761190D01*
X3645476Y-2759286D01*
X3645476Y-2763095D01*
X3693095Y-2751667D02*
X3712143Y-2751667D01*
X3689286Y-2763095D02*
X3702619Y-2723095D01*
X3715952Y-2763095D01*
X3757857Y-2726905D02*
X3759762Y-2725000D01*
X3763571Y-2723095D01*
X3773095Y-2723095D01*
X3776905Y-2725000D01*
X3778810Y-2726905D01*
X3780714Y-2730714D01*
X3780714Y-2734524D01*
X3778810Y-2740238D01*
X3755952Y-2763095D01*
X3780714Y-2763095D01*
X3797857Y-2763095D02*
X3797857Y-2723095D01*
X3820714Y-2763095D01*
X3820714Y-2723095D01*
X3845476Y-2763095D02*
X3841667Y-2761190D01*
X3839762Y-2759286D01*
X3837857Y-2755476D01*
X3837857Y-2744048D01*
X3839762Y-2740238D01*
X3841667Y-2738333D01*
X3845476Y-2736429D01*
X3851190Y-2736429D01*
X3855000Y-2738333D01*
X3856905Y-2740238D01*
X3858810Y-2744048D01*
X3858810Y-2755476D01*
X3856905Y-2759286D01*
X3855000Y-2761190D01*
X3851190Y-2763095D01*
X3845476Y-2763095D01*
X3872143Y-2736429D02*
X3881667Y-2763095D01*
X3891190Y-2736429D01*
X3904524Y-2726905D02*
X3906429Y-2725000D01*
X3910238Y-2723095D01*
X3919762Y-2723095D01*
X3923571Y-2725000D01*
X3925476Y-2726905D01*
X3927381Y-2730714D01*
X3927381Y-2734524D01*
X3925476Y-2740238D01*
X3902619Y-2763095D01*
X3927381Y-2763095D01*
X3952143Y-2723095D02*
X3955952Y-2723095D01*
X3959762Y-2725000D01*
X3961667Y-2726905D01*
X3963571Y-2730714D01*
X3965476Y-2738333D01*
X3965476Y-2747857D01*
X3963571Y-2755476D01*
X3961667Y-2759286D01*
X3959762Y-2761190D01*
X3955952Y-2763095D01*
X3952143Y-2763095D01*
X3948333Y-2761190D01*
X3946429Y-2759286D01*
X3944524Y-2755476D01*
X3942619Y-2747857D01*
X3942619Y-2738333D01*
X3944524Y-2730714D01*
X3946429Y-2726905D01*
X3948333Y-2725000D01*
X3952143Y-2723095D01*
X4003571Y-2763095D02*
X3980714Y-2763095D01*
X3992143Y-2763095D02*
X3992143Y-2723095D01*
X3988333Y-2728810D01*
X3984524Y-2732619D01*
X3980714Y-2734524D01*
X4037857Y-2736429D02*
X4037857Y-2763095D01*
X4028333Y-2721190D02*
X4018810Y-2749762D01*
X4043571Y-2749762D01*
X4100714Y-2778333D02*
X4098810Y-2776429D01*
X4095000Y-2770714D01*
X4093095Y-2766905D01*
X4091190Y-2761190D01*
X4089286Y-2751667D01*
X4089286Y-2744048D01*
X4091190Y-2734524D01*
X4093095Y-2728810D01*
X4095000Y-2725000D01*
X4098810Y-2719286D01*
X4100714Y-2717381D01*
X4133095Y-2761190D02*
X4129286Y-2763095D01*
X4121667Y-2763095D01*
X4117857Y-2761190D01*
X4115952Y-2759286D01*
X4114048Y-2755476D01*
X4114048Y-2744048D01*
X4115952Y-2740238D01*
X4117857Y-2738333D01*
X4121667Y-2736429D01*
X4129286Y-2736429D01*
X4133095Y-2738333D01*
X4146429Y-2778333D02*
X4148333Y-2776429D01*
X4152143Y-2770714D01*
X4154048Y-2766905D01*
X4155952Y-2761190D01*
X4157857Y-2751667D01*
X4157857Y-2744048D01*
X4155952Y-2734524D01*
X4154048Y-2728810D01*
X4152143Y-2725000D01*
X4148333Y-2719286D01*
X4146429Y-2717381D01*
X4205476Y-2726905D02*
X4207381Y-2725000D01*
X4211190Y-2723095D01*
X4220714Y-2723095D01*
X4224524Y-2725000D01*
X4226429Y-2726905D01*
X4228333Y-2730714D01*
X4228333Y-2734524D01*
X4226429Y-2740238D01*
X4203571Y-2763095D01*
X4228333Y-2763095D01*
X4253095Y-2723095D02*
X4256905Y-2723095D01*
X4260714Y-2725000D01*
X4262619Y-2726905D01*
X4264524Y-2730714D01*
X4266429Y-2738333D01*
X4266429Y-2747857D01*
X4264524Y-2755476D01*
X4262619Y-2759286D01*
X4260714Y-2761190D01*
X4256905Y-2763095D01*
X4253095Y-2763095D01*
X4249286Y-2761190D01*
X4247381Y-2759286D01*
X4245476Y-2755476D01*
X4243571Y-2747857D01*
X4243571Y-2738333D01*
X4245476Y-2730714D01*
X4247381Y-2726905D01*
X4249286Y-2725000D01*
X4253095Y-2723095D01*
X4304524Y-2763095D02*
X4281667Y-2763095D01*
X4293095Y-2763095D02*
X4293095Y-2723095D01*
X4289286Y-2728810D01*
X4285476Y-2732619D01*
X4281667Y-2734524D01*
X4338809Y-2736429D02*
X4338809Y-2763095D01*
X4329286Y-2721190D02*
X4319762Y-2749762D01*
X4344524Y-2749762D01*
X4390238Y-2763095D02*
X4390238Y-2723095D01*
X4390238Y-2738333D02*
X4394048Y-2736429D01*
X4401667Y-2736429D01*
X4405476Y-2738333D01*
X4407381Y-2740238D01*
X4409286Y-2744048D01*
X4409286Y-2755476D01*
X4407381Y-2759286D01*
X4405476Y-2761190D01*
X4401667Y-2763095D01*
X4394048Y-2763095D01*
X4390238Y-2761190D01*
X4422619Y-2736429D02*
X4432143Y-2763095D01*
X4441667Y-2736429D02*
X4432143Y-2763095D01*
X4428333Y-2772619D01*
X4426429Y-2774524D01*
X4422619Y-2776429D01*
X4508333Y-2725000D02*
X4504524Y-2723095D01*
X4498809Y-2723095D01*
X4493095Y-2725000D01*
X4489286Y-2728810D01*
X4487381Y-2732619D01*
X4485476Y-2740238D01*
X4485476Y-2745952D01*
X4487381Y-2753571D01*
X4489286Y-2757381D01*
X4493095Y-2761190D01*
X4498809Y-2763095D01*
X4502619Y-2763095D01*
X4508333Y-2761190D01*
X4510238Y-2759286D01*
X4510238Y-2745952D01*
X4502619Y-2745952D01*
X4527381Y-2763095D02*
X4527381Y-2736429D01*
X4527381Y-2744048D02*
X4529286Y-2740238D01*
X4531190Y-2738333D01*
X4535000Y-2736429D01*
X4538809Y-2736429D01*
X4569286Y-2763095D02*
X4569286Y-2742143D01*
X4567381Y-2738333D01*
X4563571Y-2736429D01*
X4555952Y-2736429D01*
X4552143Y-2738333D01*
X4569286Y-2761190D02*
X4565476Y-2763095D01*
X4555952Y-2763095D01*
X4552143Y-2761190D01*
X4550238Y-2757381D01*
X4550238Y-2753571D01*
X4552143Y-2749762D01*
X4555952Y-2747857D01*
X4565476Y-2747857D01*
X4569286Y-2745952D01*
X4588333Y-2763095D02*
X4588333Y-2736429D01*
X4588333Y-2740238D02*
X4590238Y-2738333D01*
X4594048Y-2736429D01*
X4599762Y-2736429D01*
X4603571Y-2738333D01*
X4605476Y-2742143D01*
X4605476Y-2763095D01*
X4605476Y-2742143D02*
X4607381Y-2738333D01*
X4611190Y-2736429D01*
X4616905Y-2736429D01*
X4620714Y-2738333D01*
X4622619Y-2742143D01*
X4622619Y-2763095D01*
X4647381Y-2763095D02*
X4643571Y-2761190D01*
X4641667Y-2757381D01*
X4641667Y-2723095D01*
X4662619Y-2763095D02*
X4662619Y-2736429D01*
X4662619Y-2723095D02*
X4660714Y-2725000D01*
X4662619Y-2726905D01*
X4664524Y-2725000D01*
X4662619Y-2723095D01*
X4662619Y-2726905D01*
X4698809Y-2761190D02*
X4695000Y-2763095D01*
X4687381Y-2763095D01*
X4683571Y-2761190D01*
X4681667Y-2759286D01*
X4679762Y-2755476D01*
X4679762Y-2744048D01*
X4681667Y-2740238D01*
X4683571Y-2738333D01*
X4687381Y-2736429D01*
X4695000Y-2736429D01*
X4698809Y-2738333D01*
X4715952Y-2763095D02*
X4715952Y-2723095D01*
X4733095Y-2763095D02*
X4733095Y-2742143D01*
X4731190Y-2738333D01*
X4727381Y-2736429D01*
X4721667Y-2736429D01*
X4717857Y-2738333D01*
X4715952Y-2740238D01*
X3171905Y-5133095D02*
X3171905Y-5093095D01*
X3171905Y-5108333D02*
X3175714Y-5106429D01*
X3183333Y-5106429D01*
X3187143Y-5108333D01*
X3189048Y-5110238D01*
X3190952Y-5114048D01*
X3190952Y-5125476D01*
X3189048Y-5129286D01*
X3187143Y-5131190D01*
X3183333Y-5133095D01*
X3175714Y-5133095D01*
X3171905Y-5131190D01*
X3225238Y-5106429D02*
X3225238Y-5133095D01*
X3208095Y-5106429D02*
X3208095Y-5127381D01*
X3210000Y-5131190D01*
X3213810Y-5133095D01*
X3219524Y-5133095D01*
X3223333Y-5131190D01*
X3225238Y-5129286D01*
X3242381Y-5131190D02*
X3246191Y-5133095D01*
X3253810Y-5133095D01*
X3257619Y-5131190D01*
X3259524Y-5127381D01*
X3259524Y-5125476D01*
X3257619Y-5121667D01*
X3253810Y-5119762D01*
X3248095Y-5119762D01*
X3244286Y-5117857D01*
X3242381Y-5114048D01*
X3242381Y-5112143D01*
X3244286Y-5108333D01*
X3248095Y-5106429D01*
X3253810Y-5106429D01*
X3257619Y-5108333D01*
X3267143Y-5136905D02*
X3297619Y-5136905D01*
X3324286Y-5106429D02*
X3324286Y-5138810D01*
X3322381Y-5142619D01*
X3320476Y-5144524D01*
X3316667Y-5146429D01*
X3310952Y-5146429D01*
X3307143Y-5144524D01*
X3324286Y-5131190D02*
X3320476Y-5133095D01*
X3312857Y-5133095D01*
X3309048Y-5131190D01*
X3307143Y-5129286D01*
X3305238Y-5125476D01*
X3305238Y-5114048D01*
X3307143Y-5110238D01*
X3309048Y-5108333D01*
X3312857Y-5106429D01*
X3320476Y-5106429D01*
X3324286Y-5108333D01*
X3343333Y-5133095D02*
X3343333Y-5106429D01*
X3343333Y-5114048D02*
X3345238Y-5110238D01*
X3347143Y-5108333D01*
X3350952Y-5106429D01*
X3354762Y-5106429D01*
X3373810Y-5133095D02*
X3370000Y-5131190D01*
X3368095Y-5129286D01*
X3366191Y-5125476D01*
X3366191Y-5114048D01*
X3368095Y-5110238D01*
X3370000Y-5108333D01*
X3373810Y-5106429D01*
X3379524Y-5106429D01*
X3383333Y-5108333D01*
X3385238Y-5110238D01*
X3387143Y-5114048D01*
X3387143Y-5125476D01*
X3385238Y-5129286D01*
X3383333Y-5131190D01*
X3379524Y-5133095D01*
X3373810Y-5133095D01*
X3400476Y-5106429D02*
X3410000Y-5133095D01*
X3419524Y-5106429D01*
X3450000Y-5131190D02*
X3446191Y-5133095D01*
X3438571Y-5133095D01*
X3434762Y-5131190D01*
X3432857Y-5127381D01*
X3432857Y-5112143D01*
X3434762Y-5108333D01*
X3438571Y-5106429D01*
X3446191Y-5106429D01*
X3450000Y-5108333D01*
X3451905Y-5112143D01*
X3451905Y-5115952D01*
X3432857Y-5119762D01*
X3490000Y-5133095D02*
X3467143Y-5133095D01*
X3478571Y-5133095D02*
X3478571Y-5093095D01*
X3474762Y-5098810D01*
X3470952Y-5102619D01*
X3467143Y-5104524D01*
X3505238Y-5096905D02*
X3507143Y-5095000D01*
X3510952Y-5093095D01*
X3520476Y-5093095D01*
X3524286Y-5095000D01*
X3526191Y-5096905D01*
X3528095Y-5100714D01*
X3528095Y-5104524D01*
X3526191Y-5110238D01*
X3503333Y-5133095D01*
X3528095Y-5133095D01*
X3598571Y-5133095D02*
X3585238Y-5114048D01*
X3575714Y-5133095D02*
X3575714Y-5093095D01*
X3590952Y-5093095D01*
X3594762Y-5095000D01*
X3596667Y-5096905D01*
X3598571Y-5100714D01*
X3598571Y-5106429D01*
X3596667Y-5110238D01*
X3594762Y-5112143D01*
X3590952Y-5114048D01*
X3575714Y-5114048D01*
X3630952Y-5131190D02*
X3627143Y-5133095D01*
X3619524Y-5133095D01*
X3615714Y-5131190D01*
X3613810Y-5127381D01*
X3613810Y-5112143D01*
X3615714Y-5108333D01*
X3619524Y-5106429D01*
X3627143Y-5106429D01*
X3630952Y-5108333D01*
X3632857Y-5112143D01*
X3632857Y-5115952D01*
X3613810Y-5119762D01*
X3646191Y-5106429D02*
X3655714Y-5133095D01*
X3665238Y-5106429D01*
X3680476Y-5129286D02*
X3682381Y-5131190D01*
X3680476Y-5133095D01*
X3678571Y-5131190D01*
X3680476Y-5129286D01*
X3680476Y-5133095D01*
X3728095Y-5121667D02*
X3747143Y-5121667D01*
X3724286Y-5133095D02*
X3737619Y-5093095D01*
X3750952Y-5133095D01*
X3792857Y-5096905D02*
X3794762Y-5095000D01*
X3798571Y-5093095D01*
X3808095Y-5093095D01*
X3811905Y-5095000D01*
X3813810Y-5096905D01*
X3815714Y-5100714D01*
X3815714Y-5104524D01*
X3813810Y-5110238D01*
X3790952Y-5133095D01*
X3815714Y-5133095D01*
X3832857Y-5133095D02*
X3832857Y-5093095D01*
X3855714Y-5133095D01*
X3855714Y-5093095D01*
X3880476Y-5133095D02*
X3876667Y-5131190D01*
X3874762Y-5129286D01*
X3872857Y-5125476D01*
X3872857Y-5114048D01*
X3874762Y-5110238D01*
X3876667Y-5108333D01*
X3880476Y-5106429D01*
X3886190Y-5106429D01*
X3890000Y-5108333D01*
X3891905Y-5110238D01*
X3893810Y-5114048D01*
X3893810Y-5125476D01*
X3891905Y-5129286D01*
X3890000Y-5131190D01*
X3886190Y-5133095D01*
X3880476Y-5133095D01*
X3907143Y-5106429D02*
X3916667Y-5133095D01*
X3926190Y-5106429D01*
X3939524Y-5096905D02*
X3941429Y-5095000D01*
X3945238Y-5093095D01*
X3954762Y-5093095D01*
X3958571Y-5095000D01*
X3960476Y-5096905D01*
X3962381Y-5100714D01*
X3962381Y-5104524D01*
X3960476Y-5110238D01*
X3937619Y-5133095D01*
X3962381Y-5133095D01*
X3987143Y-5093095D02*
X3990952Y-5093095D01*
X3994762Y-5095000D01*
X3996667Y-5096905D01*
X3998571Y-5100714D01*
X4000476Y-5108333D01*
X4000476Y-5117857D01*
X3998571Y-5125476D01*
X3996667Y-5129286D01*
X3994762Y-5131190D01*
X3990952Y-5133095D01*
X3987143Y-5133095D01*
X3983333Y-5131190D01*
X3981429Y-5129286D01*
X3979524Y-5125476D01*
X3977619Y-5117857D01*
X3977619Y-5108333D01*
X3979524Y-5100714D01*
X3981429Y-5096905D01*
X3983333Y-5095000D01*
X3987143Y-5093095D01*
X4038571Y-5133095D02*
X4015714Y-5133095D01*
X4027143Y-5133095D02*
X4027143Y-5093095D01*
X4023333Y-5098810D01*
X4019524Y-5102619D01*
X4015714Y-5104524D01*
X4072857Y-5106429D02*
X4072857Y-5133095D01*
X4063333Y-5091190D02*
X4053810Y-5119762D01*
X4078571Y-5119762D01*
X4135714Y-5148333D02*
X4133810Y-5146429D01*
X4130000Y-5140714D01*
X4128095Y-5136905D01*
X4126190Y-5131190D01*
X4124286Y-5121667D01*
X4124286Y-5114048D01*
X4126190Y-5104524D01*
X4128095Y-5098810D01*
X4130000Y-5095000D01*
X4133810Y-5089286D01*
X4135714Y-5087381D01*
X4168095Y-5131190D02*
X4164286Y-5133095D01*
X4156667Y-5133095D01*
X4152857Y-5131190D01*
X4150952Y-5129286D01*
X4149048Y-5125476D01*
X4149048Y-5114048D01*
X4150952Y-5110238D01*
X4152857Y-5108333D01*
X4156667Y-5106429D01*
X4164286Y-5106429D01*
X4168095Y-5108333D01*
X4181429Y-5148333D02*
X4183333Y-5146429D01*
X4187143Y-5140714D01*
X4189048Y-5136905D01*
X4190952Y-5131190D01*
X4192857Y-5121667D01*
X4192857Y-5114048D01*
X4190952Y-5104524D01*
X4189048Y-5098810D01*
X4187143Y-5095000D01*
X4183333Y-5089286D01*
X4181429Y-5087381D01*
X4240476Y-5096905D02*
X4242381Y-5095000D01*
X4246190Y-5093095D01*
X4255714Y-5093095D01*
X4259524Y-5095000D01*
X4261429Y-5096905D01*
X4263333Y-5100714D01*
X4263333Y-5104524D01*
X4261429Y-5110238D01*
X4238571Y-5133095D01*
X4263333Y-5133095D01*
X4288095Y-5093095D02*
X4291905Y-5093095D01*
X4295714Y-5095000D01*
X4297619Y-5096905D01*
X4299524Y-5100714D01*
X4301429Y-5108333D01*
X4301429Y-5117857D01*
X4299524Y-5125476D01*
X4297619Y-5129286D01*
X4295714Y-5131190D01*
X4291905Y-5133095D01*
X4288095Y-5133095D01*
X4284286Y-5131190D01*
X4282381Y-5129286D01*
X4280476Y-5125476D01*
X4278571Y-5117857D01*
X4278571Y-5108333D01*
X4280476Y-5100714D01*
X4282381Y-5096905D01*
X4284286Y-5095000D01*
X4288095Y-5093095D01*
X4339524Y-5133095D02*
X4316667Y-5133095D01*
X4328095Y-5133095D02*
X4328095Y-5093095D01*
X4324286Y-5098810D01*
X4320476Y-5102619D01*
X4316667Y-5104524D01*
X4373809Y-5106429D02*
X4373809Y-5133095D01*
X4364286Y-5091190D02*
X4354762Y-5119762D01*
X4379524Y-5119762D01*
X4425238Y-5133095D02*
X4425238Y-5093095D01*
X4425238Y-5108333D02*
X4429048Y-5106429D01*
X4436667Y-5106429D01*
X4440476Y-5108333D01*
X4442381Y-5110238D01*
X4444286Y-5114048D01*
X4444286Y-5125476D01*
X4442381Y-5129286D01*
X4440476Y-5131190D01*
X4436667Y-5133095D01*
X4429048Y-5133095D01*
X4425238Y-5131190D01*
X4457619Y-5106429D02*
X4467143Y-5133095D01*
X4476667Y-5106429D02*
X4467143Y-5133095D01*
X4463333Y-5142619D01*
X4461429Y-5144524D01*
X4457619Y-5146429D01*
X4543333Y-5095000D02*
X4539524Y-5093095D01*
X4533809Y-5093095D01*
X4528095Y-5095000D01*
X4524286Y-5098810D01*
X4522381Y-5102619D01*
X4520476Y-5110238D01*
X4520476Y-5115952D01*
X4522381Y-5123571D01*
X4524286Y-5127381D01*
X4528095Y-5131190D01*
X4533809Y-5133095D01*
X4537619Y-5133095D01*
X4543333Y-5131190D01*
X4545238Y-5129286D01*
X4545238Y-5115952D01*
X4537619Y-5115952D01*
X4562381Y-5133095D02*
X4562381Y-5106429D01*
X4562381Y-5114048D02*
X4564286Y-5110238D01*
X4566190Y-5108333D01*
X4570000Y-5106429D01*
X4573809Y-5106429D01*
X4604286Y-5133095D02*
X4604286Y-5112143D01*
X4602381Y-5108333D01*
X4598571Y-5106429D01*
X4590952Y-5106429D01*
X4587143Y-5108333D01*
X4604286Y-5131190D02*
X4600476Y-5133095D01*
X4590952Y-5133095D01*
X4587143Y-5131190D01*
X4585238Y-5127381D01*
X4585238Y-5123571D01*
X4587143Y-5119762D01*
X4590952Y-5117857D01*
X4600476Y-5117857D01*
X4604286Y-5115952D01*
X4623333Y-5133095D02*
X4623333Y-5106429D01*
X4623333Y-5110238D02*
X4625238Y-5108333D01*
X4629048Y-5106429D01*
X4634762Y-5106429D01*
X4638571Y-5108333D01*
X4640476Y-5112143D01*
X4640476Y-5133095D01*
X4640476Y-5112143D02*
X4642381Y-5108333D01*
X4646190Y-5106429D01*
X4651905Y-5106429D01*
X4655714Y-5108333D01*
X4657619Y-5112143D01*
X4657619Y-5133095D01*
X4682381Y-5133095D02*
X4678571Y-5131190D01*
X4676667Y-5127381D01*
X4676667Y-5093095D01*
X4697619Y-5133095D02*
X4697619Y-5106429D01*
X4697619Y-5093095D02*
X4695714Y-5095000D01*
X4697619Y-5096905D01*
X4699524Y-5095000D01*
X4697619Y-5093095D01*
X4697619Y-5096905D01*
X4733809Y-5131190D02*
X4730000Y-5133095D01*
X4722381Y-5133095D01*
X4718571Y-5131190D01*
X4716667Y-5129286D01*
X4714762Y-5125476D01*
X4714762Y-5114048D01*
X4716667Y-5110238D01*
X4718571Y-5108333D01*
X4722381Y-5106429D01*
X4730000Y-5106429D01*
X4733809Y-5108333D01*
X4750952Y-5133095D02*
X4750952Y-5093095D01*
X4768095Y-5133095D02*
X4768095Y-5112143D01*
X4766190Y-5108333D01*
X4762381Y-5106429D01*
X4756667Y-5106429D01*
X4752857Y-5108333D01*
X4750952Y-5110238D01*
X5823095Y-4248095D02*
X5804048Y-4261429D01*
X5823095Y-4270952D02*
X5783095Y-4270952D01*
X5783095Y-4255714D01*
X5785000Y-4251905D01*
X5786905Y-4250000D01*
X5790714Y-4248095D01*
X5796429Y-4248095D01*
X5800238Y-4250000D01*
X5802143Y-4251905D01*
X5804048Y-4255714D01*
X5804048Y-4270952D01*
X5802143Y-4230952D02*
X5802143Y-4217619D01*
X5823095Y-4211905D02*
X5823095Y-4230952D01*
X5783095Y-4230952D01*
X5783095Y-4211905D01*
X5821190Y-4196667D02*
X5823095Y-4190952D01*
X5823095Y-4181429D01*
X5821190Y-4177619D01*
X5819286Y-4175714D01*
X5815476Y-4173810D01*
X5811667Y-4173810D01*
X5807857Y-4175714D01*
X5805952Y-4177619D01*
X5804048Y-4181429D01*
X5802143Y-4189048D01*
X5800238Y-4192857D01*
X5798333Y-4194762D01*
X5794524Y-4196667D01*
X5790714Y-4196667D01*
X5786905Y-4194762D01*
X5785000Y-4192857D01*
X5783095Y-4189048D01*
X5783095Y-4179524D01*
X5785000Y-4173810D01*
X5802143Y-4156667D02*
X5802143Y-4143333D01*
X5823095Y-4137619D02*
X5823095Y-4156667D01*
X5783095Y-4156667D01*
X5783095Y-4137619D01*
X5783095Y-4126190D02*
X5783095Y-4103333D01*
X5823095Y-4114762D02*
X5783095Y-4114762D01*
X2036429Y-3518095D02*
X2013571Y-3518095D01*
X2025000Y-3518095D02*
X2025000Y-3478095D01*
X2021191Y-3483810D01*
X2017381Y-3487619D01*
X2013571Y-3489524D01*
X4836429Y-4343095D02*
X4813571Y-4343095D01*
X4825000Y-4343095D02*
X4825000Y-4303095D01*
X4821191Y-4308810D01*
X4817381Y-4312619D01*
X4813571Y-4314524D01*
X4836429Y-3868095D02*
X4813571Y-3868095D01*
X4825000Y-3868095D02*
X4825000Y-3828095D01*
X4821191Y-3833810D01*
X4817381Y-3837619D01*
X4813571Y-3839524D01*
X2761429Y-3443095D02*
X2738571Y-3443095D01*
X2750000Y-3443095D02*
X2750000Y-3403095D01*
X2746191Y-3408810D01*
X2742381Y-3412619D01*
X2738571Y-3414524D01*
X2136429Y-3443095D02*
X2113571Y-3443095D01*
X2125000Y-3443095D02*
X2125000Y-3403095D01*
X2121191Y-3408810D01*
X2117381Y-3412619D01*
X2113571Y-3414524D01*
X2861429Y-4718095D02*
X2838571Y-4718095D01*
X2850000Y-4718095D02*
X2850000Y-4678095D01*
X2846191Y-4683810D01*
X2842381Y-4687619D01*
X2838571Y-4689524D01*
X3236429Y-4018095D02*
X3213571Y-4018095D01*
X3225000Y-4018095D02*
X3225000Y-3978095D01*
X3221191Y-3983810D01*
X3217381Y-3987619D01*
X3213571Y-3989524D01*
X4000000Y-4200000D02*
X3950000Y-4250000D01*
X2809762Y-4577857D02*
X2840238Y-4577857D01*
X2825000Y-4593095D02*
X2825000Y-4562619D01*
X2324762Y-4472857D02*
X2355238Y-4472857D01*
X2340000Y-4488095D02*
X2340000Y-4457619D01*
X2024048Y-4503095D02*
X2031667Y-4503095D01*
X2035476Y-4505000D01*
X2039286Y-4508810D01*
X2041190Y-4516429D01*
X2041190Y-4529762D01*
X2039286Y-4537381D01*
X2035476Y-4541190D01*
X2031667Y-4543095D01*
X2024048Y-4543095D01*
X2020238Y-4541190D01*
X2016429Y-4537381D01*
X2014524Y-4529762D01*
X2014524Y-4516429D01*
X2016429Y-4508810D01*
X2020238Y-4505000D01*
X2024048Y-4503095D01*
X2058333Y-4543095D02*
X2058333Y-4503095D01*
X2081190Y-4543095D01*
X2081190Y-4503095D01*
X2128810Y-4501190D02*
X2094524Y-4552619D01*
X2149762Y-4503095D02*
X2157381Y-4503095D01*
X2161190Y-4505000D01*
X2165000Y-4508810D01*
X2166905Y-4516429D01*
X2166905Y-4529762D01*
X2165000Y-4537381D01*
X2161190Y-4541190D01*
X2157381Y-4543095D01*
X2149762Y-4543095D01*
X2145952Y-4541190D01*
X2142143Y-4537381D01*
X2140238Y-4529762D01*
X2140238Y-4516429D01*
X2142143Y-4508810D01*
X2145952Y-4505000D01*
X2149762Y-4503095D01*
X2197381Y-4522143D02*
X2184048Y-4522143D01*
X2184048Y-4543095D02*
X2184048Y-4503095D01*
X2203095Y-4503095D01*
X2231667Y-4522143D02*
X2218333Y-4522143D01*
X2218333Y-4543095D02*
X2218333Y-4503095D01*
X2237381Y-4503095D01*
X1968504Y-5905512D02*
X1968504Y-1968504D01*
X1968504Y-5905512D02*
X5905512Y-5905512D01*
X5905512Y-1968504D02*
X5905512Y-5905512D01*
X1968504Y-1968504D02*
X5905512Y-1968504D01*
D12*
X2372866Y-4458858D02*
X2570866Y-4458858D01*
X2570866Y-4458858D02*
X2570866Y-4558858D01*
X2570866Y-4558858D02*
X2370866Y-4558858D01*
X2370866Y-4558858D02*
X2370866Y-4458858D01*
X2370866Y-4483858D02*
X2395866Y-4458858D01*
D13*
X2650000Y-4755000D02*
X2650000Y-4595000D01*
X2550000Y-4595000D02*
X2550000Y-4755000D01*
D12*
X2805087Y-4558858D02*
X2607087Y-4558858D01*
X2607087Y-4558858D02*
X2607087Y-4458858D01*
X2607087Y-4458858D02*
X2807087Y-4458858D01*
X2807087Y-4458858D02*
X2807087Y-4558858D01*
X2807087Y-4533858D02*
X2782087Y-4558858D01*
D13*
X4020000Y-4175000D02*
X4180000Y-4175000D01*
X4180000Y-4075000D02*
X4020000Y-4075000D01*
X4705000Y-4225000D02*
X4545000Y-4225000D01*
X4545000Y-4325000D02*
X4705000Y-4325000D01*
X4380000Y-4075000D02*
X4220000Y-4075000D01*
X4220000Y-4175000D02*
X4380000Y-4175000D01*
X4150000Y-3445000D02*
X4150000Y-3605000D01*
X4250000Y-3605000D02*
X4250000Y-3445000D01*
X2025000Y-3195000D02*
X2025000Y-3355000D01*
X2125000Y-3355000D02*
X2125000Y-3195000D01*
X3920000Y-3675000D02*
X4080000Y-3675000D01*
X4080000Y-3575000D02*
X3920000Y-3575000D01*
X3980000Y-4075000D02*
X3820000Y-4075000D01*
X3820000Y-4175000D02*
X3980000Y-4175000D01*
X5600000Y-4045000D02*
X5600000Y-4205000D01*
X5700000Y-4205000D02*
X5700000Y-4045000D01*
X5600000Y-3545000D02*
X5600000Y-3705000D01*
X5700000Y-3705000D02*
X5700000Y-3545000D01*
X5400000Y-4425000D02*
X5360000Y-4425000D01*
X5590000Y-4425000D02*
X5640000Y-4425000D01*
D14*
X5580000Y-4375000D02*
X5580000Y-4475000D01*
X5570000Y-4375000D02*
X5570000Y-4475000D01*
X5560000Y-4375000D02*
X5560000Y-4475000D01*
X5590000Y-4375000D02*
X5590000Y-4475000D01*
X5550000Y-4375000D02*
X5600000Y-4475000D01*
X5600000Y-4375000D02*
X5550000Y-4475000D01*
X5550000Y-4375000D02*
X5550000Y-4475000D01*
X5575000Y-4375000D02*
X5575000Y-4475000D01*
X5600000Y-4475000D02*
X5600000Y-4375000D01*
X5600000Y-4375000D02*
X5400000Y-4375000D01*
X5400000Y-4375000D02*
X5400000Y-4475000D01*
X5400000Y-4475000D02*
X5600000Y-4475000D01*
X2100000Y-4475000D02*
X2300000Y-4475000D01*
X2300000Y-4475000D02*
X2300000Y-4375000D01*
X2300000Y-4375000D02*
X2100000Y-4375000D01*
X2000000Y-4375000D02*
X2100000Y-4375000D01*
X2100000Y-4375000D02*
X2100000Y-4475000D01*
X2000000Y-4375000D02*
X2000000Y-4475000D01*
X2000000Y-4475000D02*
X2100000Y-4475000D01*
D15*
X1945354Y-3737008D02*
X1975354Y-3717008D01*
X1945354Y-3737008D02*
X1975354Y-3757008D01*
D14*
X1975354Y-4027008D02*
X1995354Y-4027008D01*
X1995354Y-4027008D02*
X1995354Y-3847008D01*
X1995354Y-3847008D02*
X1975354Y-3847008D01*
X2355354Y-3537008D02*
X2355354Y-4337008D01*
X2355354Y-4337008D02*
X1975354Y-4337008D01*
X1975354Y-4337008D02*
X1975354Y-3537008D01*
X1975354Y-3537008D02*
X2355354Y-3537008D01*
X2875000Y-4650000D02*
X2875000Y-4150000D01*
X2875000Y-4150000D02*
X2975000Y-4150000D01*
X2975000Y-4150000D02*
X2975000Y-4650000D01*
X2875000Y-4750000D02*
X2875000Y-4650000D01*
X2875000Y-4650000D02*
X2975000Y-4650000D01*
X2875000Y-4750000D02*
X2975000Y-4750000D01*
X2975000Y-4750000D02*
X2975000Y-4650000D01*
D15*
X2875000Y-3150000D02*
X2875000Y-3250000D01*
X2875000Y-3250000D02*
X2775000Y-3250000D01*
X2775000Y-3150000D02*
X2775000Y-3450000D01*
X2775000Y-3450000D02*
X2975000Y-3450000D01*
X2975000Y-3450000D02*
X2975000Y-3250000D01*
X2775000Y-3150000D02*
X2875000Y-3150000D01*
X2975000Y-3150000D02*
X2875000Y-3150000D01*
X2975000Y-3250000D02*
X2975000Y-3150000D01*
X3050000Y-3750000D02*
X3050000Y-3700000D01*
X3050000Y-3950000D02*
X3050000Y-4000000D01*
X3000000Y-3950000D02*
X3100000Y-3950000D01*
X3100000Y-3950000D02*
X3100000Y-3750000D01*
X3100000Y-3750000D02*
X3000000Y-3750000D01*
X3000000Y-3750000D02*
X3000000Y-3950000D01*
X2925000Y-3950000D02*
X2925000Y-4000000D01*
X2925000Y-3750000D02*
X2925000Y-3700000D01*
X2975000Y-3750000D02*
X2875000Y-3750000D01*
X2875000Y-3750000D02*
X2875000Y-3950000D01*
X2875000Y-3950000D02*
X2975000Y-3950000D01*
X2975000Y-3950000D02*
X2975000Y-3750000D01*
X3350000Y-4475000D02*
X3400000Y-4475000D01*
X3150000Y-4475000D02*
X3100000Y-4475000D01*
X3150000Y-4425000D02*
X3150000Y-4525000D01*
X3150000Y-4525000D02*
X3350000Y-4525000D01*
X3350000Y-4525000D02*
X3350000Y-4425000D01*
X3350000Y-4425000D02*
X3150000Y-4425000D01*
X3350000Y-4350000D02*
X3400000Y-4350000D01*
X3150000Y-4350000D02*
X3100000Y-4350000D01*
X3150000Y-4300000D02*
X3150000Y-4400000D01*
X3150000Y-4400000D02*
X3350000Y-4400000D01*
X3350000Y-4400000D02*
X3350000Y-4300000D01*
X3350000Y-4300000D02*
X3150000Y-4300000D01*
X5050000Y-4425000D02*
X5100000Y-4425000D01*
X4850000Y-4425000D02*
X4800000Y-4425000D01*
X4850000Y-4375000D02*
X4850000Y-4475000D01*
X4850000Y-4475000D02*
X5050000Y-4475000D01*
X5050000Y-4475000D02*
X5050000Y-4375000D01*
X5050000Y-4375000D02*
X4850000Y-4375000D01*
X4325000Y-4475000D02*
X4275000Y-4475000D01*
X4525000Y-4475000D02*
X4575000Y-4475000D01*
X4525000Y-4525000D02*
X4525000Y-4425000D01*
X4525000Y-4425000D02*
X4325000Y-4425000D01*
X4325000Y-4425000D02*
X4325000Y-4525000D01*
X4325000Y-4525000D02*
X4525000Y-4525000D01*
X5350000Y-3875000D02*
X5300000Y-3875000D01*
X5550000Y-3875000D02*
X5600000Y-3875000D01*
X5550000Y-3925000D02*
X5550000Y-3825000D01*
X5550000Y-3825000D02*
X5350000Y-3825000D01*
X5350000Y-3825000D02*
X5350000Y-3925000D01*
X5350000Y-3925000D02*
X5550000Y-3925000D01*
X4625000Y-3600000D02*
X4675000Y-3600000D01*
X4425000Y-3600000D02*
X4375000Y-3600000D01*
X4425000Y-3550000D02*
X4425000Y-3650000D01*
X4425000Y-3650000D02*
X4625000Y-3650000D01*
X4625000Y-3650000D02*
X4625000Y-3550000D01*
X4625000Y-3550000D02*
X4425000Y-3550000D01*
D13*
X5868900Y-3781900D02*
X5859100Y-3781900D01*
X5868900Y-4018100D02*
X5859100Y-4018100D01*
X5731100Y-3781900D02*
X5740900Y-3781900D01*
X5731100Y-4018100D02*
X5740900Y-4018100D01*
X5868900Y-4018100D02*
X5868900Y-3781900D01*
X5731100Y-4018100D02*
X5731100Y-3781900D01*
X2500000Y-4205000D02*
X2500000Y-4260000D01*
X2600000Y-4205000D02*
X2600000Y-4260000D01*
X2700000Y-4205000D02*
X2700000Y-4260000D01*
X2698995Y-3690000D02*
G75*
G03X2698995Y-3690000I-98995J0D01*
G74*
G01*
X2810000Y-3870000D02*
X2810000Y-3555000D01*
X2810000Y-3555000D02*
X2390000Y-3555000D01*
X2390000Y-3555000D02*
X2390000Y-3870000D01*
X2810000Y-4205000D02*
X2810000Y-3870000D01*
X2810000Y-3870000D02*
X2390000Y-3870000D01*
X2390000Y-3870000D02*
X2390000Y-4205000D01*
X2600000Y-4205000D02*
X2390000Y-4205000D01*
X2600000Y-4205000D02*
X2810000Y-4205000D01*
X4800000Y-4025000D02*
X5600000Y-4025000D01*
X5600000Y-4225000D02*
X4800000Y-4225000D01*
X4800000Y-4225000D02*
X4800000Y-4025000D01*
X4800000Y-4075000D02*
X4850000Y-4075000D01*
X4850000Y-4075000D02*
X4850000Y-4175000D01*
X4850000Y-4175000D02*
X4800000Y-4175000D01*
X5600000Y-4025000D02*
X5600000Y-4225000D01*
D14*
X2150000Y-3225000D02*
X2200000Y-3225000D01*
X2200000Y-3225000D02*
X2200000Y-3325000D01*
X2200000Y-3325000D02*
X2150000Y-3325000D01*
X2150000Y-3175000D02*
X2550000Y-3175000D01*
X2550000Y-3175000D02*
X2550000Y-3375000D01*
X2550000Y-3375000D02*
X2150000Y-3375000D01*
X2150000Y-3375000D02*
X2150000Y-3175000D01*
D13*
X4800000Y-3525000D02*
X5600000Y-3525000D01*
X5600000Y-3725000D02*
X4800000Y-3725000D01*
X4800000Y-3725000D02*
X4800000Y-3525000D01*
X4800000Y-3575000D02*
X4850000Y-3575000D01*
X4850000Y-3575000D02*
X4850000Y-3675000D01*
X4850000Y-3675000D02*
X4800000Y-3675000D01*
X5600000Y-3525000D02*
X5600000Y-3725000D01*
X3250000Y-3775000D02*
X4750000Y-3775000D01*
X4750000Y-3775000D02*
X4750000Y-3975000D01*
X4750000Y-3975000D02*
X3250000Y-3975000D01*
X3250000Y-3975000D02*
X3250000Y-3775000D01*
X3250000Y-3825000D02*
X3300000Y-3825000D01*
X3300000Y-3825000D02*
X3300000Y-3925000D01*
X3300000Y-3925000D02*
X3250000Y-3925000D01*
X4385000Y-4260600D02*
X4392900Y-4276400D01*
X4392900Y-4276400D02*
X4396900Y-4300000D01*
X4396900Y-4300000D02*
X4392900Y-4319700D01*
X4392900Y-4319700D02*
X4377200Y-4347200D01*
X4377200Y-4347200D02*
X4353500Y-4363000D01*
X4353500Y-4363000D02*
X4329900Y-4370900D01*
X4329900Y-4370900D02*
X4070100Y-4370900D01*
X4070100Y-4370900D02*
X4042500Y-4363000D01*
X4042500Y-4363000D02*
X4026800Y-4351200D01*
X4026800Y-4351200D02*
X4011000Y-4331500D01*
X4011000Y-4331500D02*
X4003100Y-4307900D01*
X4003100Y-4307900D02*
X4003100Y-4288200D01*
X4003100Y-4288200D02*
X4011000Y-4268500D01*
X4011000Y-4268500D02*
X4030700Y-4244900D01*
X4030700Y-4244900D02*
X4050400Y-4233100D01*
X4050400Y-4233100D02*
X4070100Y-4229100D01*
X4074000Y-4229100D02*
X4333900Y-4229100D01*
X4333900Y-4229100D02*
X4349600Y-4233100D01*
X4349600Y-4233100D02*
X4369300Y-4244900D01*
X4369300Y-4244900D02*
X4389000Y-4264600D01*
X4074400Y-4208300D02*
X4056300Y-4210200D01*
X4056300Y-4210200D02*
X4040600Y-4214600D01*
X4040600Y-4214600D02*
X4023600Y-4223200D01*
X4023600Y-4223200D02*
X4012200Y-4232300D01*
X4012200Y-4232300D02*
X3999200Y-4246100D01*
X3999200Y-4246100D02*
X3987800Y-4267300D01*
X3987800Y-4267300D02*
X3982700Y-4290900D01*
X3982700Y-4290900D02*
X3982700Y-4311000D01*
X3982700Y-4311000D02*
X3989400Y-4338600D01*
X3989400Y-4338600D02*
X4005100Y-4361800D01*
X4005100Y-4361800D02*
X4023200Y-4376400D01*
X4023200Y-4376400D02*
X4039800Y-4384600D01*
X4039800Y-4384600D02*
X4057500Y-4390900D01*
X4057500Y-4390900D02*
X4074800Y-4392100D01*
X4363800Y-4383500D02*
X4378700Y-4374800D01*
X4378700Y-4374800D02*
X4391300Y-4363800D01*
X4391300Y-4363800D02*
X4401200Y-4350800D01*
X4401200Y-4350800D02*
X4413000Y-4329100D01*
X4413000Y-4329100D02*
X4417300Y-4310600D01*
X4417300Y-4310600D02*
X4418100Y-4292500D01*
X4418100Y-4292500D02*
X4414600Y-4274400D01*
X4414600Y-4274400D02*
X4407100Y-4256700D01*
X4407100Y-4256700D02*
X4392900Y-4238200D01*
X4392900Y-4238200D02*
X4379100Y-4225600D01*
X4379100Y-4225600D02*
X4363800Y-4216500D01*
X4363800Y-4216500D02*
X4346900Y-4211000D01*
X4346900Y-4211000D02*
X4329500Y-4208300D01*
X4074000Y-4391700D02*
X4328000Y-4391700D01*
X4328000Y-4391700D02*
X4344500Y-4390200D01*
X4344500Y-4390200D02*
X4363800Y-4383500D01*
X4074000Y-4208300D02*
X4328000Y-4208300D01*
D15*
X3503937Y-4732283D02*
X3503937Y-4771654D01*
X3503937Y-4771654D02*
X3464567Y-4771654D01*
X3464567Y-4771654D02*
X3464567Y-4732283D01*
X3110236Y-4732283D02*
X3110236Y-4771654D01*
X3110236Y-4771654D02*
X3149606Y-4771654D01*
X3149606Y-4771654D02*
X3149606Y-4732283D01*
X3110236Y-4732283D02*
X3503937Y-4732283D01*
X3110236Y-4559055D02*
X3503937Y-4559055D01*
X3503937Y-4732283D02*
X3503937Y-4559055D01*
X3110236Y-4559055D02*
X3110236Y-4732283D01*
X3976378Y-4732283D02*
X3976378Y-4771654D01*
X3976378Y-4771654D02*
X3937008Y-4771654D01*
X3937008Y-4771654D02*
X3937008Y-4732283D01*
X3582677Y-4732283D02*
X3582677Y-4771654D01*
X3582677Y-4771654D02*
X3622047Y-4771654D01*
X3622047Y-4771654D02*
X3622047Y-4732283D01*
X3582677Y-4732283D02*
X3976378Y-4732283D01*
X3582677Y-4559055D02*
X3976378Y-4559055D01*
X3976378Y-4732283D02*
X3976378Y-4559055D01*
X3582677Y-4559055D02*
X3582677Y-4732283D01*
X4448819Y-4732283D02*
X4448819Y-4771654D01*
X4448819Y-4771654D02*
X4409449Y-4771654D01*
X4409449Y-4771654D02*
X4409449Y-4732283D01*
X4055118Y-4732283D02*
X4055118Y-4771654D01*
X4055118Y-4771654D02*
X4094488Y-4771654D01*
X4094488Y-4771654D02*
X4094488Y-4732283D01*
X4055118Y-4732283D02*
X4448819Y-4732283D01*
X4055118Y-4559055D02*
X4448819Y-4559055D01*
X4448819Y-4732283D02*
X4448819Y-4559055D01*
X4055118Y-4559055D02*
X4055118Y-4732283D01*
X4921260Y-4732283D02*
X4921260Y-4771654D01*
X4921260Y-4771654D02*
X4881890Y-4771654D01*
X4881890Y-4771654D02*
X4881890Y-4732283D01*
X4527559Y-4732283D02*
X4527559Y-4771654D01*
X4527559Y-4771654D02*
X4566929Y-4771654D01*
X4566929Y-4771654D02*
X4566929Y-4732283D01*
X4527559Y-4732283D02*
X4921260Y-4732283D01*
X4527559Y-4559055D02*
X4921260Y-4559055D01*
X4921260Y-4732283D02*
X4921260Y-4559055D01*
X4527559Y-4559055D02*
X4527559Y-4732283D01*
X5393701Y-4732283D02*
X5393701Y-4771654D01*
X5393701Y-4771654D02*
X5354331Y-4771654D01*
X5354331Y-4771654D02*
X5354331Y-4732283D01*
X5000000Y-4732283D02*
X5000000Y-4771654D01*
X5000000Y-4771654D02*
X5039370Y-4771654D01*
X5039370Y-4771654D02*
X5039370Y-4732283D01*
X5000000Y-4732283D02*
X5393701Y-4732283D01*
X5000000Y-4559055D02*
X5393701Y-4559055D01*
X5393701Y-4732283D02*
X5393701Y-4559055D01*
X5000000Y-4559055D02*
X5000000Y-4732283D01*
X5866142Y-4732283D02*
X5866142Y-4771654D01*
X5866142Y-4771654D02*
X5826772Y-4771654D01*
X5826772Y-4771654D02*
X5826772Y-4732283D01*
X5472441Y-4732283D02*
X5472441Y-4771654D01*
X5472441Y-4771654D02*
X5511811Y-4771654D01*
X5511811Y-4771654D02*
X5511811Y-4732283D01*
X5472441Y-4732283D02*
X5866142Y-4732283D01*
X5472441Y-4559055D02*
X5866142Y-4559055D01*
X5866142Y-4732283D02*
X5866142Y-4559055D01*
X5472441Y-4559055D02*
X5472441Y-4732283D01*
X3582677Y-3141732D02*
X3582677Y-3102362D01*
X3582677Y-3102362D02*
X3622047Y-3102362D01*
X3622047Y-3102362D02*
X3622047Y-3141732D01*
X3976378Y-3141732D02*
X3976378Y-3102362D01*
X3976378Y-3102362D02*
X3937008Y-3102362D01*
X3937008Y-3102362D02*
X3937008Y-3141732D01*
X3976378Y-3141732D02*
X3582677Y-3141732D01*
X3976378Y-3314961D02*
X3582677Y-3314961D01*
X3582677Y-3141732D02*
X3582677Y-3314961D01*
X3976378Y-3314961D02*
X3976378Y-3141732D01*
X3110236Y-3141732D02*
X3110236Y-3102362D01*
X3110236Y-3102362D02*
X3149606Y-3102362D01*
X3149606Y-3102362D02*
X3149606Y-3141732D01*
X3503937Y-3141732D02*
X3503937Y-3102362D01*
X3503937Y-3102362D02*
X3464567Y-3102362D01*
X3464567Y-3102362D02*
X3464567Y-3141732D01*
X3503937Y-3141732D02*
X3110236Y-3141732D01*
X3503937Y-3314961D02*
X3110236Y-3314961D01*
X3110236Y-3141732D02*
X3110236Y-3314961D01*
X3503937Y-3314961D02*
X3503937Y-3141732D01*
X4055118Y-3141732D02*
X4055118Y-3102362D01*
X4055118Y-3102362D02*
X4094488Y-3102362D01*
X4094488Y-3102362D02*
X4094488Y-3141732D01*
X4448819Y-3141732D02*
X4448819Y-3102362D01*
X4448819Y-3102362D02*
X4409449Y-3102362D01*
X4409449Y-3102362D02*
X4409449Y-3141732D01*
X4448819Y-3141732D02*
X4055118Y-3141732D01*
X4448819Y-3314961D02*
X4055118Y-3314961D01*
X4055118Y-3141732D02*
X4055118Y-3314961D01*
X4448819Y-3314961D02*
X4448819Y-3141732D01*
X4527559Y-3141732D02*
X4527559Y-3102362D01*
X4527559Y-3102362D02*
X4566929Y-3102362D01*
X4566929Y-3102362D02*
X4566929Y-3141732D01*
X4921260Y-3141732D02*
X4921260Y-3102362D01*
X4921260Y-3102362D02*
X4881890Y-3102362D01*
X4881890Y-3102362D02*
X4881890Y-3141732D01*
X4921260Y-3141732D02*
X4527559Y-3141732D01*
X4921260Y-3314961D02*
X4527559Y-3314961D01*
X4527559Y-3141732D02*
X4527559Y-3314961D01*
X4921260Y-3314961D02*
X4921260Y-3141732D01*
X5000000Y-3141732D02*
X5000000Y-3102362D01*
X5000000Y-3102362D02*
X5039370Y-3102362D01*
X5039370Y-3102362D02*
X5039370Y-3141732D01*
X5393701Y-3141732D02*
X5393701Y-3102362D01*
X5393701Y-3102362D02*
X5354331Y-3102362D01*
X5354331Y-3102362D02*
X5354331Y-3141732D01*
X5393701Y-3141732D02*
X5000000Y-3141732D01*
X5393701Y-3314961D02*
X5000000Y-3314961D01*
X5000000Y-3141732D02*
X5000000Y-3314961D01*
X5393701Y-3314961D02*
X5393701Y-3141732D01*
X5472441Y-3141732D02*
X5472441Y-3102362D01*
X5472441Y-3102362D02*
X5511811Y-3102362D01*
X5511811Y-3102362D02*
X5511811Y-3141732D01*
X5866142Y-3141732D02*
X5866142Y-3102362D01*
X5866142Y-3102362D02*
X5826772Y-3102362D01*
X5826772Y-3102362D02*
X5826772Y-3141732D01*
X5866142Y-3141732D02*
X5472441Y-3141732D01*
X5866142Y-3314961D02*
X5472441Y-3314961D01*
X5472441Y-3141732D02*
X5472441Y-3314961D01*
X5866142Y-3314961D02*
X5866142Y-3141732D01*
X3750000Y-3450000D02*
X3800000Y-3450000D01*
X3550000Y-3450000D02*
X3500000Y-3450000D01*
X3550000Y-3400000D02*
X3550000Y-3500000D01*
X3550000Y-3500000D02*
X3750000Y-3500000D01*
X3750000Y-3500000D02*
X3750000Y-3400000D01*
X3750000Y-3400000D02*
X3550000Y-3400000D01*
X3750000Y-3600000D02*
X3800000Y-3600000D01*
X3550000Y-3600000D02*
X3500000Y-3600000D01*
X3550000Y-3550000D02*
X3550000Y-3650000D01*
X3550000Y-3650000D02*
X3750000Y-3650000D01*
X3750000Y-3650000D02*
X3750000Y-3550000D01*
X3750000Y-3550000D02*
X3550000Y-3550000D01*
X2375000Y-4750000D02*
X2425000Y-4750000D01*
X2175000Y-4750000D02*
X2125000Y-4750000D01*
X2175000Y-4700000D02*
X2175000Y-4800000D01*
X2175000Y-4800000D02*
X2375000Y-4800000D01*
X2375000Y-4800000D02*
X2375000Y-4700000D01*
X2375000Y-4700000D02*
X2175000Y-4700000D01*
X2175000Y-4625000D02*
X2125000Y-4625000D01*
X2375000Y-4625000D02*
X2425000Y-4625000D01*
X2375000Y-4675000D02*
X2375000Y-4575000D01*
X2375000Y-4575000D02*
X2175000Y-4575000D01*
X2175000Y-4575000D02*
X2175000Y-4675000D01*
X2175000Y-4675000D02*
X2375000Y-4675000D01*
X3320000Y-3515000D02*
G75*
G03X3290000Y-3355000I-95000J65000D01*
G74*
G01*
X3290000Y-3355000D02*
X3160000Y-3355000D01*
X3160000Y-3355000D02*
G75*
G03X3320000Y-3385000I65000J-95000D01*
G74*
G01*
D14*
X3575000Y-4275000D02*
X3575000Y-4375000D01*
X3575000Y-4375000D02*
X3675000Y-4375000D01*
X3675000Y-4375000D02*
X3675000Y-4275000D01*
X3675000Y-4275000D02*
X3575000Y-4275000D01*
X3575000Y-4275000D02*
X3575000Y-4175000D01*
X3575000Y-4175000D02*
X3775000Y-4175000D01*
X3775000Y-4175000D02*
X3775000Y-4375000D01*
X3775000Y-4375000D02*
X3675000Y-4375000D01*
D15*
X3150000Y-4225000D02*
X3100000Y-4225000D01*
X3350000Y-4225000D02*
X3400000Y-4225000D01*
X3350000Y-4275000D02*
X3350000Y-4175000D01*
X3350000Y-4175000D02*
X3150000Y-4175000D01*
X3150000Y-4175000D02*
X3150000Y-4275000D01*
X3150000Y-4275000D02*
X3350000Y-4275000D01*
X3950000Y-4450000D02*
X4000000Y-4450000D01*
X3750000Y-4450000D02*
X3700000Y-4450000D01*
X3750000Y-4400000D02*
X3750000Y-4500000D01*
X3750000Y-4500000D02*
X3950000Y-4500000D01*
X3950000Y-4500000D02*
X3950000Y-4400000D01*
X3950000Y-4400000D02*
X3750000Y-4400000D01*
D11*
X2418333Y-4439286D02*
X2416429Y-4441190D01*
X2410714Y-4443095D01*
X2406905Y-4443095D01*
X2401191Y-4441190D01*
X2397381Y-4437381D01*
X2395476Y-4433571D01*
X2393571Y-4425952D01*
X2393571Y-4420238D01*
X2395476Y-4412619D01*
X2397381Y-4408810D01*
X2401191Y-4405000D01*
X2406905Y-4403095D01*
X2410714Y-4403095D01*
X2416429Y-4405000D01*
X2418333Y-4406905D01*
X2456429Y-4443095D02*
X2433571Y-4443095D01*
X2445000Y-4443095D02*
X2445000Y-4403095D01*
X2441191Y-4408810D01*
X2437381Y-4412619D01*
X2433571Y-4414524D01*
X2693333Y-4689286D02*
X2691429Y-4691190D01*
X2685714Y-4693095D01*
X2681905Y-4693095D01*
X2676191Y-4691190D01*
X2672381Y-4687381D01*
X2670476Y-4683571D01*
X2668571Y-4675952D01*
X2668571Y-4670238D01*
X2670476Y-4662619D01*
X2672381Y-4658810D01*
X2676191Y-4655000D01*
X2681905Y-4653095D01*
X2685714Y-4653095D01*
X2691429Y-4655000D01*
X2693333Y-4656905D01*
X2708571Y-4656905D02*
X2710476Y-4655000D01*
X2714286Y-4653095D01*
X2723810Y-4653095D01*
X2727619Y-4655000D01*
X2729524Y-4656905D01*
X2731429Y-4660714D01*
X2731429Y-4664524D01*
X2729524Y-4670238D01*
X2706667Y-4693095D01*
X2731429Y-4693095D01*
X2701995Y-4608577D02*
X2700090Y-4610482D01*
X2694376Y-4612387D01*
X2690566Y-4612387D01*
X2684852Y-4610482D01*
X2681042Y-4606672D01*
X2679138Y-4602863D01*
X2677233Y-4595244D01*
X2677233Y-4589529D01*
X2679138Y-4581910D01*
X2681042Y-4578101D01*
X2684852Y-4574291D01*
X2690566Y-4572387D01*
X2694376Y-4572387D01*
X2700090Y-4574291D01*
X2701995Y-4576196D01*
X2715328Y-4572387D02*
X2740090Y-4572387D01*
X2726757Y-4587625D01*
X2732471Y-4587625D01*
X2736280Y-4589529D01*
X2738185Y-4591434D01*
X2740090Y-4595244D01*
X2740090Y-4604768D01*
X2738185Y-4608577D01*
X2736280Y-4610482D01*
X2732471Y-4612387D01*
X2721042Y-4612387D01*
X2717233Y-4610482D01*
X2715328Y-4608577D01*
X3893333Y-4289286D02*
X3891429Y-4291190D01*
X3885714Y-4293095D01*
X3881905Y-4293095D01*
X3876191Y-4291190D01*
X3872381Y-4287381D01*
X3870476Y-4283571D01*
X3868571Y-4275952D01*
X3868571Y-4270238D01*
X3870476Y-4262619D01*
X3872381Y-4258810D01*
X3876191Y-4255000D01*
X3881905Y-4253095D01*
X3885714Y-4253095D01*
X3891429Y-4255000D01*
X3893333Y-4256905D01*
X3927619Y-4266429D02*
X3927619Y-4293095D01*
X3918095Y-4251190D02*
X3908571Y-4279762D01*
X3933333Y-4279762D01*
X4618727Y-4204246D02*
X4616822Y-4206151D01*
X4611108Y-4208056D01*
X4607298Y-4208056D01*
X4601584Y-4206151D01*
X4597775Y-4202342D01*
X4595870Y-4198532D01*
X4593965Y-4190913D01*
X4593965Y-4185199D01*
X4595870Y-4177580D01*
X4597775Y-4173770D01*
X4601584Y-4169961D01*
X4607298Y-4168056D01*
X4611108Y-4168056D01*
X4616822Y-4169961D01*
X4618727Y-4171865D01*
X4654918Y-4168056D02*
X4635870Y-4168056D01*
X4633965Y-4187104D01*
X4635870Y-4185199D01*
X4639679Y-4183294D01*
X4649203Y-4183294D01*
X4653013Y-4185199D01*
X4654918Y-4187104D01*
X4656822Y-4190913D01*
X4656822Y-4200437D01*
X4654918Y-4204246D01*
X4653013Y-4206151D01*
X4649203Y-4208056D01*
X4639679Y-4208056D01*
X4635870Y-4206151D01*
X4633965Y-4204246D01*
X4418333Y-4139286D02*
X4416429Y-4141190D01*
X4410714Y-4143095D01*
X4406905Y-4143095D01*
X4401191Y-4141190D01*
X4397381Y-4137381D01*
X4395476Y-4133571D01*
X4393571Y-4125952D01*
X4393571Y-4120238D01*
X4395476Y-4112619D01*
X4397381Y-4108810D01*
X4401191Y-4105000D01*
X4406905Y-4103095D01*
X4410714Y-4103095D01*
X4416429Y-4105000D01*
X4418333Y-4106905D01*
X4452619Y-4103095D02*
X4445000Y-4103095D01*
X4441191Y-4105000D01*
X4439286Y-4106905D01*
X4435476Y-4112619D01*
X4433571Y-4120238D01*
X4433571Y-4135476D01*
X4435476Y-4139286D01*
X4437381Y-4141190D01*
X4441191Y-4143095D01*
X4448810Y-4143095D01*
X4452619Y-4141190D01*
X4454524Y-4139286D01*
X4456429Y-4135476D01*
X4456429Y-4125952D01*
X4454524Y-4122143D01*
X4452619Y-4120238D01*
X4448810Y-4118333D01*
X4441191Y-4118333D01*
X4437381Y-4120238D01*
X4435476Y-4122143D01*
X4433571Y-4125952D01*
X4193333Y-3414286D02*
X4191429Y-3416190D01*
X4185714Y-3418095D01*
X4181905Y-3418095D01*
X4176191Y-3416190D01*
X4172381Y-3412381D01*
X4170476Y-3408571D01*
X4168571Y-3400952D01*
X4168571Y-3395238D01*
X4170476Y-3387619D01*
X4172381Y-3383810D01*
X4176191Y-3380000D01*
X4181905Y-3378095D01*
X4185714Y-3378095D01*
X4191429Y-3380000D01*
X4193333Y-3381905D01*
X4206667Y-3378095D02*
X4233333Y-3378095D01*
X4216191Y-3418095D01*
X2068333Y-3164286D02*
X2066429Y-3166190D01*
X2060714Y-3168095D01*
X2056905Y-3168095D01*
X2051191Y-3166190D01*
X2047381Y-3162381D01*
X2045476Y-3158571D01*
X2043571Y-3150952D01*
X2043571Y-3145238D01*
X2045476Y-3137619D01*
X2047381Y-3133810D01*
X2051191Y-3130000D01*
X2056905Y-3128095D01*
X2060714Y-3128095D01*
X2066429Y-3130000D01*
X2068333Y-3131905D01*
X2091191Y-3145238D02*
X2087381Y-3143333D01*
X2085476Y-3141429D01*
X2083571Y-3137619D01*
X2083571Y-3135714D01*
X2085476Y-3131905D01*
X2087381Y-3130000D01*
X2091191Y-3128095D01*
X2098810Y-3128095D01*
X2102619Y-3130000D01*
X2104524Y-3131905D01*
X2106429Y-3135714D01*
X2106429Y-3137619D01*
X2104524Y-3141429D01*
X2102619Y-3143333D01*
X2098810Y-3145238D01*
X2091191Y-3145238D01*
X2087381Y-3147143D01*
X2085476Y-3149048D01*
X2083571Y-3152857D01*
X2083571Y-3160476D01*
X2085476Y-3164286D01*
X2087381Y-3166190D01*
X2091191Y-3168095D01*
X2098810Y-3168095D01*
X2102619Y-3166190D01*
X2104524Y-3164286D01*
X2106429Y-3160476D01*
X2106429Y-3152857D01*
X2104524Y-3149048D01*
X2102619Y-3147143D01*
X2098810Y-3145238D01*
X3993333Y-3539286D02*
X3991429Y-3541190D01*
X3985714Y-3543095D01*
X3981905Y-3543095D01*
X3976191Y-3541190D01*
X3972381Y-3537381D01*
X3970476Y-3533571D01*
X3968571Y-3525952D01*
X3968571Y-3520238D01*
X3970476Y-3512619D01*
X3972381Y-3508810D01*
X3976191Y-3505000D01*
X3981905Y-3503095D01*
X3985714Y-3503095D01*
X3991429Y-3505000D01*
X3993333Y-3506905D01*
X4012381Y-3543095D02*
X4020000Y-3543095D01*
X4023810Y-3541190D01*
X4025714Y-3539286D01*
X4029524Y-3533571D01*
X4031429Y-3525952D01*
X4031429Y-3510714D01*
X4029524Y-3506905D01*
X4027619Y-3505000D01*
X4023810Y-3503095D01*
X4016191Y-3503095D01*
X4012381Y-3505000D01*
X4010476Y-3506905D01*
X4008571Y-3510714D01*
X4008571Y-3520238D01*
X4010476Y-3524048D01*
X4012381Y-3525952D01*
X4016191Y-3527857D01*
X4023810Y-3527857D01*
X4027619Y-3525952D01*
X4029524Y-3524048D01*
X4031429Y-3520238D01*
X3724286Y-4139286D02*
X3722381Y-4141190D01*
X3716667Y-4143095D01*
X3712857Y-4143095D01*
X3707143Y-4141190D01*
X3703333Y-4137381D01*
X3701429Y-4133571D01*
X3699524Y-4125952D01*
X3699524Y-4120238D01*
X3701429Y-4112619D01*
X3703333Y-4108810D01*
X3707143Y-4105000D01*
X3712857Y-4103095D01*
X3716667Y-4103095D01*
X3722381Y-4105000D01*
X3724286Y-4106905D01*
X3762381Y-4143095D02*
X3739524Y-4143095D01*
X3750952Y-4143095D02*
X3750952Y-4103095D01*
X3747143Y-4108810D01*
X3743333Y-4112619D01*
X3739524Y-4114524D01*
X3787143Y-4103095D02*
X3790952Y-4103095D01*
X3794762Y-4105000D01*
X3796667Y-4106905D01*
X3798571Y-4110714D01*
X3800476Y-4118333D01*
X3800476Y-4127857D01*
X3798571Y-4135476D01*
X3796667Y-4139286D01*
X3794762Y-4141190D01*
X3790952Y-4143095D01*
X3787143Y-4143095D01*
X3783333Y-4141190D01*
X3781429Y-4139286D01*
X3779524Y-4135476D01*
X3777619Y-4127857D01*
X3777619Y-4118333D01*
X3779524Y-4110714D01*
X3781429Y-4106905D01*
X3783333Y-4105000D01*
X3787143Y-4103095D01*
X5634286Y-4269286D02*
X5632381Y-4271190D01*
X5626667Y-4273095D01*
X5622857Y-4273095D01*
X5617143Y-4271190D01*
X5613333Y-4267381D01*
X5611429Y-4263571D01*
X5609524Y-4255952D01*
X5609524Y-4250238D01*
X5611429Y-4242619D01*
X5613333Y-4238810D01*
X5617143Y-4235000D01*
X5622857Y-4233095D01*
X5626667Y-4233095D01*
X5632381Y-4235000D01*
X5634286Y-4236905D01*
X5672381Y-4273095D02*
X5649524Y-4273095D01*
X5660952Y-4273095D02*
X5660952Y-4233095D01*
X5657143Y-4238810D01*
X5653333Y-4242619D01*
X5649524Y-4244524D01*
X5710476Y-4273095D02*
X5687619Y-4273095D01*
X5699048Y-4273095D02*
X5699048Y-4233095D01*
X5695238Y-4238810D01*
X5691429Y-4242619D01*
X5687619Y-4244524D01*
X5749286Y-3639286D02*
X5747381Y-3641190D01*
X5741667Y-3643095D01*
X5737857Y-3643095D01*
X5732143Y-3641190D01*
X5728333Y-3637381D01*
X5726429Y-3633571D01*
X5724524Y-3625952D01*
X5724524Y-3620238D01*
X5726429Y-3612619D01*
X5728333Y-3608810D01*
X5732143Y-3605000D01*
X5737857Y-3603095D01*
X5741667Y-3603095D01*
X5747381Y-3605000D01*
X5749286Y-3606905D01*
X5787381Y-3643095D02*
X5764524Y-3643095D01*
X5775952Y-3643095D02*
X5775952Y-3603095D01*
X5772143Y-3608810D01*
X5768333Y-3612619D01*
X5764524Y-3614524D01*
X5802619Y-3606905D02*
X5804524Y-3605000D01*
X5808333Y-3603095D01*
X5817857Y-3603095D01*
X5821667Y-3605000D01*
X5823571Y-3606905D01*
X5825476Y-3610714D01*
X5825476Y-3614524D01*
X5823571Y-3620238D01*
X5800714Y-3643095D01*
X5825476Y-3643095D01*
X5760476Y-4443095D02*
X5760476Y-4403095D01*
X5770000Y-4403095D01*
X5775714Y-4405000D01*
X5779524Y-4408810D01*
X5781429Y-4412619D01*
X5783333Y-4420238D01*
X5783333Y-4425952D01*
X5781429Y-4433571D01*
X5779524Y-4437381D01*
X5775714Y-4441190D01*
X5770000Y-4443095D01*
X5760476Y-4443095D01*
X5821429Y-4443095D02*
X5798571Y-4443095D01*
X5810000Y-4443095D02*
X5810000Y-4403095D01*
X5806191Y-4408810D01*
X5802381Y-4412619D01*
X5798571Y-4414524D01*
X5608384Y-4495180D02*
X5638860Y-4495180D01*
X5350116Y-4489274D02*
X5380592Y-4489274D01*
X5365354Y-4504513D02*
X5365354Y-4474036D01*
X2134878Y-2183450D02*
X2134878Y-2143450D01*
X2134878Y-2162497D02*
X2157735Y-2162497D01*
X2157735Y-2183450D02*
X2157735Y-2143450D01*
X2197735Y-2183450D02*
X2174878Y-2183450D01*
X2186307Y-2183450D02*
X2186307Y-2143450D01*
X2182497Y-2149164D01*
X2178688Y-2152973D01*
X2174878Y-2154878D01*
X5678185Y-2183450D02*
X5678185Y-2143450D01*
X5678185Y-2162497D02*
X5701042Y-2162497D01*
X5701042Y-2183450D02*
X5701042Y-2143450D01*
X5718185Y-2147259D02*
X5720090Y-2145354D01*
X5723900Y-2143450D01*
X5733423Y-2143450D01*
X5737233Y-2145354D01*
X5739138Y-2147259D01*
X5741042Y-2151069D01*
X5741042Y-2154878D01*
X5739138Y-2160592D01*
X5716280Y-2183450D01*
X5741042Y-2183450D01*
X2134878Y-5726757D02*
X2134878Y-5686757D01*
X2134878Y-5705804D02*
X2157735Y-5705804D01*
X2157735Y-5726757D02*
X2157735Y-5686757D01*
X2172973Y-5686757D02*
X2197735Y-5686757D01*
X2184402Y-5701995D01*
X2190116Y-5701995D01*
X2193926Y-5703900D01*
X2195831Y-5705804D01*
X2197735Y-5709614D01*
X2197735Y-5719138D01*
X2195831Y-5722947D01*
X2193926Y-5724852D01*
X2190116Y-5726757D01*
X2178688Y-5726757D01*
X2174878Y-5724852D01*
X2172973Y-5722947D01*
X5678185Y-5726757D02*
X5678185Y-5686757D01*
X5678185Y-5705804D02*
X5701042Y-5705804D01*
X5701042Y-5726757D02*
X5701042Y-5686757D01*
X5737233Y-5700090D02*
X5737233Y-5726757D01*
X5727709Y-5684852D02*
X5718185Y-5713423D01*
X5742947Y-5713423D01*
X2331667Y-4358095D02*
X2331667Y-4386667D01*
X2329762Y-4392381D01*
X2325952Y-4396190D01*
X2320238Y-4398095D01*
X2316429Y-4398095D01*
X2371667Y-4398095D02*
X2348810Y-4398095D01*
X2360238Y-4398095D02*
X2360238Y-4358095D01*
X2356429Y-4363810D01*
X2352619Y-4367619D01*
X2348810Y-4369524D01*
X2294524Y-3518095D02*
X2294524Y-3478095D01*
X2317381Y-3518095D01*
X2317381Y-3478095D01*
X2357381Y-3518095D02*
X2334524Y-3518095D01*
X2345952Y-3518095D02*
X2345952Y-3478095D01*
X2342143Y-3483810D01*
X2338333Y-3487619D01*
X2334524Y-3489524D01*
X2794524Y-4418095D02*
X2794524Y-4378095D01*
X2817381Y-4418095D01*
X2817381Y-4378095D01*
X2834524Y-4381905D02*
X2836429Y-4380000D01*
X2840238Y-4378095D01*
X2849762Y-4378095D01*
X2853571Y-4380000D01*
X2855476Y-4381905D01*
X2857381Y-4385714D01*
X2857381Y-4389524D01*
X2855476Y-4395238D01*
X2832619Y-4418095D01*
X2857381Y-4418095D01*
X2990476Y-3363095D02*
X2990476Y-3323095D01*
X3013333Y-3363095D01*
X3013333Y-3323095D01*
X3053333Y-3363095D02*
X3030476Y-3363095D01*
X3041905Y-3363095D02*
X3041905Y-3323095D01*
X3038095Y-3328810D01*
X3034286Y-3332619D01*
X3030476Y-3334524D01*
X3089524Y-3323095D02*
X3070476Y-3323095D01*
X3068571Y-3342143D01*
X3070476Y-3340238D01*
X3074286Y-3338333D01*
X3083810Y-3338333D01*
X3087619Y-3340238D01*
X3089524Y-3342143D01*
X3091429Y-3345952D01*
X3091429Y-3355476D01*
X3089524Y-3359286D01*
X3087619Y-3361190D01*
X3083810Y-3363095D01*
X3074286Y-3363095D01*
X3070476Y-3361190D01*
X3068571Y-3359286D01*
X3043333Y-3593095D02*
X3030000Y-3574048D01*
X3020476Y-3593095D02*
X3020476Y-3553095D01*
X3035714Y-3553095D01*
X3039524Y-3555000D01*
X3041429Y-3556905D01*
X3043333Y-3560714D01*
X3043333Y-3566429D01*
X3041429Y-3570238D01*
X3039524Y-3572143D01*
X3035714Y-3574048D01*
X3020476Y-3574048D01*
X3058571Y-3556905D02*
X3060476Y-3555000D01*
X3064286Y-3553095D01*
X3073810Y-3553095D01*
X3077619Y-3555000D01*
X3079524Y-3556905D01*
X3081429Y-3560714D01*
X3081429Y-3564524D01*
X3079524Y-3570238D01*
X3056667Y-3593095D01*
X3081429Y-3593095D01*
X2918333Y-3593095D02*
X2905000Y-3574048D01*
X2895476Y-3593095D02*
X2895476Y-3553095D01*
X2910714Y-3553095D01*
X2914524Y-3555000D01*
X2916429Y-3556905D01*
X2918333Y-3560714D01*
X2918333Y-3566429D01*
X2916429Y-3570238D01*
X2914524Y-3572143D01*
X2910714Y-3574048D01*
X2895476Y-3574048D01*
X2931667Y-3553095D02*
X2956429Y-3553095D01*
X2943095Y-3568333D01*
X2948810Y-3568333D01*
X2952619Y-3570238D01*
X2954524Y-3572143D01*
X2956429Y-3575952D01*
X2956429Y-3585476D01*
X2954524Y-3589286D01*
X2952619Y-3591190D01*
X2948810Y-3593095D01*
X2937381Y-3593095D01*
X2933571Y-3591190D01*
X2931667Y-3589286D01*
X3043333Y-4568095D02*
X3030000Y-4549048D01*
X3020476Y-4568095D02*
X3020476Y-4528095D01*
X3035714Y-4528095D01*
X3039524Y-4530000D01*
X3041429Y-4531905D01*
X3043333Y-4535714D01*
X3043333Y-4541429D01*
X3041429Y-4545238D01*
X3039524Y-4547143D01*
X3035714Y-4549048D01*
X3020476Y-4549048D01*
X3077619Y-4541429D02*
X3077619Y-4568095D01*
X3068095Y-4526190D02*
X3058571Y-4554762D01*
X3083333Y-4554762D01*
X3518333Y-4418095D02*
X3505000Y-4399048D01*
X3495476Y-4418095D02*
X3495476Y-4378095D01*
X3510714Y-4378095D01*
X3514524Y-4380000D01*
X3516429Y-4381905D01*
X3518333Y-4385714D01*
X3518333Y-4391429D01*
X3516429Y-4395238D01*
X3514524Y-4397143D01*
X3510714Y-4399048D01*
X3495476Y-4399048D01*
X3552619Y-4378095D02*
X3545000Y-4378095D01*
X3541191Y-4380000D01*
X3539286Y-4381905D01*
X3535476Y-4387619D01*
X3533571Y-4395238D01*
X3533571Y-4410476D01*
X3535476Y-4414286D01*
X3537381Y-4416190D01*
X3541191Y-4418095D01*
X3548810Y-4418095D01*
X3552619Y-4416190D01*
X3554524Y-4414286D01*
X3556429Y-4410476D01*
X3556429Y-4400952D01*
X3554524Y-4397143D01*
X3552619Y-4395238D01*
X3548810Y-4393333D01*
X3541191Y-4393333D01*
X3537381Y-4395238D01*
X3535476Y-4397143D01*
X3533571Y-4400952D01*
X4793333Y-4518095D02*
X4780000Y-4499048D01*
X4770476Y-4518095D02*
X4770476Y-4478095D01*
X4785714Y-4478095D01*
X4789524Y-4480000D01*
X4791429Y-4481905D01*
X4793333Y-4485714D01*
X4793333Y-4491429D01*
X4791429Y-4495238D01*
X4789524Y-4497143D01*
X4785714Y-4499048D01*
X4770476Y-4499048D01*
X4806667Y-4478095D02*
X4833333Y-4478095D01*
X4816191Y-4518095D01*
X4463333Y-4408095D02*
X4450000Y-4389048D01*
X4440476Y-4408095D02*
X4440476Y-4368095D01*
X4455714Y-4368095D01*
X4459524Y-4370000D01*
X4461429Y-4371905D01*
X4463333Y-4375714D01*
X4463333Y-4381429D01*
X4461429Y-4385238D01*
X4459524Y-4387143D01*
X4455714Y-4389048D01*
X4440476Y-4389048D01*
X4486191Y-4385238D02*
X4482381Y-4383333D01*
X4480476Y-4381429D01*
X4478571Y-4377619D01*
X4478571Y-4375714D01*
X4480476Y-4371905D01*
X4482381Y-4370000D01*
X4486191Y-4368095D01*
X4493810Y-4368095D01*
X4497619Y-4370000D01*
X4499524Y-4371905D01*
X4501429Y-4375714D01*
X4501429Y-4377619D01*
X4499524Y-4381429D01*
X4497619Y-4383333D01*
X4493810Y-4385238D01*
X4486191Y-4385238D01*
X4482381Y-4387143D01*
X4480476Y-4389048D01*
X4478571Y-4392857D01*
X4478571Y-4400476D01*
X4480476Y-4404286D01*
X4482381Y-4406190D01*
X4486191Y-4408095D01*
X4493810Y-4408095D01*
X4497619Y-4406190D01*
X4499524Y-4404286D01*
X4501429Y-4400476D01*
X4501429Y-4392857D01*
X4499524Y-4389048D01*
X4497619Y-4387143D01*
X4493810Y-4385238D01*
X5143333Y-3893095D02*
X5130000Y-3874048D01*
X5120476Y-3893095D02*
X5120476Y-3853095D01*
X5135714Y-3853095D01*
X5139524Y-3855000D01*
X5141429Y-3856905D01*
X5143333Y-3860714D01*
X5143333Y-3866429D01*
X5141429Y-3870238D01*
X5139524Y-3872143D01*
X5135714Y-3874048D01*
X5120476Y-3874048D01*
X5162381Y-3893095D02*
X5170000Y-3893095D01*
X5173810Y-3891190D01*
X5175714Y-3889286D01*
X5179524Y-3883571D01*
X5181429Y-3875952D01*
X5181429Y-3860714D01*
X5179524Y-3856905D01*
X5177619Y-3855000D01*
X5173810Y-3853095D01*
X5166191Y-3853095D01*
X5162381Y-3855000D01*
X5160476Y-3856905D01*
X5158571Y-3860714D01*
X5158571Y-3870238D01*
X5160476Y-3874048D01*
X5162381Y-3875952D01*
X5166191Y-3877857D01*
X5173810Y-3877857D01*
X5177619Y-3875952D01*
X5179524Y-3874048D01*
X5181429Y-3870238D01*
X4498105Y-3526363D02*
X4484771Y-3507315D01*
X4475247Y-3526363D02*
X4475247Y-3486363D01*
X4490486Y-3486363D01*
X4494295Y-3488268D01*
X4496200Y-3490172D01*
X4498105Y-3493982D01*
X4498105Y-3499696D01*
X4496200Y-3503506D01*
X4494295Y-3505411D01*
X4490486Y-3507315D01*
X4475247Y-3507315D01*
X4536200Y-3526363D02*
X4513343Y-3526363D01*
X4524771Y-3526363D02*
X4524771Y-3486363D01*
X4520962Y-3492077D01*
X4517152Y-3495887D01*
X4513343Y-3497792D01*
X4560962Y-3486363D02*
X4564771Y-3486363D01*
X4568581Y-3488268D01*
X4570486Y-3490172D01*
X4572390Y-3493982D01*
X4574295Y-3501601D01*
X4574295Y-3511125D01*
X4572390Y-3518744D01*
X4570486Y-3522553D01*
X4568581Y-3524458D01*
X4564771Y-3526363D01*
X4560962Y-3526363D01*
X4557152Y-3524458D01*
X4555247Y-3522553D01*
X4553343Y-3518744D01*
X4551438Y-3511125D01*
X4551438Y-3501601D01*
X4553343Y-3493982D01*
X4555247Y-3490172D01*
X4557152Y-3488268D01*
X4560962Y-3486363D01*
X5596667Y-3791190D02*
X5602381Y-3793095D01*
X5611905Y-3793095D01*
X5615714Y-3791190D01*
X5617619Y-3789286D01*
X5619524Y-3785476D01*
X5619524Y-3781667D01*
X5617619Y-3777857D01*
X5615714Y-3775952D01*
X5611905Y-3774048D01*
X5604286Y-3772143D01*
X5600476Y-3770238D01*
X5598571Y-3768333D01*
X5596667Y-3764524D01*
X5596667Y-3760714D01*
X5598571Y-3756905D01*
X5600476Y-3755000D01*
X5604286Y-3753095D01*
X5613810Y-3753095D01*
X5619524Y-3755000D01*
X5632857Y-3753095D02*
X5642381Y-3793095D01*
X5650000Y-3764524D01*
X5657619Y-3793095D01*
X5667143Y-3753095D01*
X5703333Y-3793095D02*
X5680476Y-3793095D01*
X5691905Y-3793095D02*
X5691905Y-3753095D01*
X5688095Y-3758810D01*
X5684286Y-3762619D01*
X5680476Y-3764524D01*
X2594524Y-3478095D02*
X2594524Y-3510476D01*
X2596429Y-3514286D01*
X2598333Y-3516190D01*
X2602143Y-3518095D01*
X2609762Y-3518095D01*
X2613571Y-3516190D01*
X2615476Y-3514286D01*
X2617381Y-3510476D01*
X2617381Y-3478095D01*
X2657381Y-3518095D02*
X2634524Y-3518095D01*
X2645952Y-3518095D02*
X2645952Y-3478095D01*
X2642143Y-3483810D01*
X2638333Y-3487619D01*
X2634524Y-3489524D01*
X4719524Y-4103095D02*
X4719524Y-4135476D01*
X4721429Y-4139286D01*
X4723333Y-4141190D01*
X4727143Y-4143095D01*
X4734762Y-4143095D01*
X4738571Y-4141190D01*
X4740476Y-4139286D01*
X4742381Y-4135476D01*
X4742381Y-4103095D01*
X4759524Y-4106905D02*
X4761429Y-4105000D01*
X4765238Y-4103095D01*
X4774762Y-4103095D01*
X4778571Y-4105000D01*
X4780476Y-4106905D01*
X4782381Y-4110714D01*
X4782381Y-4114524D01*
X4780476Y-4120238D01*
X4757619Y-4143095D01*
X4782381Y-4143095D01*
X2569524Y-3178095D02*
X2569524Y-3210476D01*
X2571429Y-3214286D01*
X2573333Y-3216190D01*
X2577143Y-3218095D01*
X2584762Y-3218095D01*
X2588571Y-3216190D01*
X2590476Y-3214286D01*
X2592381Y-3210476D01*
X2592381Y-3178095D01*
X2607619Y-3178095D02*
X2632381Y-3178095D01*
X2619048Y-3193333D01*
X2624762Y-3193333D01*
X2628571Y-3195238D01*
X2630476Y-3197143D01*
X2632381Y-3200952D01*
X2632381Y-3210476D01*
X2630476Y-3214286D01*
X2628571Y-3216190D01*
X2624762Y-3218095D01*
X2613333Y-3218095D01*
X2609524Y-3216190D01*
X2607619Y-3214286D01*
X5594524Y-3453095D02*
X5594524Y-3485476D01*
X5596429Y-3489286D01*
X5598333Y-3491190D01*
X5602143Y-3493095D01*
X5609762Y-3493095D01*
X5613571Y-3491190D01*
X5615476Y-3489286D01*
X5617381Y-3485476D01*
X5617381Y-3453095D01*
X5653571Y-3466429D02*
X5653571Y-3493095D01*
X5644048Y-3451190D02*
X5634524Y-3479762D01*
X5659286Y-3479762D01*
X3169524Y-3853095D02*
X3169524Y-3885476D01*
X3171429Y-3889286D01*
X3173333Y-3891190D01*
X3177143Y-3893095D01*
X3184762Y-3893095D01*
X3188571Y-3891190D01*
X3190476Y-3889286D01*
X3192381Y-3885476D01*
X3192381Y-3853095D01*
X3230476Y-3853095D02*
X3211429Y-3853095D01*
X3209524Y-3872143D01*
X3211429Y-3870238D01*
X3215238Y-3868333D01*
X3224762Y-3868333D01*
X3228571Y-3870238D01*
X3230476Y-3872143D01*
X3232381Y-3875952D01*
X3232381Y-3885476D01*
X3230476Y-3889286D01*
X3228571Y-3891190D01*
X3224762Y-3893095D01*
X3215238Y-3893095D01*
X3211429Y-3891190D01*
X3209524Y-3889286D01*
X4117619Y-4428095D02*
X4144286Y-4468095D01*
X4144286Y-4428095D02*
X4117619Y-4468095D01*
X4180476Y-4468095D02*
X4157619Y-4468095D01*
X4169048Y-4468095D02*
X4169048Y-4428095D01*
X4165238Y-4433810D01*
X4161429Y-4437619D01*
X4157619Y-4439524D01*
X3269524Y-4793095D02*
X3269524Y-4753095D01*
X3292381Y-4793095D01*
X3292381Y-4753095D01*
X3307619Y-4753095D02*
X3332381Y-4753095D01*
X3319048Y-4768333D01*
X3324762Y-4768333D01*
X3328571Y-4770238D01*
X3330476Y-4772143D01*
X3332381Y-4775952D01*
X3332381Y-4785476D01*
X3330476Y-4789286D01*
X3328571Y-4791190D01*
X3324762Y-4793095D01*
X3313333Y-4793095D01*
X3309524Y-4791190D01*
X3307619Y-4789286D01*
X3744524Y-4793095D02*
X3744524Y-4753095D01*
X3767381Y-4793095D01*
X3767381Y-4753095D01*
X3803571Y-4766429D02*
X3803571Y-4793095D01*
X3794048Y-4751190D02*
X3784524Y-4779762D01*
X3809286Y-4779762D01*
X4219524Y-4793095D02*
X4219524Y-4753095D01*
X4242381Y-4793095D01*
X4242381Y-4753095D01*
X4280476Y-4753095D02*
X4261429Y-4753095D01*
X4259524Y-4772143D01*
X4261429Y-4770238D01*
X4265238Y-4768333D01*
X4274762Y-4768333D01*
X4278571Y-4770238D01*
X4280476Y-4772143D01*
X4282381Y-4775952D01*
X4282381Y-4785476D01*
X4280476Y-4789286D01*
X4278571Y-4791190D01*
X4274762Y-4793095D01*
X4265238Y-4793095D01*
X4261429Y-4791190D01*
X4259524Y-4789286D01*
X4694524Y-4793095D02*
X4694524Y-4753095D01*
X4717381Y-4793095D01*
X4717381Y-4753095D01*
X4753571Y-4753095D02*
X4745952Y-4753095D01*
X4742143Y-4755000D01*
X4740238Y-4756905D01*
X4736429Y-4762619D01*
X4734524Y-4770238D01*
X4734524Y-4785476D01*
X4736429Y-4789286D01*
X4738333Y-4791190D01*
X4742143Y-4793095D01*
X4749762Y-4793095D01*
X4753571Y-4791190D01*
X4755476Y-4789286D01*
X4757381Y-4785476D01*
X4757381Y-4775952D01*
X4755476Y-4772143D01*
X4753571Y-4770238D01*
X4749762Y-4768333D01*
X4742143Y-4768333D01*
X4738333Y-4770238D01*
X4736429Y-4772143D01*
X4734524Y-4775952D01*
X5169524Y-4793095D02*
X5169524Y-4753095D01*
X5192381Y-4793095D01*
X5192381Y-4753095D01*
X5207619Y-4753095D02*
X5234286Y-4753095D01*
X5217143Y-4793095D01*
X5644524Y-4793095D02*
X5644524Y-4753095D01*
X5667381Y-4793095D01*
X5667381Y-4753095D01*
X5692143Y-4770238D02*
X5688333Y-4768333D01*
X5686429Y-4766429D01*
X5684524Y-4762619D01*
X5684524Y-4760714D01*
X5686429Y-4756905D01*
X5688333Y-4755000D01*
X5692143Y-4753095D01*
X5699762Y-4753095D01*
X5703571Y-4755000D01*
X5705476Y-4756905D01*
X5707381Y-4760714D01*
X5707381Y-4762619D01*
X5705476Y-4766429D01*
X5703571Y-4768333D01*
X5699762Y-4770238D01*
X5692143Y-4770238D01*
X5688333Y-4772143D01*
X5686429Y-4774048D01*
X5684524Y-4777857D01*
X5684524Y-4785476D01*
X5686429Y-4789286D01*
X5688333Y-4791190D01*
X5692143Y-4793095D01*
X5699762Y-4793095D01*
X5703571Y-4791190D01*
X5705476Y-4789286D01*
X5707381Y-4785476D01*
X5707381Y-4777857D01*
X5705476Y-4774048D01*
X5703571Y-4772143D01*
X5699762Y-4770238D01*
X3744524Y-3118095D02*
X3744524Y-3078095D01*
X3767381Y-3118095D01*
X3767381Y-3078095D01*
X3788333Y-3118095D02*
X3795952Y-3118095D01*
X3799762Y-3116190D01*
X3801667Y-3114286D01*
X3805476Y-3108571D01*
X3807381Y-3100952D01*
X3807381Y-3085714D01*
X3805476Y-3081905D01*
X3803571Y-3080000D01*
X3799762Y-3078095D01*
X3792143Y-3078095D01*
X3788333Y-3080000D01*
X3786429Y-3081905D01*
X3784524Y-3085714D01*
X3784524Y-3095238D01*
X3786429Y-3099048D01*
X3788333Y-3100952D01*
X3792143Y-3102857D01*
X3799762Y-3102857D01*
X3803571Y-3100952D01*
X3805476Y-3099048D01*
X3807381Y-3095238D01*
X3250476Y-3118095D02*
X3250476Y-3078095D01*
X3273333Y-3118095D01*
X3273333Y-3078095D01*
X3313333Y-3118095D02*
X3290476Y-3118095D01*
X3301905Y-3118095D02*
X3301905Y-3078095D01*
X3298095Y-3083810D01*
X3294286Y-3087619D01*
X3290476Y-3089524D01*
X3338095Y-3078095D02*
X3341905Y-3078095D01*
X3345714Y-3080000D01*
X3347619Y-3081905D01*
X3349524Y-3085714D01*
X3351429Y-3093333D01*
X3351429Y-3102857D01*
X3349524Y-3110476D01*
X3347619Y-3114286D01*
X3345714Y-3116190D01*
X3341905Y-3118095D01*
X3338095Y-3118095D01*
X3334286Y-3116190D01*
X3332381Y-3114286D01*
X3330476Y-3110476D01*
X3328571Y-3102857D01*
X3328571Y-3093333D01*
X3330476Y-3085714D01*
X3332381Y-3081905D01*
X3334286Y-3080000D01*
X3338095Y-3078095D01*
X4200476Y-3118095D02*
X4200476Y-3078095D01*
X4223333Y-3118095D01*
X4223333Y-3078095D01*
X4263333Y-3118095D02*
X4240476Y-3118095D01*
X4251905Y-3118095D02*
X4251905Y-3078095D01*
X4248095Y-3083810D01*
X4244286Y-3087619D01*
X4240476Y-3089524D01*
X4301429Y-3118095D02*
X4278571Y-3118095D01*
X4290000Y-3118095D02*
X4290000Y-3078095D01*
X4286191Y-3083810D01*
X4282381Y-3087619D01*
X4278571Y-3089524D01*
X4700476Y-3118095D02*
X4700476Y-3078095D01*
X4723333Y-3118095D01*
X4723333Y-3078095D01*
X4763333Y-3118095D02*
X4740476Y-3118095D01*
X4751905Y-3118095D02*
X4751905Y-3078095D01*
X4748095Y-3083810D01*
X4744286Y-3087619D01*
X4740476Y-3089524D01*
X4778571Y-3081905D02*
X4780476Y-3080000D01*
X4784286Y-3078095D01*
X4793810Y-3078095D01*
X4797619Y-3080000D01*
X4799524Y-3081905D01*
X4801429Y-3085714D01*
X4801429Y-3089524D01*
X4799524Y-3095238D01*
X4776667Y-3118095D01*
X4801429Y-3118095D01*
X5150476Y-3118095D02*
X5150476Y-3078095D01*
X5173333Y-3118095D01*
X5173333Y-3078095D01*
X5213333Y-3118095D02*
X5190476Y-3118095D01*
X5201905Y-3118095D02*
X5201905Y-3078095D01*
X5198095Y-3083810D01*
X5194286Y-3087619D01*
X5190476Y-3089524D01*
X5226667Y-3078095D02*
X5251429Y-3078095D01*
X5238095Y-3093333D01*
X5243810Y-3093333D01*
X5247619Y-3095238D01*
X5249524Y-3097143D01*
X5251429Y-3100952D01*
X5251429Y-3110476D01*
X5249524Y-3114286D01*
X5247619Y-3116190D01*
X5243810Y-3118095D01*
X5232381Y-3118095D01*
X5228571Y-3116190D01*
X5226667Y-3114286D01*
X5550476Y-3118095D02*
X5550476Y-3078095D01*
X5573333Y-3118095D01*
X5573333Y-3078095D01*
X5613333Y-3118095D02*
X5590476Y-3118095D01*
X5601905Y-3118095D02*
X5601905Y-3078095D01*
X5598095Y-3083810D01*
X5594286Y-3087619D01*
X5590476Y-3089524D01*
X5647619Y-3091429D02*
X5647619Y-3118095D01*
X5638095Y-3076190D02*
X5628571Y-3104762D01*
X5653333Y-3104762D01*
X3424286Y-3393095D02*
X3410952Y-3374048D01*
X3401429Y-3393095D02*
X3401429Y-3353095D01*
X3416667Y-3353095D01*
X3420476Y-3355000D01*
X3422381Y-3356905D01*
X3424286Y-3360714D01*
X3424286Y-3366429D01*
X3422381Y-3370238D01*
X3420476Y-3372143D01*
X3416667Y-3374048D01*
X3401429Y-3374048D01*
X3462381Y-3393095D02*
X3439524Y-3393095D01*
X3450952Y-3393095D02*
X3450952Y-3353095D01*
X3447143Y-3358810D01*
X3443333Y-3362619D01*
X3439524Y-3364524D01*
X3500476Y-3393095D02*
X3477619Y-3393095D01*
X3489048Y-3393095D02*
X3489048Y-3353095D01*
X3485238Y-3358810D01*
X3481429Y-3362619D01*
X3477619Y-3364524D01*
X3314286Y-3623095D02*
X3300952Y-3604048D01*
X3291429Y-3623095D02*
X3291429Y-3583095D01*
X3306667Y-3583095D01*
X3310476Y-3585000D01*
X3312381Y-3586905D01*
X3314286Y-3590714D01*
X3314286Y-3596429D01*
X3312381Y-3600238D01*
X3310476Y-3602143D01*
X3306667Y-3604048D01*
X3291429Y-3604048D01*
X3352381Y-3623095D02*
X3329524Y-3623095D01*
X3340952Y-3623095D02*
X3340952Y-3583095D01*
X3337143Y-3588810D01*
X3333333Y-3592619D01*
X3329524Y-3594524D01*
X3367619Y-3586905D02*
X3369524Y-3585000D01*
X3373333Y-3583095D01*
X3382857Y-3583095D01*
X3386667Y-3585000D01*
X3388571Y-3586905D01*
X3390476Y-3590714D01*
X3390476Y-3594524D01*
X3388571Y-3600238D01*
X3365714Y-3623095D01*
X3390476Y-3623095D01*
D15*
X2529059Y-2183165D02*
X2529059Y-2143795D01*
X2529059Y-2162542D02*
X2551556Y-2162542D01*
X2551556Y-2183165D02*
X2551556Y-2143795D01*
X2589051Y-2143795D02*
X2570304Y-2143795D01*
X2568429Y-2162542D01*
X2570304Y-2160667D01*
X2574053Y-2158793D01*
X2583427Y-2158793D01*
X2587177Y-2160667D01*
X2589051Y-2162542D01*
X2590926Y-2166292D01*
X2590926Y-2175666D01*
X2589051Y-2179415D01*
X2587177Y-2181290D01*
X2583427Y-2183165D01*
X2574053Y-2183165D01*
X2570304Y-2181290D01*
X2568429Y-2179415D01*
X2548744Y-2145669D02*
X2544994Y-2143795D01*
X2539370Y-2143795D01*
X2533746Y-2145669D01*
X2529996Y-2149419D01*
X2528121Y-2153168D01*
X2526247Y-2160667D01*
X2526247Y-2166292D01*
X2528121Y-2173791D01*
X2529996Y-2177540D01*
X2533746Y-2181290D01*
X2539370Y-2183165D01*
X2543120Y-2183165D01*
X2548744Y-2181290D01*
X2550619Y-2179415D01*
X2550619Y-2166292D01*
X2543120Y-2166292D01*
X2567492Y-2183165D02*
X2567492Y-2143795D01*
X2567492Y-2162542D02*
X2589989Y-2162542D01*
X2589989Y-2183165D02*
X2589989Y-2143795D01*
X2922760Y-2183165D02*
X2922760Y-2143795D01*
X2922760Y-2162542D02*
X2945257Y-2162542D01*
X2945257Y-2183165D02*
X2945257Y-2143795D01*
X2980877Y-2143795D02*
X2973378Y-2143795D01*
X2969629Y-2145669D01*
X2967754Y-2147544D01*
X2964004Y-2153168D01*
X2962130Y-2160667D01*
X2962130Y-2175666D01*
X2964004Y-2179415D01*
X2965879Y-2181290D01*
X2969629Y-2183165D01*
X2977128Y-2183165D01*
X2980877Y-2181290D01*
X2982752Y-2179415D01*
X2984627Y-2175666D01*
X2984627Y-2166292D01*
X2982752Y-2162542D01*
X2980877Y-2160667D01*
X2977128Y-2158793D01*
X2969629Y-2158793D01*
X2965879Y-2160667D01*
X2964004Y-2162542D01*
X2962130Y-2166292D01*
X2942445Y-2145669D02*
X2938695Y-2143795D01*
X2933071Y-2143795D01*
X2927447Y-2145669D01*
X2923697Y-2149419D01*
X2921822Y-2153168D01*
X2919948Y-2160667D01*
X2919948Y-2166292D01*
X2921822Y-2173791D01*
X2923697Y-2177540D01*
X2927447Y-2181290D01*
X2933071Y-2183165D01*
X2936820Y-2183165D01*
X2942445Y-2181290D01*
X2944319Y-2179415D01*
X2944319Y-2166292D01*
X2936820Y-2166292D01*
X2961192Y-2183165D02*
X2961192Y-2143795D01*
X2961192Y-2162542D02*
X2983690Y-2162542D01*
X2983690Y-2183165D02*
X2983690Y-2143795D01*
X3316460Y-2183165D02*
X3316460Y-2143795D01*
X3316460Y-2162542D02*
X3338958Y-2162542D01*
X3338958Y-2183165D02*
X3338958Y-2143795D01*
X3353956Y-2143795D02*
X3380202Y-2143795D01*
X3363330Y-2183165D01*
X3336146Y-2145669D02*
X3332396Y-2143795D01*
X3326772Y-2143795D01*
X3321147Y-2145669D01*
X3317398Y-2149419D01*
X3315523Y-2153168D01*
X3313648Y-2160667D01*
X3313648Y-2166292D01*
X3315523Y-2173791D01*
X3317398Y-2177540D01*
X3321147Y-2181290D01*
X3326772Y-2183165D01*
X3330521Y-2183165D01*
X3336146Y-2181290D01*
X3338020Y-2179415D01*
X3338020Y-2166292D01*
X3330521Y-2166292D01*
X3354893Y-2183165D02*
X3354893Y-2143795D01*
X3354893Y-2162542D02*
X3377390Y-2162542D01*
X3377390Y-2183165D02*
X3377390Y-2143795D01*
X3710161Y-2183165D02*
X3710161Y-2143795D01*
X3710161Y-2162542D02*
X3732658Y-2162542D01*
X3732658Y-2183165D02*
X3732658Y-2143795D01*
X3757030Y-2160667D02*
X3753281Y-2158793D01*
X3751406Y-2156918D01*
X3749531Y-2153168D01*
X3749531Y-2151294D01*
X3751406Y-2147544D01*
X3753281Y-2145669D01*
X3757030Y-2143795D01*
X3764529Y-2143795D01*
X3768279Y-2145669D01*
X3770154Y-2147544D01*
X3772029Y-2151294D01*
X3772029Y-2153168D01*
X3770154Y-2156918D01*
X3768279Y-2158793D01*
X3764529Y-2160667D01*
X3757030Y-2160667D01*
X3753281Y-2162542D01*
X3751406Y-2164417D01*
X3749531Y-2168166D01*
X3749531Y-2175666D01*
X3751406Y-2179415D01*
X3753281Y-2181290D01*
X3757030Y-2183165D01*
X3764529Y-2183165D01*
X3768279Y-2181290D01*
X3770154Y-2179415D01*
X3772029Y-2175666D01*
X3772029Y-2168166D01*
X3770154Y-2164417D01*
X3768279Y-2162542D01*
X3764529Y-2160667D01*
X3729846Y-2145669D02*
X3726097Y-2143795D01*
X3720472Y-2143795D01*
X3714848Y-2145669D01*
X3711099Y-2149419D01*
X3709224Y-2153168D01*
X3707349Y-2160667D01*
X3707349Y-2166292D01*
X3709224Y-2173791D01*
X3711099Y-2177540D01*
X3714848Y-2181290D01*
X3720472Y-2183165D01*
X3724222Y-2183165D01*
X3729846Y-2181290D01*
X3731721Y-2179415D01*
X3731721Y-2166292D01*
X3724222Y-2166292D01*
X3748594Y-2183165D02*
X3748594Y-2143795D01*
X3748594Y-2162542D02*
X3771091Y-2162542D01*
X3771091Y-2183165D02*
X3771091Y-2143795D01*
X4103862Y-2183165D02*
X4103862Y-2143795D01*
X4103862Y-2162542D02*
X4126359Y-2162542D01*
X4126359Y-2183165D02*
X4126359Y-2143795D01*
X4146982Y-2183165D02*
X4154481Y-2183165D01*
X4158230Y-2181290D01*
X4160105Y-2179415D01*
X4163855Y-2173791D01*
X4165729Y-2166292D01*
X4165729Y-2151294D01*
X4163855Y-2147544D01*
X4161980Y-2145669D01*
X4158230Y-2143795D01*
X4150731Y-2143795D01*
X4146982Y-2145669D01*
X4145107Y-2147544D01*
X4143232Y-2151294D01*
X4143232Y-2160667D01*
X4145107Y-2164417D01*
X4146982Y-2166292D01*
X4150731Y-2168166D01*
X4158230Y-2168166D01*
X4161980Y-2166292D01*
X4163855Y-2164417D01*
X4165729Y-2160667D01*
X4123547Y-2145669D02*
X4119798Y-2143795D01*
X4114173Y-2143795D01*
X4108549Y-2145669D01*
X4104799Y-2149419D01*
X4102925Y-2153168D01*
X4101050Y-2160667D01*
X4101050Y-2166292D01*
X4102925Y-2173791D01*
X4104799Y-2177540D01*
X4108549Y-2181290D01*
X4114173Y-2183165D01*
X4117923Y-2183165D01*
X4123547Y-2181290D01*
X4125422Y-2179415D01*
X4125422Y-2166292D01*
X4117923Y-2166292D01*
X4142295Y-2183165D02*
X4142295Y-2143795D01*
X4142295Y-2162542D02*
X4164792Y-2162542D01*
X4164792Y-2183165D02*
X4164792Y-2143795D01*
X4478815Y-2183165D02*
X4478815Y-2143795D01*
X4478815Y-2162542D02*
X4501312Y-2162542D01*
X4501312Y-2183165D02*
X4501312Y-2143795D01*
X4540682Y-2183165D02*
X4518185Y-2183165D01*
X4529434Y-2183165D02*
X4529434Y-2143795D01*
X4525684Y-2149419D01*
X4521935Y-2153168D01*
X4518185Y-2155043D01*
X4565054Y-2143795D02*
X4568804Y-2143795D01*
X4572553Y-2145669D01*
X4574428Y-2147544D01*
X4576303Y-2151294D01*
X4578178Y-2158793D01*
X4578178Y-2168166D01*
X4576303Y-2175666D01*
X4574428Y-2179415D01*
X4572553Y-2181290D01*
X4568804Y-2183165D01*
X4565054Y-2183165D01*
X4561305Y-2181290D01*
X4559430Y-2179415D01*
X4557555Y-2175666D01*
X4555681Y-2168166D01*
X4555681Y-2158793D01*
X4557555Y-2151294D01*
X4559430Y-2147544D01*
X4561305Y-2145669D01*
X4565054Y-2143795D01*
X4517248Y-2145669D02*
X4513498Y-2143795D01*
X4507874Y-2143795D01*
X4502250Y-2145669D01*
X4498500Y-2149419D01*
X4496625Y-2153168D01*
X4494751Y-2160667D01*
X4494751Y-2166292D01*
X4496625Y-2173791D01*
X4498500Y-2177540D01*
X4502250Y-2181290D01*
X4507874Y-2183165D01*
X4511624Y-2183165D01*
X4517248Y-2181290D01*
X4519123Y-2179415D01*
X4519123Y-2166292D01*
X4511624Y-2166292D01*
X4535996Y-2183165D02*
X4535996Y-2143795D01*
X4535996Y-2162542D02*
X4558493Y-2162542D01*
X4558493Y-2183165D02*
X4558493Y-2143795D01*
X4872516Y-2183165D02*
X4872516Y-2143795D01*
X4872516Y-2162542D02*
X4895013Y-2162542D01*
X4895013Y-2183165D02*
X4895013Y-2143795D01*
X4934383Y-2183165D02*
X4911886Y-2183165D01*
X4923135Y-2183165D02*
X4923135Y-2143795D01*
X4919385Y-2149419D01*
X4915636Y-2153168D01*
X4911886Y-2155043D01*
X4971879Y-2183165D02*
X4949381Y-2183165D01*
X4960630Y-2183165D02*
X4960630Y-2143795D01*
X4956880Y-2149419D01*
X4953131Y-2153168D01*
X4949381Y-2155043D01*
X4910949Y-2145669D02*
X4907199Y-2143795D01*
X4901575Y-2143795D01*
X4895951Y-2145669D01*
X4892201Y-2149419D01*
X4890326Y-2153168D01*
X4888451Y-2160667D01*
X4888451Y-2166292D01*
X4890326Y-2173791D01*
X4892201Y-2177540D01*
X4895951Y-2181290D01*
X4901575Y-2183165D01*
X4905324Y-2183165D01*
X4910949Y-2181290D01*
X4912823Y-2179415D01*
X4912823Y-2166292D01*
X4905324Y-2166292D01*
X4929696Y-2183165D02*
X4929696Y-2143795D01*
X4929696Y-2162542D02*
X4952194Y-2162542D01*
X4952194Y-2183165D02*
X4952194Y-2143795D01*
X5266217Y-2183165D02*
X5266217Y-2143795D01*
X5266217Y-2162542D02*
X5288714Y-2162542D01*
X5288714Y-2183165D02*
X5288714Y-2143795D01*
X5328084Y-2183165D02*
X5305587Y-2183165D01*
X5316835Y-2183165D02*
X5316835Y-2143795D01*
X5313086Y-2149419D01*
X5309336Y-2153168D01*
X5305587Y-2155043D01*
X5343082Y-2147544D02*
X5344957Y-2145669D01*
X5348706Y-2143795D01*
X5358080Y-2143795D01*
X5361830Y-2145669D01*
X5363705Y-2147544D01*
X5365579Y-2151294D01*
X5365579Y-2155043D01*
X5363705Y-2160667D01*
X5341207Y-2183165D01*
X5365579Y-2183165D01*
X5304649Y-2145669D02*
X5300900Y-2143795D01*
X5295276Y-2143795D01*
X5289651Y-2145669D01*
X5285902Y-2149419D01*
X5284027Y-2153168D01*
X5282152Y-2160667D01*
X5282152Y-2166292D01*
X5284027Y-2173791D01*
X5285902Y-2177540D01*
X5289651Y-2181290D01*
X5295276Y-2183165D01*
X5299025Y-2183165D01*
X5304649Y-2181290D01*
X5306524Y-2179415D01*
X5306524Y-2166292D01*
X5299025Y-2166292D01*
X5323397Y-2183165D02*
X5323397Y-2143795D01*
X5323397Y-2162542D02*
X5345894Y-2162542D01*
X5345894Y-2183165D02*
X5345894Y-2143795D01*
X2116610Y-2576865D02*
X2116610Y-2537495D01*
X2116610Y-2556243D02*
X2139108Y-2556243D01*
X2139108Y-2576865D02*
X2139108Y-2537495D01*
X2178478Y-2576865D02*
X2155981Y-2576865D01*
X2167229Y-2576865D02*
X2167229Y-2537495D01*
X2163480Y-2543120D01*
X2159730Y-2546869D01*
X2155981Y-2548744D01*
X2191601Y-2537495D02*
X2215973Y-2537495D01*
X2202850Y-2552493D01*
X2208474Y-2552493D01*
X2212224Y-2554368D01*
X2214098Y-2556243D01*
X2215973Y-2559993D01*
X2215973Y-2569366D01*
X2214098Y-2573116D01*
X2212224Y-2574991D01*
X2208474Y-2576865D01*
X2197225Y-2576865D01*
X2193476Y-2574991D01*
X2191601Y-2573116D01*
X2155043Y-2539370D02*
X2151294Y-2537495D01*
X2145669Y-2537495D01*
X2140045Y-2539370D01*
X2136295Y-2543120D01*
X2134421Y-2546869D01*
X2132546Y-2554368D01*
X2132546Y-2559993D01*
X2134421Y-2567492D01*
X2136295Y-2571241D01*
X2140045Y-2574991D01*
X2145669Y-2576865D01*
X2149419Y-2576865D01*
X2155043Y-2574991D01*
X2156918Y-2573116D01*
X2156918Y-2559993D01*
X2149419Y-2559993D01*
X2173791Y-2576865D02*
X2173791Y-2537495D01*
X2173791Y-2556243D02*
X2196288Y-2556243D01*
X2196288Y-2576865D02*
X2196288Y-2537495D01*
X2510311Y-2576865D02*
X2510311Y-2537495D01*
X2510311Y-2556243D02*
X2532808Y-2556243D01*
X2532808Y-2576865D02*
X2532808Y-2537495D01*
X2572179Y-2576865D02*
X2549681Y-2576865D01*
X2560930Y-2576865D02*
X2560930Y-2537495D01*
X2557180Y-2543120D01*
X2553431Y-2546869D01*
X2549681Y-2548744D01*
X2605924Y-2550619D02*
X2605924Y-2576865D01*
X2596550Y-2535621D02*
X2587177Y-2563742D01*
X2611549Y-2563742D01*
X2548744Y-2539370D02*
X2544994Y-2537495D01*
X2539370Y-2537495D01*
X2533746Y-2539370D01*
X2529996Y-2543120D01*
X2528121Y-2546869D01*
X2526247Y-2554368D01*
X2526247Y-2559993D01*
X2528121Y-2567492D01*
X2529996Y-2571241D01*
X2533746Y-2574991D01*
X2539370Y-2576865D01*
X2543120Y-2576865D01*
X2548744Y-2574991D01*
X2550619Y-2573116D01*
X2550619Y-2559993D01*
X2543120Y-2559993D01*
X2567492Y-2576865D02*
X2567492Y-2537495D01*
X2567492Y-2556243D02*
X2589989Y-2556243D01*
X2589989Y-2576865D02*
X2589989Y-2537495D01*
X2904012Y-2576865D02*
X2904012Y-2537495D01*
X2904012Y-2556243D02*
X2926509Y-2556243D01*
X2926509Y-2576865D02*
X2926509Y-2537495D01*
X2965879Y-2576865D02*
X2943382Y-2576865D01*
X2954631Y-2576865D02*
X2954631Y-2537495D01*
X2950881Y-2543120D01*
X2947132Y-2546869D01*
X2943382Y-2548744D01*
X3001500Y-2537495D02*
X2982752Y-2537495D01*
X2980877Y-2556243D01*
X2982752Y-2554368D01*
X2986502Y-2552493D01*
X2995876Y-2552493D01*
X2999625Y-2554368D01*
X3001500Y-2556243D01*
X3003375Y-2559993D01*
X3003375Y-2569366D01*
X3001500Y-2573116D01*
X2999625Y-2574991D01*
X2995876Y-2576865D01*
X2986502Y-2576865D01*
X2982752Y-2574991D01*
X2980877Y-2573116D01*
X2942445Y-2539370D02*
X2938695Y-2537495D01*
X2933071Y-2537495D01*
X2927447Y-2539370D01*
X2923697Y-2543120D01*
X2921822Y-2546869D01*
X2919948Y-2554368D01*
X2919948Y-2559993D01*
X2921822Y-2567492D01*
X2923697Y-2571241D01*
X2927447Y-2574991D01*
X2933071Y-2576865D01*
X2936820Y-2576865D01*
X2942445Y-2574991D01*
X2944319Y-2573116D01*
X2944319Y-2559993D01*
X2936820Y-2559993D01*
X2961192Y-2576865D02*
X2961192Y-2537495D01*
X2961192Y-2556243D02*
X2983690Y-2556243D01*
X2983690Y-2576865D02*
X2983690Y-2537495D01*
X3297713Y-2576865D02*
X3297713Y-2537495D01*
X3297713Y-2556243D02*
X3320210Y-2556243D01*
X3320210Y-2576865D02*
X3320210Y-2537495D01*
X3359580Y-2576865D02*
X3337083Y-2576865D01*
X3348331Y-2576865D02*
X3348331Y-2537495D01*
X3344582Y-2543120D01*
X3340832Y-2546869D01*
X3337083Y-2548744D01*
X3393326Y-2537495D02*
X3385827Y-2537495D01*
X3382077Y-2539370D01*
X3380202Y-2541245D01*
X3376453Y-2546869D01*
X3374578Y-2554368D01*
X3374578Y-2569366D01*
X3376453Y-2573116D01*
X3378328Y-2574991D01*
X3382077Y-2576865D01*
X3389576Y-2576865D01*
X3393326Y-2574991D01*
X3395201Y-2573116D01*
X3397075Y-2569366D01*
X3397075Y-2559993D01*
X3395201Y-2556243D01*
X3393326Y-2554368D01*
X3389576Y-2552493D01*
X3382077Y-2552493D01*
X3378328Y-2554368D01*
X3376453Y-2556243D01*
X3374578Y-2559993D01*
X3336146Y-2539370D02*
X3332396Y-2537495D01*
X3326772Y-2537495D01*
X3321147Y-2539370D01*
X3317398Y-2543120D01*
X3315523Y-2546869D01*
X3313648Y-2554368D01*
X3313648Y-2559993D01*
X3315523Y-2567492D01*
X3317398Y-2571241D01*
X3321147Y-2574991D01*
X3326772Y-2576865D01*
X3330521Y-2576865D01*
X3336146Y-2574991D01*
X3338020Y-2573116D01*
X3338020Y-2559993D01*
X3330521Y-2559993D01*
X3354893Y-2576865D02*
X3354893Y-2537495D01*
X3354893Y-2556243D02*
X3377390Y-2556243D01*
X3377390Y-2576865D02*
X3377390Y-2537495D01*
X3691414Y-2576865D02*
X3691414Y-2537495D01*
X3691414Y-2556243D02*
X3713911Y-2556243D01*
X3713911Y-2576865D02*
X3713911Y-2537495D01*
X3753281Y-2576865D02*
X3730784Y-2576865D01*
X3742032Y-2576865D02*
X3742032Y-2537495D01*
X3738283Y-2543120D01*
X3734533Y-2546869D01*
X3730784Y-2548744D01*
X3766404Y-2537495D02*
X3792651Y-2537495D01*
X3775778Y-2576865D01*
X3729846Y-2539370D02*
X3726097Y-2537495D01*
X3720472Y-2537495D01*
X3714848Y-2539370D01*
X3711099Y-2543120D01*
X3709224Y-2546869D01*
X3707349Y-2554368D01*
X3707349Y-2559993D01*
X3709224Y-2567492D01*
X3711099Y-2571241D01*
X3714848Y-2574991D01*
X3720472Y-2576865D01*
X3724222Y-2576865D01*
X3729846Y-2574991D01*
X3731721Y-2573116D01*
X3731721Y-2559993D01*
X3724222Y-2559993D01*
X3748594Y-2576865D02*
X3748594Y-2537495D01*
X3748594Y-2556243D02*
X3771091Y-2556243D01*
X3771091Y-2576865D02*
X3771091Y-2537495D01*
X4085114Y-2576865D02*
X4085114Y-2537495D01*
X4085114Y-2556243D02*
X4107612Y-2556243D01*
X4107612Y-2576865D02*
X4107612Y-2537495D01*
X4146982Y-2576865D02*
X4124484Y-2576865D01*
X4135733Y-2576865D02*
X4135733Y-2537495D01*
X4131984Y-2543120D01*
X4128234Y-2546869D01*
X4124484Y-2548744D01*
X4169479Y-2554368D02*
X4165729Y-2552493D01*
X4163855Y-2550619D01*
X4161980Y-2546869D01*
X4161980Y-2544994D01*
X4163855Y-2541245D01*
X4165729Y-2539370D01*
X4169479Y-2537495D01*
X4176978Y-2537495D01*
X4180727Y-2539370D01*
X4182602Y-2541245D01*
X4184477Y-2544994D01*
X4184477Y-2546869D01*
X4182602Y-2550619D01*
X4180727Y-2552493D01*
X4176978Y-2554368D01*
X4169479Y-2554368D01*
X4165729Y-2556243D01*
X4163855Y-2558118D01*
X4161980Y-2561867D01*
X4161980Y-2569366D01*
X4163855Y-2573116D01*
X4165729Y-2574991D01*
X4169479Y-2576865D01*
X4176978Y-2576865D01*
X4180727Y-2574991D01*
X4182602Y-2573116D01*
X4184477Y-2569366D01*
X4184477Y-2561867D01*
X4182602Y-2558118D01*
X4180727Y-2556243D01*
X4176978Y-2554368D01*
X4123547Y-2539370D02*
X4119798Y-2537495D01*
X4114173Y-2537495D01*
X4108549Y-2539370D01*
X4104799Y-2543120D01*
X4102925Y-2546869D01*
X4101050Y-2554368D01*
X4101050Y-2559993D01*
X4102925Y-2567492D01*
X4104799Y-2571241D01*
X4108549Y-2574991D01*
X4114173Y-2576865D01*
X4117923Y-2576865D01*
X4123547Y-2574991D01*
X4125422Y-2573116D01*
X4125422Y-2559993D01*
X4117923Y-2559993D01*
X4142295Y-2576865D02*
X4142295Y-2537495D01*
X4142295Y-2556243D02*
X4164792Y-2556243D01*
X4164792Y-2576865D02*
X4164792Y-2537495D01*
X4478815Y-2576865D02*
X4478815Y-2537495D01*
X4478815Y-2556243D02*
X4501312Y-2556243D01*
X4501312Y-2576865D02*
X4501312Y-2537495D01*
X4540682Y-2576865D02*
X4518185Y-2576865D01*
X4529434Y-2576865D02*
X4529434Y-2537495D01*
X4525684Y-2543120D01*
X4521935Y-2546869D01*
X4518185Y-2548744D01*
X4559430Y-2576865D02*
X4566929Y-2576865D01*
X4570679Y-2574991D01*
X4572553Y-2573116D01*
X4576303Y-2567492D01*
X4578178Y-2559993D01*
X4578178Y-2544994D01*
X4576303Y-2541245D01*
X4574428Y-2539370D01*
X4570679Y-2537495D01*
X4563180Y-2537495D01*
X4559430Y-2539370D01*
X4557555Y-2541245D01*
X4555681Y-2544994D01*
X4555681Y-2554368D01*
X4557555Y-2558118D01*
X4559430Y-2559993D01*
X4563180Y-2561867D01*
X4570679Y-2561867D01*
X4574428Y-2559993D01*
X4576303Y-2558118D01*
X4578178Y-2554368D01*
X4517248Y-2539370D02*
X4513498Y-2537495D01*
X4507874Y-2537495D01*
X4502250Y-2539370D01*
X4498500Y-2543120D01*
X4496625Y-2546869D01*
X4494751Y-2554368D01*
X4494751Y-2559993D01*
X4496625Y-2567492D01*
X4498500Y-2571241D01*
X4502250Y-2574991D01*
X4507874Y-2576865D01*
X4511624Y-2576865D01*
X4517248Y-2574991D01*
X4519123Y-2573116D01*
X4519123Y-2559993D01*
X4511624Y-2559993D01*
X4535996Y-2576865D02*
X4535996Y-2537495D01*
X4535996Y-2556243D02*
X4558493Y-2556243D01*
X4558493Y-2576865D02*
X4558493Y-2537495D01*
X4872516Y-2576865D02*
X4872516Y-2537495D01*
X4872516Y-2556243D02*
X4895013Y-2556243D01*
X4895013Y-2576865D02*
X4895013Y-2537495D01*
X4911886Y-2541245D02*
X4913761Y-2539370D01*
X4917510Y-2537495D01*
X4926884Y-2537495D01*
X4930634Y-2539370D01*
X4932508Y-2541245D01*
X4934383Y-2544994D01*
X4934383Y-2548744D01*
X4932508Y-2554368D01*
X4910011Y-2576865D01*
X4934383Y-2576865D01*
X4958755Y-2537495D02*
X4962505Y-2537495D01*
X4966254Y-2539370D01*
X4968129Y-2541245D01*
X4970004Y-2544994D01*
X4971879Y-2552493D01*
X4971879Y-2561867D01*
X4970004Y-2569366D01*
X4968129Y-2573116D01*
X4966254Y-2574991D01*
X4962505Y-2576865D01*
X4958755Y-2576865D01*
X4955006Y-2574991D01*
X4953131Y-2573116D01*
X4951256Y-2569366D01*
X4949381Y-2561867D01*
X4949381Y-2552493D01*
X4951256Y-2544994D01*
X4953131Y-2541245D01*
X4955006Y-2539370D01*
X4958755Y-2537495D01*
X4910949Y-2539370D02*
X4907199Y-2537495D01*
X4901575Y-2537495D01*
X4895951Y-2539370D01*
X4892201Y-2543120D01*
X4890326Y-2546869D01*
X4888451Y-2554368D01*
X4888451Y-2559993D01*
X4890326Y-2567492D01*
X4892201Y-2571241D01*
X4895951Y-2574991D01*
X4901575Y-2576865D01*
X4905324Y-2576865D01*
X4910949Y-2574991D01*
X4912823Y-2573116D01*
X4912823Y-2559993D01*
X4905324Y-2559993D01*
X4929696Y-2576865D02*
X4929696Y-2537495D01*
X4929696Y-2556243D02*
X4952194Y-2556243D01*
X4952194Y-2576865D02*
X4952194Y-2537495D01*
X5266217Y-2576865D02*
X5266217Y-2537495D01*
X5266217Y-2556243D02*
X5288714Y-2556243D01*
X5288714Y-2576865D02*
X5288714Y-2537495D01*
X5305587Y-2541245D02*
X5307462Y-2539370D01*
X5311211Y-2537495D01*
X5320585Y-2537495D01*
X5324334Y-2539370D01*
X5326209Y-2541245D01*
X5328084Y-2544994D01*
X5328084Y-2548744D01*
X5326209Y-2554368D01*
X5303712Y-2576865D01*
X5328084Y-2576865D01*
X5365579Y-2576865D02*
X5343082Y-2576865D01*
X5354331Y-2576865D02*
X5354331Y-2537495D01*
X5350581Y-2543120D01*
X5346832Y-2546869D01*
X5343082Y-2548744D01*
X5304649Y-2539370D02*
X5300900Y-2537495D01*
X5295276Y-2537495D01*
X5289651Y-2539370D01*
X5285902Y-2543120D01*
X5284027Y-2546869D01*
X5282152Y-2554368D01*
X5282152Y-2559993D01*
X5284027Y-2567492D01*
X5285902Y-2571241D01*
X5289651Y-2574991D01*
X5295276Y-2576865D01*
X5299025Y-2576865D01*
X5304649Y-2574991D01*
X5306524Y-2573116D01*
X5306524Y-2559993D01*
X5299025Y-2559993D01*
X5323397Y-2576865D02*
X5323397Y-2537495D01*
X5323397Y-2556243D02*
X5345894Y-2556243D01*
X5345894Y-2576865D02*
X5345894Y-2537495D01*
X5659918Y-2576865D02*
X5659918Y-2537495D01*
X5659918Y-2556243D02*
X5682415Y-2556243D01*
X5682415Y-2576865D02*
X5682415Y-2537495D01*
X5699288Y-2541245D02*
X5701162Y-2539370D01*
X5704912Y-2537495D01*
X5714286Y-2537495D01*
X5718035Y-2539370D01*
X5719910Y-2541245D01*
X5721785Y-2544994D01*
X5721785Y-2548744D01*
X5719910Y-2554368D01*
X5697413Y-2576865D01*
X5721785Y-2576865D01*
X5736783Y-2541245D02*
X5738658Y-2539370D01*
X5742407Y-2537495D01*
X5751781Y-2537495D01*
X5755531Y-2539370D01*
X5757405Y-2541245D01*
X5759280Y-2544994D01*
X5759280Y-2548744D01*
X5757405Y-2554368D01*
X5734908Y-2576865D01*
X5759280Y-2576865D01*
X5698350Y-2539370D02*
X5694601Y-2537495D01*
X5688976Y-2537495D01*
X5683352Y-2539370D01*
X5679603Y-2543120D01*
X5677728Y-2546869D01*
X5675853Y-2554368D01*
X5675853Y-2559993D01*
X5677728Y-2567492D01*
X5679603Y-2571241D01*
X5683352Y-2574991D01*
X5688976Y-2576865D01*
X5692726Y-2576865D01*
X5698350Y-2574991D01*
X5700225Y-2573116D01*
X5700225Y-2559993D01*
X5692726Y-2559993D01*
X5717098Y-2576865D02*
X5717098Y-2537495D01*
X5717098Y-2556243D02*
X5739595Y-2556243D01*
X5739595Y-2576865D02*
X5739595Y-2537495D01*
X2116610Y-2970566D02*
X2116610Y-2931196D01*
X2116610Y-2949944D02*
X2139108Y-2949944D01*
X2139108Y-2970566D02*
X2139108Y-2931196D01*
X2155981Y-2934946D02*
X2157855Y-2933071D01*
X2161605Y-2931196D01*
X2170979Y-2931196D01*
X2174728Y-2933071D01*
X2176603Y-2934946D01*
X2178478Y-2938695D01*
X2178478Y-2942445D01*
X2176603Y-2948069D01*
X2154106Y-2970566D01*
X2178478Y-2970566D01*
X2191601Y-2931196D02*
X2215973Y-2931196D01*
X2202850Y-2946194D01*
X2208474Y-2946194D01*
X2212224Y-2948069D01*
X2214098Y-2949944D01*
X2215973Y-2953693D01*
X2215973Y-2963067D01*
X2214098Y-2966817D01*
X2212224Y-2968691D01*
X2208474Y-2970566D01*
X2197225Y-2970566D01*
X2193476Y-2968691D01*
X2191601Y-2966817D01*
X2155043Y-2933071D02*
X2151294Y-2931196D01*
X2145669Y-2931196D01*
X2140045Y-2933071D01*
X2136295Y-2936820D01*
X2134421Y-2940570D01*
X2132546Y-2948069D01*
X2132546Y-2953693D01*
X2134421Y-2961192D01*
X2136295Y-2964942D01*
X2140045Y-2968691D01*
X2145669Y-2970566D01*
X2149419Y-2970566D01*
X2155043Y-2968691D01*
X2156918Y-2966817D01*
X2156918Y-2953693D01*
X2149419Y-2953693D01*
X2173791Y-2970566D02*
X2173791Y-2931196D01*
X2173791Y-2949944D02*
X2196288Y-2949944D01*
X2196288Y-2970566D02*
X2196288Y-2931196D01*
X2510311Y-2970566D02*
X2510311Y-2931196D01*
X2510311Y-2949944D02*
X2532808Y-2949944D01*
X2532808Y-2970566D02*
X2532808Y-2931196D01*
X2549681Y-2934946D02*
X2551556Y-2933071D01*
X2555306Y-2931196D01*
X2564679Y-2931196D01*
X2568429Y-2933071D01*
X2570304Y-2934946D01*
X2572179Y-2938695D01*
X2572179Y-2942445D01*
X2570304Y-2948069D01*
X2547807Y-2970566D01*
X2572179Y-2970566D01*
X2605924Y-2944319D02*
X2605924Y-2970566D01*
X2596550Y-2929321D02*
X2587177Y-2957443D01*
X2611549Y-2957443D01*
X2548744Y-2933071D02*
X2544994Y-2931196D01*
X2539370Y-2931196D01*
X2533746Y-2933071D01*
X2529996Y-2936820D01*
X2528121Y-2940570D01*
X2526247Y-2948069D01*
X2526247Y-2953693D01*
X2528121Y-2961192D01*
X2529996Y-2964942D01*
X2533746Y-2968691D01*
X2539370Y-2970566D01*
X2543120Y-2970566D01*
X2548744Y-2968691D01*
X2550619Y-2966817D01*
X2550619Y-2953693D01*
X2543120Y-2953693D01*
X2567492Y-2970566D02*
X2567492Y-2931196D01*
X2567492Y-2949944D02*
X2589989Y-2949944D01*
X2589989Y-2970566D02*
X2589989Y-2931196D01*
X2904012Y-2970566D02*
X2904012Y-2931196D01*
X2904012Y-2949944D02*
X2926509Y-2949944D01*
X2926509Y-2970566D02*
X2926509Y-2931196D01*
X2943382Y-2934946D02*
X2945257Y-2933071D01*
X2949006Y-2931196D01*
X2958380Y-2931196D01*
X2962130Y-2933071D01*
X2964005Y-2934946D01*
X2965879Y-2938695D01*
X2965879Y-2942445D01*
X2964005Y-2948069D01*
X2941507Y-2970566D01*
X2965879Y-2970566D01*
X3001500Y-2931196D02*
X2982752Y-2931196D01*
X2980877Y-2949944D01*
X2982752Y-2948069D01*
X2986502Y-2946194D01*
X2995876Y-2946194D01*
X2999625Y-2948069D01*
X3001500Y-2949944D01*
X3003375Y-2953693D01*
X3003375Y-2963067D01*
X3001500Y-2966817D01*
X2999625Y-2968691D01*
X2995876Y-2970566D01*
X2986502Y-2970566D01*
X2982752Y-2968691D01*
X2980877Y-2966817D01*
X2942445Y-2933071D02*
X2938695Y-2931196D01*
X2933071Y-2931196D01*
X2927447Y-2933071D01*
X2923697Y-2936820D01*
X2921822Y-2940570D01*
X2919948Y-2948069D01*
X2919948Y-2953693D01*
X2921822Y-2961192D01*
X2923697Y-2964942D01*
X2927447Y-2968691D01*
X2933071Y-2970566D01*
X2936820Y-2970566D01*
X2942445Y-2968691D01*
X2944319Y-2966817D01*
X2944319Y-2953693D01*
X2936820Y-2953693D01*
X2961192Y-2970566D02*
X2961192Y-2931196D01*
X2961192Y-2949944D02*
X2983690Y-2949944D01*
X2983690Y-2970566D02*
X2983690Y-2931196D01*
X3297713Y-2970566D02*
X3297713Y-2931196D01*
X3297713Y-2949944D02*
X3320210Y-2949944D01*
X3320210Y-2970566D02*
X3320210Y-2931196D01*
X3337083Y-2934946D02*
X3338958Y-2933071D01*
X3342707Y-2931196D01*
X3352081Y-2931196D01*
X3355831Y-2933071D01*
X3357705Y-2934946D01*
X3359580Y-2938695D01*
X3359580Y-2942445D01*
X3357705Y-2948069D01*
X3335208Y-2970566D01*
X3359580Y-2970566D01*
X3393326Y-2931196D02*
X3385827Y-2931196D01*
X3382077Y-2933071D01*
X3380202Y-2934946D01*
X3376453Y-2940570D01*
X3374578Y-2948069D01*
X3374578Y-2963067D01*
X3376453Y-2966817D01*
X3378328Y-2968691D01*
X3382077Y-2970566D01*
X3389576Y-2970566D01*
X3393326Y-2968691D01*
X3395201Y-2966817D01*
X3397075Y-2963067D01*
X3397075Y-2953693D01*
X3395201Y-2949944D01*
X3393326Y-2948069D01*
X3389576Y-2946194D01*
X3382077Y-2946194D01*
X3378328Y-2948069D01*
X3376453Y-2949944D01*
X3374578Y-2953693D01*
X3336146Y-2933071D02*
X3332396Y-2931196D01*
X3326772Y-2931196D01*
X3321147Y-2933071D01*
X3317398Y-2936820D01*
X3315523Y-2940570D01*
X3313648Y-2948069D01*
X3313648Y-2953693D01*
X3315523Y-2961192D01*
X3317398Y-2964942D01*
X3321147Y-2968691D01*
X3326772Y-2970566D01*
X3330521Y-2970566D01*
X3336146Y-2968691D01*
X3338020Y-2966817D01*
X3338020Y-2953693D01*
X3330521Y-2953693D01*
X3354893Y-2970566D02*
X3354893Y-2931196D01*
X3354893Y-2949944D02*
X3377390Y-2949944D01*
X3377390Y-2970566D02*
X3377390Y-2931196D01*
X3691414Y-2970566D02*
X3691414Y-2931196D01*
X3691414Y-2949944D02*
X3713911Y-2949944D01*
X3713911Y-2970566D02*
X3713911Y-2931196D01*
X3730784Y-2934946D02*
X3732658Y-2933071D01*
X3736408Y-2931196D01*
X3745782Y-2931196D01*
X3749531Y-2933071D01*
X3751406Y-2934946D01*
X3753281Y-2938695D01*
X3753281Y-2942445D01*
X3751406Y-2948069D01*
X3728909Y-2970566D01*
X3753281Y-2970566D01*
X3766404Y-2931196D02*
X3792651Y-2931196D01*
X3775778Y-2970566D01*
X3729846Y-2933071D02*
X3726097Y-2931196D01*
X3720472Y-2931196D01*
X3714848Y-2933071D01*
X3711099Y-2936820D01*
X3709224Y-2940570D01*
X3707349Y-2948069D01*
X3707349Y-2953693D01*
X3709224Y-2961192D01*
X3711099Y-2964942D01*
X3714848Y-2968691D01*
X3720472Y-2970566D01*
X3724222Y-2970566D01*
X3729846Y-2968691D01*
X3731721Y-2966817D01*
X3731721Y-2953693D01*
X3724222Y-2953693D01*
X3748594Y-2970566D02*
X3748594Y-2931196D01*
X3748594Y-2949944D02*
X3771091Y-2949944D01*
X3771091Y-2970566D02*
X3771091Y-2931196D01*
X4085114Y-2970566D02*
X4085114Y-2931196D01*
X4085114Y-2949944D02*
X4107612Y-2949944D01*
X4107612Y-2970566D02*
X4107612Y-2931196D01*
X4124484Y-2934946D02*
X4126359Y-2933071D01*
X4130109Y-2931196D01*
X4139483Y-2931196D01*
X4143232Y-2933071D01*
X4145107Y-2934946D01*
X4146982Y-2938695D01*
X4146982Y-2942445D01*
X4145107Y-2948069D01*
X4122610Y-2970566D01*
X4146982Y-2970566D01*
X4169479Y-2948069D02*
X4165729Y-2946194D01*
X4163855Y-2944319D01*
X4161980Y-2940570D01*
X4161980Y-2938695D01*
X4163855Y-2934946D01*
X4165729Y-2933071D01*
X4169479Y-2931196D01*
X4176978Y-2931196D01*
X4180727Y-2933071D01*
X4182602Y-2934946D01*
X4184477Y-2938695D01*
X4184477Y-2940570D01*
X4182602Y-2944319D01*
X4180727Y-2946194D01*
X4176978Y-2948069D01*
X4169479Y-2948069D01*
X4165729Y-2949944D01*
X4163855Y-2951819D01*
X4161980Y-2955568D01*
X4161980Y-2963067D01*
X4163855Y-2966817D01*
X4165729Y-2968691D01*
X4169479Y-2970566D01*
X4176978Y-2970566D01*
X4180727Y-2968691D01*
X4182602Y-2966817D01*
X4184477Y-2963067D01*
X4184477Y-2955568D01*
X4182602Y-2951819D01*
X4180727Y-2949944D01*
X4176978Y-2948069D01*
X4123547Y-2933071D02*
X4119798Y-2931196D01*
X4114173Y-2931196D01*
X4108549Y-2933071D01*
X4104799Y-2936820D01*
X4102925Y-2940570D01*
X4101050Y-2948069D01*
X4101050Y-2953693D01*
X4102925Y-2961192D01*
X4104799Y-2964942D01*
X4108549Y-2968691D01*
X4114173Y-2970566D01*
X4117923Y-2970566D01*
X4123547Y-2968691D01*
X4125422Y-2966817D01*
X4125422Y-2953693D01*
X4117923Y-2953693D01*
X4142295Y-2970566D02*
X4142295Y-2931196D01*
X4142295Y-2949944D02*
X4164792Y-2949944D01*
X4164792Y-2970566D02*
X4164792Y-2931196D01*
X4478815Y-2970566D02*
X4478815Y-2931196D01*
X4478815Y-2949944D02*
X4501312Y-2949944D01*
X4501312Y-2970566D02*
X4501312Y-2931196D01*
X4518185Y-2934946D02*
X4520060Y-2933071D01*
X4523810Y-2931196D01*
X4533183Y-2931196D01*
X4536933Y-2933071D01*
X4538808Y-2934946D01*
X4540682Y-2938695D01*
X4540682Y-2942445D01*
X4538808Y-2948069D01*
X4516310Y-2970566D01*
X4540682Y-2970566D01*
X4559430Y-2970566D02*
X4566929Y-2970566D01*
X4570679Y-2968691D01*
X4572553Y-2966817D01*
X4576303Y-2961192D01*
X4578178Y-2953693D01*
X4578178Y-2938695D01*
X4576303Y-2934946D01*
X4574428Y-2933071D01*
X4570679Y-2931196D01*
X4563180Y-2931196D01*
X4559430Y-2933071D01*
X4557555Y-2934946D01*
X4555681Y-2938695D01*
X4555681Y-2948069D01*
X4557555Y-2951819D01*
X4559430Y-2953693D01*
X4563180Y-2955568D01*
X4570679Y-2955568D01*
X4574428Y-2953693D01*
X4576303Y-2951819D01*
X4578178Y-2948069D01*
X4517248Y-2933071D02*
X4513498Y-2931196D01*
X4507874Y-2931196D01*
X4502250Y-2933071D01*
X4498500Y-2936820D01*
X4496625Y-2940570D01*
X4494751Y-2948069D01*
X4494751Y-2953693D01*
X4496625Y-2961192D01*
X4498500Y-2964942D01*
X4502250Y-2968691D01*
X4507874Y-2970566D01*
X4511624Y-2970566D01*
X4517248Y-2968691D01*
X4519123Y-2966817D01*
X4519123Y-2953693D01*
X4511624Y-2953693D01*
X4535996Y-2970566D02*
X4535996Y-2931196D01*
X4535996Y-2949944D02*
X4558493Y-2949944D01*
X4558493Y-2970566D02*
X4558493Y-2931196D01*
X4872516Y-2970566D02*
X4872516Y-2931196D01*
X4872516Y-2949944D02*
X4895013Y-2949944D01*
X4895013Y-2970566D02*
X4895013Y-2931196D01*
X4910011Y-2931196D02*
X4934383Y-2931196D01*
X4921260Y-2946194D01*
X4926884Y-2946194D01*
X4930634Y-2948069D01*
X4932508Y-2949944D01*
X4934383Y-2953693D01*
X4934383Y-2963067D01*
X4932508Y-2966817D01*
X4930634Y-2968691D01*
X4926884Y-2970566D01*
X4915636Y-2970566D01*
X4911886Y-2968691D01*
X4910011Y-2966817D01*
X4958755Y-2931196D02*
X4962505Y-2931196D01*
X4966254Y-2933071D01*
X4968129Y-2934946D01*
X4970004Y-2938695D01*
X4971879Y-2946194D01*
X4971879Y-2955568D01*
X4970004Y-2963067D01*
X4968129Y-2966817D01*
X4966254Y-2968691D01*
X4962505Y-2970566D01*
X4958755Y-2970566D01*
X4955006Y-2968691D01*
X4953131Y-2966817D01*
X4951256Y-2963067D01*
X4949381Y-2955568D01*
X4949381Y-2946194D01*
X4951256Y-2938695D01*
X4953131Y-2934946D01*
X4955006Y-2933071D01*
X4958755Y-2931196D01*
X4910949Y-2933071D02*
X4907199Y-2931196D01*
X4901575Y-2931196D01*
X4895951Y-2933071D01*
X4892201Y-2936820D01*
X4890326Y-2940570D01*
X4888451Y-2948069D01*
X4888451Y-2953693D01*
X4890326Y-2961192D01*
X4892201Y-2964942D01*
X4895951Y-2968691D01*
X4901575Y-2970566D01*
X4905324Y-2970566D01*
X4910949Y-2968691D01*
X4912823Y-2966817D01*
X4912823Y-2953693D01*
X4905324Y-2953693D01*
X4929696Y-2970566D02*
X4929696Y-2931196D01*
X4929696Y-2949944D02*
X4952194Y-2949944D01*
X4952194Y-2970566D02*
X4952194Y-2931196D01*
X5266217Y-2970566D02*
X5266217Y-2931196D01*
X5266217Y-2949944D02*
X5288714Y-2949944D01*
X5288714Y-2970566D02*
X5288714Y-2931196D01*
X5303712Y-2931196D02*
X5328084Y-2931196D01*
X5314961Y-2946194D01*
X5320585Y-2946194D01*
X5324334Y-2948069D01*
X5326209Y-2949944D01*
X5328084Y-2953693D01*
X5328084Y-2963067D01*
X5326209Y-2966817D01*
X5324334Y-2968691D01*
X5320585Y-2970566D01*
X5309336Y-2970566D01*
X5305587Y-2968691D01*
X5303712Y-2966817D01*
X5365579Y-2970566D02*
X5343082Y-2970566D01*
X5354331Y-2970566D02*
X5354331Y-2931196D01*
X5350581Y-2936820D01*
X5346832Y-2940570D01*
X5343082Y-2942445D01*
X5304649Y-2933071D02*
X5300900Y-2931196D01*
X5295276Y-2931196D01*
X5289651Y-2933071D01*
X5285902Y-2936820D01*
X5284027Y-2940570D01*
X5282152Y-2948069D01*
X5282152Y-2953693D01*
X5284027Y-2961192D01*
X5285902Y-2964942D01*
X5289651Y-2968691D01*
X5295276Y-2970566D01*
X5299025Y-2970566D01*
X5304649Y-2968691D01*
X5306524Y-2966817D01*
X5306524Y-2953693D01*
X5299025Y-2953693D01*
X5323397Y-2970566D02*
X5323397Y-2931196D01*
X5323397Y-2949944D02*
X5345894Y-2949944D01*
X5345894Y-2970566D02*
X5345894Y-2931196D01*
X5659918Y-2970566D02*
X5659918Y-2931196D01*
X5659918Y-2949944D02*
X5682415Y-2949944D01*
X5682415Y-2970566D02*
X5682415Y-2931196D01*
X5697413Y-2931196D02*
X5721785Y-2931196D01*
X5708661Y-2946194D01*
X5714286Y-2946194D01*
X5718035Y-2948069D01*
X5719910Y-2949944D01*
X5721785Y-2953693D01*
X5721785Y-2963067D01*
X5719910Y-2966817D01*
X5718035Y-2968691D01*
X5714286Y-2970566D01*
X5703037Y-2970566D01*
X5699288Y-2968691D01*
X5697413Y-2966817D01*
X5736783Y-2934946D02*
X5738658Y-2933071D01*
X5742407Y-2931196D01*
X5751781Y-2931196D01*
X5755531Y-2933071D01*
X5757405Y-2934946D01*
X5759280Y-2938695D01*
X5759280Y-2942445D01*
X5757405Y-2948069D01*
X5734908Y-2970566D01*
X5759280Y-2970566D01*
X5698350Y-2933071D02*
X5694601Y-2931196D01*
X5688976Y-2931196D01*
X5683352Y-2933071D01*
X5679603Y-2936820D01*
X5677728Y-2940570D01*
X5675853Y-2948069D01*
X5675853Y-2953693D01*
X5677728Y-2961192D01*
X5679603Y-2964942D01*
X5683352Y-2968691D01*
X5688976Y-2970566D01*
X5692726Y-2970566D01*
X5698350Y-2968691D01*
X5700225Y-2966817D01*
X5700225Y-2953693D01*
X5692726Y-2953693D01*
X5717098Y-2970566D02*
X5717098Y-2931196D01*
X5717098Y-2949944D02*
X5739595Y-2949944D01*
X5739595Y-2970566D02*
X5739595Y-2931196D01*
X2116610Y-4939070D02*
X2116610Y-4899700D01*
X2116610Y-4918448D02*
X2139108Y-4918448D01*
X2139108Y-4939070D02*
X2139108Y-4899700D01*
X2154106Y-4899700D02*
X2178478Y-4899700D01*
X2165354Y-4914698D01*
X2170979Y-4914698D01*
X2174728Y-4916573D01*
X2176603Y-4918448D01*
X2178478Y-4922197D01*
X2178478Y-4931571D01*
X2176603Y-4935321D01*
X2174728Y-4937195D01*
X2170979Y-4939070D01*
X2159730Y-4939070D01*
X2155981Y-4937195D01*
X2154106Y-4935321D01*
X2191601Y-4899700D02*
X2215973Y-4899700D01*
X2202850Y-4914698D01*
X2208474Y-4914698D01*
X2212224Y-4916573D01*
X2214098Y-4918448D01*
X2215973Y-4922197D01*
X2215973Y-4931571D01*
X2214098Y-4935321D01*
X2212224Y-4937195D01*
X2208474Y-4939070D01*
X2197225Y-4939070D01*
X2193476Y-4937195D01*
X2191601Y-4935321D01*
X2155043Y-4901575D02*
X2151294Y-4899700D01*
X2145669Y-4899700D01*
X2140045Y-4901575D01*
X2136295Y-4905324D01*
X2134421Y-4909074D01*
X2132546Y-4916573D01*
X2132546Y-4922197D01*
X2134421Y-4929696D01*
X2136295Y-4933446D01*
X2140045Y-4937195D01*
X2145669Y-4939070D01*
X2149419Y-4939070D01*
X2155043Y-4937195D01*
X2156918Y-4935321D01*
X2156918Y-4922197D01*
X2149419Y-4922197D01*
X2173791Y-4939070D02*
X2173791Y-4899700D01*
X2173791Y-4918448D02*
X2196288Y-4918448D01*
X2196288Y-4939070D02*
X2196288Y-4899700D01*
X2510311Y-4939070D02*
X2510311Y-4899700D01*
X2510311Y-4918448D02*
X2532808Y-4918448D01*
X2532808Y-4939070D02*
X2532808Y-4899700D01*
X2547807Y-4899700D02*
X2572179Y-4899700D01*
X2559055Y-4914698D01*
X2564679Y-4914698D01*
X2568429Y-4916573D01*
X2570304Y-4918448D01*
X2572179Y-4922197D01*
X2572179Y-4931571D01*
X2570304Y-4935321D01*
X2568429Y-4937195D01*
X2564679Y-4939070D01*
X2553431Y-4939070D01*
X2549681Y-4937195D01*
X2547807Y-4935321D01*
X2605924Y-4912823D02*
X2605924Y-4939070D01*
X2596550Y-4897825D02*
X2587177Y-4925947D01*
X2611549Y-4925947D01*
X2548744Y-4901575D02*
X2544994Y-4899700D01*
X2539370Y-4899700D01*
X2533746Y-4901575D01*
X2529996Y-4905324D01*
X2528121Y-4909074D01*
X2526247Y-4916573D01*
X2526247Y-4922197D01*
X2528121Y-4929696D01*
X2529996Y-4933446D01*
X2533746Y-4937195D01*
X2539370Y-4939070D01*
X2543120Y-4939070D01*
X2548744Y-4937195D01*
X2550619Y-4935321D01*
X2550619Y-4922197D01*
X2543120Y-4922197D01*
X2567492Y-4939070D02*
X2567492Y-4899700D01*
X2567492Y-4918448D02*
X2589989Y-4918448D01*
X2589989Y-4939070D02*
X2589989Y-4899700D01*
X2904012Y-4939070D02*
X2904012Y-4899700D01*
X2904012Y-4918448D02*
X2926509Y-4918448D01*
X2926509Y-4939070D02*
X2926509Y-4899700D01*
X2941507Y-4899700D02*
X2965879Y-4899700D01*
X2952756Y-4914698D01*
X2958380Y-4914698D01*
X2962130Y-4916573D01*
X2964005Y-4918448D01*
X2965879Y-4922197D01*
X2965879Y-4931571D01*
X2964005Y-4935321D01*
X2962130Y-4937195D01*
X2958380Y-4939070D01*
X2947132Y-4939070D01*
X2943382Y-4937195D01*
X2941507Y-4935321D01*
X3001500Y-4899700D02*
X2982752Y-4899700D01*
X2980877Y-4918448D01*
X2982752Y-4916573D01*
X2986502Y-4914698D01*
X2995876Y-4914698D01*
X2999625Y-4916573D01*
X3001500Y-4918448D01*
X3003375Y-4922197D01*
X3003375Y-4931571D01*
X3001500Y-4935321D01*
X2999625Y-4937195D01*
X2995876Y-4939070D01*
X2986502Y-4939070D01*
X2982752Y-4937195D01*
X2980877Y-4935321D01*
X2942445Y-4901575D02*
X2938695Y-4899700D01*
X2933071Y-4899700D01*
X2927447Y-4901575D01*
X2923697Y-4905324D01*
X2921822Y-4909074D01*
X2919948Y-4916573D01*
X2919948Y-4922197D01*
X2921822Y-4929696D01*
X2923697Y-4933446D01*
X2927447Y-4937195D01*
X2933071Y-4939070D01*
X2936820Y-4939070D01*
X2942445Y-4937195D01*
X2944319Y-4935321D01*
X2944319Y-4922197D01*
X2936820Y-4922197D01*
X2961192Y-4939070D02*
X2961192Y-4899700D01*
X2961192Y-4918448D02*
X2983690Y-4918448D01*
X2983690Y-4939070D02*
X2983690Y-4899700D01*
X3297713Y-4939070D02*
X3297713Y-4899700D01*
X3297713Y-4918448D02*
X3320210Y-4918448D01*
X3320210Y-4939070D02*
X3320210Y-4899700D01*
X3335208Y-4899700D02*
X3359580Y-4899700D01*
X3346457Y-4914698D01*
X3352081Y-4914698D01*
X3355831Y-4916573D01*
X3357705Y-4918448D01*
X3359580Y-4922197D01*
X3359580Y-4931571D01*
X3357705Y-4935321D01*
X3355831Y-4937195D01*
X3352081Y-4939070D01*
X3340832Y-4939070D01*
X3337083Y-4937195D01*
X3335208Y-4935321D01*
X3393326Y-4899700D02*
X3385827Y-4899700D01*
X3382077Y-4901575D01*
X3380202Y-4903450D01*
X3376453Y-4909074D01*
X3374578Y-4916573D01*
X3374578Y-4931571D01*
X3376453Y-4935321D01*
X3378328Y-4937195D01*
X3382077Y-4939070D01*
X3389576Y-4939070D01*
X3393326Y-4937195D01*
X3395201Y-4935321D01*
X3397075Y-4931571D01*
X3397075Y-4922197D01*
X3395201Y-4918448D01*
X3393326Y-4916573D01*
X3389576Y-4914698D01*
X3382077Y-4914698D01*
X3378328Y-4916573D01*
X3376453Y-4918448D01*
X3374578Y-4922197D01*
X3336146Y-4901575D02*
X3332396Y-4899700D01*
X3326772Y-4899700D01*
X3321147Y-4901575D01*
X3317398Y-4905324D01*
X3315523Y-4909074D01*
X3313648Y-4916573D01*
X3313648Y-4922197D01*
X3315523Y-4929696D01*
X3317398Y-4933446D01*
X3321147Y-4937195D01*
X3326772Y-4939070D01*
X3330521Y-4939070D01*
X3336146Y-4937195D01*
X3338020Y-4935321D01*
X3338020Y-4922197D01*
X3330521Y-4922197D01*
X3354893Y-4939070D02*
X3354893Y-4899700D01*
X3354893Y-4918448D02*
X3377390Y-4918448D01*
X3377390Y-4939070D02*
X3377390Y-4899700D01*
X3691414Y-4939070D02*
X3691414Y-4899700D01*
X3691414Y-4918448D02*
X3713911Y-4918448D01*
X3713911Y-4939070D02*
X3713911Y-4899700D01*
X3728909Y-4899700D02*
X3753281Y-4899700D01*
X3740157Y-4914698D01*
X3745782Y-4914698D01*
X3749531Y-4916573D01*
X3751406Y-4918448D01*
X3753281Y-4922197D01*
X3753281Y-4931571D01*
X3751406Y-4935321D01*
X3749531Y-4937195D01*
X3745782Y-4939070D01*
X3734533Y-4939070D01*
X3730784Y-4937195D01*
X3728909Y-4935321D01*
X3766404Y-4899700D02*
X3792651Y-4899700D01*
X3775778Y-4939070D01*
X3729846Y-4901575D02*
X3726097Y-4899700D01*
X3720472Y-4899700D01*
X3714848Y-4901575D01*
X3711099Y-4905324D01*
X3709224Y-4909074D01*
X3707349Y-4916573D01*
X3707349Y-4922197D01*
X3709224Y-4929696D01*
X3711099Y-4933446D01*
X3714848Y-4937195D01*
X3720472Y-4939070D01*
X3724222Y-4939070D01*
X3729846Y-4937195D01*
X3731721Y-4935321D01*
X3731721Y-4922197D01*
X3724222Y-4922197D01*
X3748594Y-4939070D02*
X3748594Y-4899700D01*
X3748594Y-4918448D02*
X3771091Y-4918448D01*
X3771091Y-4939070D02*
X3771091Y-4899700D01*
X4085114Y-4939070D02*
X4085114Y-4899700D01*
X4085114Y-4918448D02*
X4107612Y-4918448D01*
X4107612Y-4939070D02*
X4107612Y-4899700D01*
X4122610Y-4899700D02*
X4146982Y-4899700D01*
X4133858Y-4914698D01*
X4139483Y-4914698D01*
X4143232Y-4916573D01*
X4145107Y-4918448D01*
X4146982Y-4922197D01*
X4146982Y-4931571D01*
X4145107Y-4935321D01*
X4143232Y-4937195D01*
X4139483Y-4939070D01*
X4128234Y-4939070D01*
X4124484Y-4937195D01*
X4122610Y-4935321D01*
X4169479Y-4916573D02*
X4165729Y-4914698D01*
X4163855Y-4912823D01*
X4161980Y-4909074D01*
X4161980Y-4907199D01*
X4163855Y-4903450D01*
X4165729Y-4901575D01*
X4169479Y-4899700D01*
X4176978Y-4899700D01*
X4180727Y-4901575D01*
X4182602Y-4903450D01*
X4184477Y-4907199D01*
X4184477Y-4909074D01*
X4182602Y-4912823D01*
X4180727Y-4914698D01*
X4176978Y-4916573D01*
X4169479Y-4916573D01*
X4165729Y-4918448D01*
X4163855Y-4920322D01*
X4161980Y-4924072D01*
X4161980Y-4931571D01*
X4163855Y-4935321D01*
X4165729Y-4937195D01*
X4169479Y-4939070D01*
X4176978Y-4939070D01*
X4180727Y-4937195D01*
X4182602Y-4935321D01*
X4184477Y-4931571D01*
X4184477Y-4924072D01*
X4182602Y-4920322D01*
X4180727Y-4918448D01*
X4176978Y-4916573D01*
X4123547Y-4901575D02*
X4119798Y-4899700D01*
X4114173Y-4899700D01*
X4108549Y-4901575D01*
X4104799Y-4905324D01*
X4102925Y-4909074D01*
X4101050Y-4916573D01*
X4101050Y-4922197D01*
X4102925Y-4929696D01*
X4104799Y-4933446D01*
X4108549Y-4937195D01*
X4114173Y-4939070D01*
X4117923Y-4939070D01*
X4123547Y-4937195D01*
X4125422Y-4935321D01*
X4125422Y-4922197D01*
X4117923Y-4922197D01*
X4142295Y-4939070D02*
X4142295Y-4899700D01*
X4142295Y-4918448D02*
X4164792Y-4918448D01*
X4164792Y-4939070D02*
X4164792Y-4899700D01*
X4478815Y-4939070D02*
X4478815Y-4899700D01*
X4478815Y-4918448D02*
X4501312Y-4918448D01*
X4501312Y-4939070D02*
X4501312Y-4899700D01*
X4516310Y-4899700D02*
X4540682Y-4899700D01*
X4527559Y-4914698D01*
X4533183Y-4914698D01*
X4536933Y-4916573D01*
X4538808Y-4918448D01*
X4540682Y-4922197D01*
X4540682Y-4931571D01*
X4538808Y-4935321D01*
X4536933Y-4937195D01*
X4533183Y-4939070D01*
X4521935Y-4939070D01*
X4518185Y-4937195D01*
X4516310Y-4935321D01*
X4559430Y-4939070D02*
X4566929Y-4939070D01*
X4570679Y-4937195D01*
X4572553Y-4935321D01*
X4576303Y-4929696D01*
X4578178Y-4922197D01*
X4578178Y-4907199D01*
X4576303Y-4903450D01*
X4574428Y-4901575D01*
X4570679Y-4899700D01*
X4563180Y-4899700D01*
X4559430Y-4901575D01*
X4557555Y-4903450D01*
X4555681Y-4907199D01*
X4555681Y-4916573D01*
X4557555Y-4920322D01*
X4559430Y-4922197D01*
X4563180Y-4924072D01*
X4570679Y-4924072D01*
X4574428Y-4922197D01*
X4576303Y-4920322D01*
X4578178Y-4916573D01*
X4517248Y-4901575D02*
X4513498Y-4899700D01*
X4507874Y-4899700D01*
X4502250Y-4901575D01*
X4498500Y-4905324D01*
X4496625Y-4909074D01*
X4494751Y-4916573D01*
X4494751Y-4922197D01*
X4496625Y-4929696D01*
X4498500Y-4933446D01*
X4502250Y-4937195D01*
X4507874Y-4939070D01*
X4511624Y-4939070D01*
X4517248Y-4937195D01*
X4519123Y-4935321D01*
X4519123Y-4922197D01*
X4511624Y-4922197D01*
X4535996Y-4939070D02*
X4535996Y-4899700D01*
X4535996Y-4918448D02*
X4558493Y-4918448D01*
X4558493Y-4939070D02*
X4558493Y-4899700D01*
X4872516Y-4939070D02*
X4872516Y-4899700D01*
X4872516Y-4918448D02*
X4895013Y-4918448D01*
X4895013Y-4939070D02*
X4895013Y-4899700D01*
X4930634Y-4912823D02*
X4930634Y-4939070D01*
X4921260Y-4897825D02*
X4911886Y-4925947D01*
X4936258Y-4925947D01*
X4958755Y-4899700D02*
X4962505Y-4899700D01*
X4966254Y-4901575D01*
X4968129Y-4903450D01*
X4970004Y-4907199D01*
X4971879Y-4914698D01*
X4971879Y-4924072D01*
X4970004Y-4931571D01*
X4968129Y-4935321D01*
X4966254Y-4937195D01*
X4962505Y-4939070D01*
X4958755Y-4939070D01*
X4955006Y-4937195D01*
X4953131Y-4935321D01*
X4951256Y-4931571D01*
X4949381Y-4924072D01*
X4949381Y-4914698D01*
X4951256Y-4907199D01*
X4953131Y-4903450D01*
X4955006Y-4901575D01*
X4958755Y-4899700D01*
X4910949Y-4901575D02*
X4907199Y-4899700D01*
X4901575Y-4899700D01*
X4895951Y-4901575D01*
X4892201Y-4905324D01*
X4890326Y-4909074D01*
X4888451Y-4916573D01*
X4888451Y-4922197D01*
X4890326Y-4929696D01*
X4892201Y-4933446D01*
X4895951Y-4937195D01*
X4901575Y-4939070D01*
X4905324Y-4939070D01*
X4910949Y-4937195D01*
X4912823Y-4935321D01*
X4912823Y-4922197D01*
X4905324Y-4922197D01*
X4929696Y-4939070D02*
X4929696Y-4899700D01*
X4929696Y-4918448D02*
X4952194Y-4918448D01*
X4952194Y-4939070D02*
X4952194Y-4899700D01*
X5266217Y-4939070D02*
X5266217Y-4899700D01*
X5266217Y-4918448D02*
X5288714Y-4918448D01*
X5288714Y-4939070D02*
X5288714Y-4899700D01*
X5324334Y-4912823D02*
X5324334Y-4939070D01*
X5314961Y-4897825D02*
X5305587Y-4925947D01*
X5329959Y-4925947D01*
X5365579Y-4939070D02*
X5343082Y-4939070D01*
X5354331Y-4939070D02*
X5354331Y-4899700D01*
X5350581Y-4905324D01*
X5346832Y-4909074D01*
X5343082Y-4910949D01*
X5304649Y-4901575D02*
X5300900Y-4899700D01*
X5295276Y-4899700D01*
X5289651Y-4901575D01*
X5285902Y-4905324D01*
X5284027Y-4909074D01*
X5282152Y-4916573D01*
X5282152Y-4922197D01*
X5284027Y-4929696D01*
X5285902Y-4933446D01*
X5289651Y-4937195D01*
X5295276Y-4939070D01*
X5299025Y-4939070D01*
X5304649Y-4937195D01*
X5306524Y-4935321D01*
X5306524Y-4922197D01*
X5299025Y-4922197D01*
X5323397Y-4939070D02*
X5323397Y-4899700D01*
X5323397Y-4918448D02*
X5345894Y-4918448D01*
X5345894Y-4939070D02*
X5345894Y-4899700D01*
X5659918Y-4939070D02*
X5659918Y-4899700D01*
X5659918Y-4918448D02*
X5682415Y-4918448D01*
X5682415Y-4939070D02*
X5682415Y-4899700D01*
X5718035Y-4912823D02*
X5718035Y-4939070D01*
X5708661Y-4897825D02*
X5699288Y-4925947D01*
X5723660Y-4925947D01*
X5736783Y-4903450D02*
X5738658Y-4901575D01*
X5742407Y-4899700D01*
X5751781Y-4899700D01*
X5755531Y-4901575D01*
X5757405Y-4903450D01*
X5759280Y-4907199D01*
X5759280Y-4910949D01*
X5757405Y-4916573D01*
X5734908Y-4939070D01*
X5759280Y-4939070D01*
X5698350Y-4901575D02*
X5694601Y-4899700D01*
X5688976Y-4899700D01*
X5683352Y-4901575D01*
X5679603Y-4905324D01*
X5677728Y-4909074D01*
X5675853Y-4916573D01*
X5675853Y-4922197D01*
X5677728Y-4929696D01*
X5679603Y-4933446D01*
X5683352Y-4937195D01*
X5688976Y-4939070D01*
X5692726Y-4939070D01*
X5698350Y-4937195D01*
X5700225Y-4935321D01*
X5700225Y-4922197D01*
X5692726Y-4922197D01*
X5717098Y-4939070D02*
X5717098Y-4899700D01*
X5717098Y-4918448D02*
X5739595Y-4918448D01*
X5739595Y-4939070D02*
X5739595Y-4899700D01*
X2116610Y-5332771D02*
X2116610Y-5293401D01*
X2116610Y-5312148D02*
X2139108Y-5312148D01*
X2139108Y-5332771D02*
X2139108Y-5293401D01*
X2174728Y-5306524D02*
X2174728Y-5332771D01*
X2165354Y-5291526D02*
X2155981Y-5319648D01*
X2180352Y-5319648D01*
X2191601Y-5293401D02*
X2215973Y-5293401D01*
X2202850Y-5308399D01*
X2208474Y-5308399D01*
X2212224Y-5310274D01*
X2214098Y-5312148D01*
X2215973Y-5315898D01*
X2215973Y-5325272D01*
X2214098Y-5329021D01*
X2212224Y-5330896D01*
X2208474Y-5332771D01*
X2197225Y-5332771D01*
X2193476Y-5330896D01*
X2191601Y-5329021D01*
X2155043Y-5295276D02*
X2151294Y-5293401D01*
X2145669Y-5293401D01*
X2140045Y-5295276D01*
X2136295Y-5299025D01*
X2134421Y-5302775D01*
X2132546Y-5310274D01*
X2132546Y-5315898D01*
X2134421Y-5323397D01*
X2136295Y-5327147D01*
X2140045Y-5330896D01*
X2145669Y-5332771D01*
X2149419Y-5332771D01*
X2155043Y-5330896D01*
X2156918Y-5329021D01*
X2156918Y-5315898D01*
X2149419Y-5315898D01*
X2173791Y-5332771D02*
X2173791Y-5293401D01*
X2173791Y-5312148D02*
X2196288Y-5312148D01*
X2196288Y-5332771D02*
X2196288Y-5293401D01*
X2510311Y-5332771D02*
X2510311Y-5293401D01*
X2510311Y-5312148D02*
X2532808Y-5312148D01*
X2532808Y-5332771D02*
X2532808Y-5293401D01*
X2568429Y-5306524D02*
X2568429Y-5332771D01*
X2559055Y-5291526D02*
X2549681Y-5319648D01*
X2574053Y-5319648D01*
X2605924Y-5306524D02*
X2605924Y-5332771D01*
X2596550Y-5291526D02*
X2587177Y-5319648D01*
X2611549Y-5319648D01*
X2548744Y-5295276D02*
X2544994Y-5293401D01*
X2539370Y-5293401D01*
X2533746Y-5295276D01*
X2529996Y-5299025D01*
X2528121Y-5302775D01*
X2526247Y-5310274D01*
X2526247Y-5315898D01*
X2528121Y-5323397D01*
X2529996Y-5327147D01*
X2533746Y-5330896D01*
X2539370Y-5332771D01*
X2543120Y-5332771D01*
X2548744Y-5330896D01*
X2550619Y-5329021D01*
X2550619Y-5315898D01*
X2543120Y-5315898D01*
X2567492Y-5332771D02*
X2567492Y-5293401D01*
X2567492Y-5312148D02*
X2589989Y-5312148D01*
X2589989Y-5332771D02*
X2589989Y-5293401D01*
X2904012Y-5332771D02*
X2904012Y-5293401D01*
X2904012Y-5312148D02*
X2926509Y-5312148D01*
X2926509Y-5332771D02*
X2926509Y-5293401D01*
X2962130Y-5306524D02*
X2962130Y-5332771D01*
X2952756Y-5291526D02*
X2943382Y-5319648D01*
X2967754Y-5319648D01*
X3001500Y-5293401D02*
X2982752Y-5293401D01*
X2980877Y-5312148D01*
X2982752Y-5310274D01*
X2986502Y-5308399D01*
X2995876Y-5308399D01*
X2999625Y-5310274D01*
X3001500Y-5312148D01*
X3003375Y-5315898D01*
X3003375Y-5325272D01*
X3001500Y-5329021D01*
X2999625Y-5330896D01*
X2995876Y-5332771D01*
X2986502Y-5332771D01*
X2982752Y-5330896D01*
X2980877Y-5329021D01*
X2942445Y-5295276D02*
X2938695Y-5293401D01*
X2933071Y-5293401D01*
X2927447Y-5295276D01*
X2923697Y-5299025D01*
X2921822Y-5302775D01*
X2919948Y-5310274D01*
X2919948Y-5315898D01*
X2921822Y-5323397D01*
X2923697Y-5327147D01*
X2927447Y-5330896D01*
X2933071Y-5332771D01*
X2936820Y-5332771D01*
X2942445Y-5330896D01*
X2944319Y-5329021D01*
X2944319Y-5315898D01*
X2936820Y-5315898D01*
X2961192Y-5332771D02*
X2961192Y-5293401D01*
X2961192Y-5312148D02*
X2983690Y-5312148D01*
X2983690Y-5332771D02*
X2983690Y-5293401D01*
X3297713Y-5332771D02*
X3297713Y-5293401D01*
X3297713Y-5312148D02*
X3320210Y-5312148D01*
X3320210Y-5332771D02*
X3320210Y-5293401D01*
X3355831Y-5306524D02*
X3355831Y-5332771D01*
X3346457Y-5291526D02*
X3337083Y-5319648D01*
X3361455Y-5319648D01*
X3393326Y-5293401D02*
X3385827Y-5293401D01*
X3382077Y-5295276D01*
X3380202Y-5297150D01*
X3376453Y-5302775D01*
X3374578Y-5310274D01*
X3374578Y-5325272D01*
X3376453Y-5329021D01*
X3378328Y-5330896D01*
X3382077Y-5332771D01*
X3389576Y-5332771D01*
X3393326Y-5330896D01*
X3395201Y-5329021D01*
X3397075Y-5325272D01*
X3397075Y-5315898D01*
X3395201Y-5312148D01*
X3393326Y-5310274D01*
X3389576Y-5308399D01*
X3382077Y-5308399D01*
X3378328Y-5310274D01*
X3376453Y-5312148D01*
X3374578Y-5315898D01*
X3336146Y-5295276D02*
X3332396Y-5293401D01*
X3326772Y-5293401D01*
X3321147Y-5295276D01*
X3317398Y-5299025D01*
X3315523Y-5302775D01*
X3313648Y-5310274D01*
X3313648Y-5315898D01*
X3315523Y-5323397D01*
X3317398Y-5327147D01*
X3321147Y-5330896D01*
X3326772Y-5332771D01*
X3330521Y-5332771D01*
X3336146Y-5330896D01*
X3338020Y-5329021D01*
X3338020Y-5315898D01*
X3330521Y-5315898D01*
X3354893Y-5332771D02*
X3354893Y-5293401D01*
X3354893Y-5312148D02*
X3377390Y-5312148D01*
X3377390Y-5332771D02*
X3377390Y-5293401D01*
X3691414Y-5332771D02*
X3691414Y-5293401D01*
X3691414Y-5312148D02*
X3713911Y-5312148D01*
X3713911Y-5332771D02*
X3713911Y-5293401D01*
X3749531Y-5306524D02*
X3749531Y-5332771D01*
X3740157Y-5291526D02*
X3730784Y-5319648D01*
X3755156Y-5319648D01*
X3766404Y-5293401D02*
X3792651Y-5293401D01*
X3775778Y-5332771D01*
X3729846Y-5295276D02*
X3726097Y-5293401D01*
X3720472Y-5293401D01*
X3714848Y-5295276D01*
X3711099Y-5299025D01*
X3709224Y-5302775D01*
X3707349Y-5310274D01*
X3707349Y-5315898D01*
X3709224Y-5323397D01*
X3711099Y-5327147D01*
X3714848Y-5330896D01*
X3720472Y-5332771D01*
X3724222Y-5332771D01*
X3729846Y-5330896D01*
X3731721Y-5329021D01*
X3731721Y-5315898D01*
X3724222Y-5315898D01*
X3748594Y-5332771D02*
X3748594Y-5293401D01*
X3748594Y-5312148D02*
X3771091Y-5312148D01*
X3771091Y-5332771D02*
X3771091Y-5293401D01*
X4085114Y-5332771D02*
X4085114Y-5293401D01*
X4085114Y-5312148D02*
X4107612Y-5312148D01*
X4107612Y-5332771D02*
X4107612Y-5293401D01*
X4143232Y-5306524D02*
X4143232Y-5332771D01*
X4133858Y-5291526D02*
X4124484Y-5319648D01*
X4148856Y-5319648D01*
X4169479Y-5310274D02*
X4165729Y-5308399D01*
X4163855Y-5306524D01*
X4161980Y-5302775D01*
X4161980Y-5300900D01*
X4163855Y-5297150D01*
X4165729Y-5295276D01*
X4169479Y-5293401D01*
X4176978Y-5293401D01*
X4180727Y-5295276D01*
X4182602Y-5297150D01*
X4184477Y-5300900D01*
X4184477Y-5302775D01*
X4182602Y-5306524D01*
X4180727Y-5308399D01*
X4176978Y-5310274D01*
X4169479Y-5310274D01*
X4165729Y-5312148D01*
X4163855Y-5314023D01*
X4161980Y-5317773D01*
X4161980Y-5325272D01*
X4163855Y-5329021D01*
X4165729Y-5330896D01*
X4169479Y-5332771D01*
X4176978Y-5332771D01*
X4180727Y-5330896D01*
X4182602Y-5329021D01*
X4184477Y-5325272D01*
X4184477Y-5317773D01*
X4182602Y-5314023D01*
X4180727Y-5312148D01*
X4176978Y-5310274D01*
X4123547Y-5295276D02*
X4119798Y-5293401D01*
X4114173Y-5293401D01*
X4108549Y-5295276D01*
X4104799Y-5299025D01*
X4102925Y-5302775D01*
X4101050Y-5310274D01*
X4101050Y-5315898D01*
X4102925Y-5323397D01*
X4104799Y-5327147D01*
X4108549Y-5330896D01*
X4114173Y-5332771D01*
X4117923Y-5332771D01*
X4123547Y-5330896D01*
X4125422Y-5329021D01*
X4125422Y-5315898D01*
X4117923Y-5315898D01*
X4142295Y-5332771D02*
X4142295Y-5293401D01*
X4142295Y-5312148D02*
X4164792Y-5312148D01*
X4164792Y-5332771D02*
X4164792Y-5293401D01*
X4478815Y-5332771D02*
X4478815Y-5293401D01*
X4478815Y-5312148D02*
X4501312Y-5312148D01*
X4501312Y-5332771D02*
X4501312Y-5293401D01*
X4536933Y-5306524D02*
X4536933Y-5332771D01*
X4527559Y-5291526D02*
X4518185Y-5319648D01*
X4542557Y-5319648D01*
X4559430Y-5332771D02*
X4566929Y-5332771D01*
X4570679Y-5330896D01*
X4572553Y-5329021D01*
X4576303Y-5323397D01*
X4578178Y-5315898D01*
X4578178Y-5300900D01*
X4576303Y-5297150D01*
X4574428Y-5295276D01*
X4570679Y-5293401D01*
X4563180Y-5293401D01*
X4559430Y-5295276D01*
X4557555Y-5297150D01*
X4555681Y-5300900D01*
X4555681Y-5310274D01*
X4557555Y-5314023D01*
X4559430Y-5315898D01*
X4563180Y-5317773D01*
X4570679Y-5317773D01*
X4574428Y-5315898D01*
X4576303Y-5314023D01*
X4578178Y-5310274D01*
X4517248Y-5295276D02*
X4513498Y-5293401D01*
X4507874Y-5293401D01*
X4502250Y-5295276D01*
X4498500Y-5299025D01*
X4496625Y-5302775D01*
X4494751Y-5310274D01*
X4494751Y-5315898D01*
X4496625Y-5323397D01*
X4498500Y-5327147D01*
X4502250Y-5330896D01*
X4507874Y-5332771D01*
X4511624Y-5332771D01*
X4517248Y-5330896D01*
X4519123Y-5329021D01*
X4519123Y-5315898D01*
X4511624Y-5315898D01*
X4535996Y-5332771D02*
X4535996Y-5293401D01*
X4535996Y-5312148D02*
X4558493Y-5312148D01*
X4558493Y-5332771D02*
X4558493Y-5293401D01*
X4872516Y-5332771D02*
X4872516Y-5293401D01*
X4872516Y-5312148D02*
X4895013Y-5312148D01*
X4895013Y-5332771D02*
X4895013Y-5293401D01*
X4932508Y-5293401D02*
X4913761Y-5293401D01*
X4911886Y-5312148D01*
X4913761Y-5310274D01*
X4917510Y-5308399D01*
X4926884Y-5308399D01*
X4930634Y-5310274D01*
X4932508Y-5312148D01*
X4934383Y-5315898D01*
X4934383Y-5325272D01*
X4932508Y-5329021D01*
X4930634Y-5330896D01*
X4926884Y-5332771D01*
X4917510Y-5332771D01*
X4913761Y-5330896D01*
X4911886Y-5329021D01*
X4958755Y-5293401D02*
X4962505Y-5293401D01*
X4966254Y-5295276D01*
X4968129Y-5297150D01*
X4970004Y-5300900D01*
X4971879Y-5308399D01*
X4971879Y-5317773D01*
X4970004Y-5325272D01*
X4968129Y-5329021D01*
X4966254Y-5330896D01*
X4962505Y-5332771D01*
X4958755Y-5332771D01*
X4955006Y-5330896D01*
X4953131Y-5329021D01*
X4951256Y-5325272D01*
X4949381Y-5317773D01*
X4949381Y-5308399D01*
X4951256Y-5300900D01*
X4953131Y-5297150D01*
X4955006Y-5295276D01*
X4958755Y-5293401D01*
X4910949Y-5295276D02*
X4907199Y-5293401D01*
X4901575Y-5293401D01*
X4895951Y-5295276D01*
X4892201Y-5299025D01*
X4890326Y-5302775D01*
X4888451Y-5310274D01*
X4888451Y-5315898D01*
X4890326Y-5323397D01*
X4892201Y-5327147D01*
X4895951Y-5330896D01*
X4901575Y-5332771D01*
X4905324Y-5332771D01*
X4910949Y-5330896D01*
X4912823Y-5329021D01*
X4912823Y-5315898D01*
X4905324Y-5315898D01*
X4929696Y-5332771D02*
X4929696Y-5293401D01*
X4929696Y-5312148D02*
X4952194Y-5312148D01*
X4952194Y-5332771D02*
X4952194Y-5293401D01*
X5266217Y-5332771D02*
X5266217Y-5293401D01*
X5266217Y-5312148D02*
X5288714Y-5312148D01*
X5288714Y-5332771D02*
X5288714Y-5293401D01*
X5326209Y-5293401D02*
X5307462Y-5293401D01*
X5305587Y-5312148D01*
X5307462Y-5310274D01*
X5311211Y-5308399D01*
X5320585Y-5308399D01*
X5324334Y-5310274D01*
X5326209Y-5312148D01*
X5328084Y-5315898D01*
X5328084Y-5325272D01*
X5326209Y-5329021D01*
X5324334Y-5330896D01*
X5320585Y-5332771D01*
X5311211Y-5332771D01*
X5307462Y-5330896D01*
X5305587Y-5329021D01*
X5365579Y-5332771D02*
X5343082Y-5332771D01*
X5354331Y-5332771D02*
X5354331Y-5293401D01*
X5350581Y-5299025D01*
X5346832Y-5302775D01*
X5343082Y-5304649D01*
X5304649Y-5295276D02*
X5300900Y-5293401D01*
X5295276Y-5293401D01*
X5289651Y-5295276D01*
X5285902Y-5299025D01*
X5284027Y-5302775D01*
X5282152Y-5310274D01*
X5282152Y-5315898D01*
X5284027Y-5323397D01*
X5285902Y-5327147D01*
X5289651Y-5330896D01*
X5295276Y-5332771D01*
X5299025Y-5332771D01*
X5304649Y-5330896D01*
X5306524Y-5329021D01*
X5306524Y-5315898D01*
X5299025Y-5315898D01*
X5323397Y-5332771D02*
X5323397Y-5293401D01*
X5323397Y-5312148D02*
X5345894Y-5312148D01*
X5345894Y-5332771D02*
X5345894Y-5293401D01*
X5659918Y-5332771D02*
X5659918Y-5293401D01*
X5659918Y-5312148D02*
X5682415Y-5312148D01*
X5682415Y-5332771D02*
X5682415Y-5293401D01*
X5719910Y-5293401D02*
X5701162Y-5293401D01*
X5699288Y-5312148D01*
X5701162Y-5310274D01*
X5704912Y-5308399D01*
X5714286Y-5308399D01*
X5718035Y-5310274D01*
X5719910Y-5312148D01*
X5721785Y-5315898D01*
X5721785Y-5325272D01*
X5719910Y-5329021D01*
X5718035Y-5330896D01*
X5714286Y-5332771D01*
X5704912Y-5332771D01*
X5701162Y-5330896D01*
X5699288Y-5329021D01*
X5736783Y-5297150D02*
X5738658Y-5295276D01*
X5742407Y-5293401D01*
X5751781Y-5293401D01*
X5755531Y-5295276D01*
X5757405Y-5297150D01*
X5759280Y-5300900D01*
X5759280Y-5304649D01*
X5757405Y-5310274D01*
X5734908Y-5332771D01*
X5759280Y-5332771D01*
X5698350Y-5295276D02*
X5694601Y-5293401D01*
X5688976Y-5293401D01*
X5683352Y-5295276D01*
X5679603Y-5299025D01*
X5677728Y-5302775D01*
X5675853Y-5310274D01*
X5675853Y-5315898D01*
X5677728Y-5323397D01*
X5679603Y-5327147D01*
X5683352Y-5330896D01*
X5688976Y-5332771D01*
X5692726Y-5332771D01*
X5698350Y-5330896D01*
X5700225Y-5329021D01*
X5700225Y-5315898D01*
X5692726Y-5315898D01*
X5717098Y-5332771D02*
X5717098Y-5293401D01*
X5717098Y-5312148D02*
X5739595Y-5312148D01*
X5739595Y-5332771D02*
X5739595Y-5293401D01*
X2510311Y-5726472D02*
X2510311Y-5687102D01*
X2510311Y-5705849D02*
X2532808Y-5705849D01*
X2532808Y-5726472D02*
X2532808Y-5687102D01*
X2570304Y-5687102D02*
X2551556Y-5687102D01*
X2549681Y-5705849D01*
X2551556Y-5703974D01*
X2555306Y-5702100D01*
X2564679Y-5702100D01*
X2568429Y-5703974D01*
X2570304Y-5705849D01*
X2572179Y-5709599D01*
X2572179Y-5718973D01*
X2570304Y-5722722D01*
X2568429Y-5724597D01*
X2564679Y-5726472D01*
X2555306Y-5726472D01*
X2551556Y-5724597D01*
X2549681Y-5722722D01*
X2585302Y-5687102D02*
X2609674Y-5687102D01*
X2596550Y-5702100D01*
X2602175Y-5702100D01*
X2605924Y-5703974D01*
X2607799Y-5705849D01*
X2609674Y-5709599D01*
X2609674Y-5718973D01*
X2607799Y-5722722D01*
X2605924Y-5724597D01*
X2602175Y-5726472D01*
X2590926Y-5726472D01*
X2587177Y-5724597D01*
X2585302Y-5722722D01*
X2548744Y-5688976D02*
X2544994Y-5687102D01*
X2539370Y-5687102D01*
X2533746Y-5688976D01*
X2529996Y-5692726D01*
X2528121Y-5696475D01*
X2526247Y-5703974D01*
X2526247Y-5709599D01*
X2528121Y-5717098D01*
X2529996Y-5720847D01*
X2533746Y-5724597D01*
X2539370Y-5726472D01*
X2543120Y-5726472D01*
X2548744Y-5724597D01*
X2550619Y-5722722D01*
X2550619Y-5709599D01*
X2543120Y-5709599D01*
X2567492Y-5726472D02*
X2567492Y-5687102D01*
X2567492Y-5705849D02*
X2589989Y-5705849D01*
X2589989Y-5726472D02*
X2589989Y-5687102D01*
X2904012Y-5726472D02*
X2904012Y-5687102D01*
X2904012Y-5705849D02*
X2926509Y-5705849D01*
X2926509Y-5726472D02*
X2926509Y-5687102D01*
X2964005Y-5687102D02*
X2945257Y-5687102D01*
X2943382Y-5705849D01*
X2945257Y-5703974D01*
X2949006Y-5702100D01*
X2958380Y-5702100D01*
X2962130Y-5703974D01*
X2964005Y-5705849D01*
X2965879Y-5709599D01*
X2965879Y-5718973D01*
X2964005Y-5722722D01*
X2962130Y-5724597D01*
X2958380Y-5726472D01*
X2949006Y-5726472D01*
X2945257Y-5724597D01*
X2943382Y-5722722D01*
X2999625Y-5700225D02*
X2999625Y-5726472D01*
X2990251Y-5685227D02*
X2980877Y-5713348D01*
X3005249Y-5713348D01*
X2942445Y-5688976D02*
X2938695Y-5687102D01*
X2933071Y-5687102D01*
X2927447Y-5688976D01*
X2923697Y-5692726D01*
X2921822Y-5696475D01*
X2919948Y-5703974D01*
X2919948Y-5709599D01*
X2921822Y-5717098D01*
X2923697Y-5720847D01*
X2927447Y-5724597D01*
X2933071Y-5726472D01*
X2936820Y-5726472D01*
X2942445Y-5724597D01*
X2944319Y-5722722D01*
X2944319Y-5709599D01*
X2936820Y-5709599D01*
X2961192Y-5726472D02*
X2961192Y-5687102D01*
X2961192Y-5705849D02*
X2983690Y-5705849D01*
X2983690Y-5726472D02*
X2983690Y-5687102D01*
X3297713Y-5726472D02*
X3297713Y-5687102D01*
X3297713Y-5705849D02*
X3320210Y-5705849D01*
X3320210Y-5726472D02*
X3320210Y-5687102D01*
X3357705Y-5687102D02*
X3338958Y-5687102D01*
X3337083Y-5705849D01*
X3338958Y-5703974D01*
X3342707Y-5702100D01*
X3352081Y-5702100D01*
X3355831Y-5703974D01*
X3357705Y-5705849D01*
X3359580Y-5709599D01*
X3359580Y-5718973D01*
X3357705Y-5722722D01*
X3355831Y-5724597D01*
X3352081Y-5726472D01*
X3342707Y-5726472D01*
X3338958Y-5724597D01*
X3337083Y-5722722D01*
X3395201Y-5687102D02*
X3376453Y-5687102D01*
X3374578Y-5705849D01*
X3376453Y-5703974D01*
X3380202Y-5702100D01*
X3389576Y-5702100D01*
X3393326Y-5703974D01*
X3395201Y-5705849D01*
X3397075Y-5709599D01*
X3397075Y-5718973D01*
X3395201Y-5722722D01*
X3393326Y-5724597D01*
X3389576Y-5726472D01*
X3380202Y-5726472D01*
X3376453Y-5724597D01*
X3374578Y-5722722D01*
X3336146Y-5688976D02*
X3332396Y-5687102D01*
X3326772Y-5687102D01*
X3321147Y-5688976D01*
X3317398Y-5692726D01*
X3315523Y-5696475D01*
X3313648Y-5703974D01*
X3313648Y-5709599D01*
X3315523Y-5717098D01*
X3317398Y-5720847D01*
X3321147Y-5724597D01*
X3326772Y-5726472D01*
X3330521Y-5726472D01*
X3336146Y-5724597D01*
X3338020Y-5722722D01*
X3338020Y-5709599D01*
X3330521Y-5709599D01*
X3354893Y-5726472D02*
X3354893Y-5687102D01*
X3354893Y-5705849D02*
X3377390Y-5705849D01*
X3377390Y-5726472D02*
X3377390Y-5687102D01*
X3691414Y-5726472D02*
X3691414Y-5687102D01*
X3691414Y-5705849D02*
X3713911Y-5705849D01*
X3713911Y-5726472D02*
X3713911Y-5687102D01*
X3751406Y-5687102D02*
X3732658Y-5687102D01*
X3730784Y-5705849D01*
X3732658Y-5703974D01*
X3736408Y-5702100D01*
X3745782Y-5702100D01*
X3749531Y-5703974D01*
X3751406Y-5705849D01*
X3753281Y-5709599D01*
X3753281Y-5718973D01*
X3751406Y-5722722D01*
X3749531Y-5724597D01*
X3745782Y-5726472D01*
X3736408Y-5726472D01*
X3732658Y-5724597D01*
X3730784Y-5722722D01*
X3787027Y-5687102D02*
X3779528Y-5687102D01*
X3775778Y-5688976D01*
X3773903Y-5690851D01*
X3770154Y-5696475D01*
X3768279Y-5703974D01*
X3768279Y-5718973D01*
X3770154Y-5722722D01*
X3772029Y-5724597D01*
X3775778Y-5726472D01*
X3783277Y-5726472D01*
X3787027Y-5724597D01*
X3788901Y-5722722D01*
X3790776Y-5718973D01*
X3790776Y-5709599D01*
X3788901Y-5705849D01*
X3787027Y-5703974D01*
X3783277Y-5702100D01*
X3775778Y-5702100D01*
X3772029Y-5703974D01*
X3770154Y-5705849D01*
X3768279Y-5709599D01*
X3729846Y-5688976D02*
X3726097Y-5687102D01*
X3720472Y-5687102D01*
X3714848Y-5688976D01*
X3711099Y-5692726D01*
X3709224Y-5696475D01*
X3707349Y-5703974D01*
X3707349Y-5709599D01*
X3709224Y-5717098D01*
X3711099Y-5720847D01*
X3714848Y-5724597D01*
X3720472Y-5726472D01*
X3724222Y-5726472D01*
X3729846Y-5724597D01*
X3731721Y-5722722D01*
X3731721Y-5709599D01*
X3724222Y-5709599D01*
X3748594Y-5726472D02*
X3748594Y-5687102D01*
X3748594Y-5705849D02*
X3771091Y-5705849D01*
X3771091Y-5726472D02*
X3771091Y-5687102D01*
X4085114Y-5726472D02*
X4085114Y-5687102D01*
X4085114Y-5705849D02*
X4107612Y-5705849D01*
X4107612Y-5726472D02*
X4107612Y-5687102D01*
X4145107Y-5687102D02*
X4126359Y-5687102D01*
X4124484Y-5705849D01*
X4126359Y-5703974D01*
X4130109Y-5702100D01*
X4139483Y-5702100D01*
X4143232Y-5703974D01*
X4145107Y-5705849D01*
X4146982Y-5709599D01*
X4146982Y-5718973D01*
X4145107Y-5722722D01*
X4143232Y-5724597D01*
X4139483Y-5726472D01*
X4130109Y-5726472D01*
X4126359Y-5724597D01*
X4124484Y-5722722D01*
X4160105Y-5687102D02*
X4186352Y-5687102D01*
X4169479Y-5726472D01*
X4123547Y-5688976D02*
X4119798Y-5687102D01*
X4114173Y-5687102D01*
X4108549Y-5688976D01*
X4104799Y-5692726D01*
X4102925Y-5696475D01*
X4101050Y-5703974D01*
X4101050Y-5709599D01*
X4102925Y-5717098D01*
X4104799Y-5720847D01*
X4108549Y-5724597D01*
X4114173Y-5726472D01*
X4117923Y-5726472D01*
X4123547Y-5724597D01*
X4125422Y-5722722D01*
X4125422Y-5709599D01*
X4117923Y-5709599D01*
X4142295Y-5726472D02*
X4142295Y-5687102D01*
X4142295Y-5705849D02*
X4164792Y-5705849D01*
X4164792Y-5726472D02*
X4164792Y-5687102D01*
X4478815Y-5726472D02*
X4478815Y-5687102D01*
X4478815Y-5705849D02*
X4501312Y-5705849D01*
X4501312Y-5726472D02*
X4501312Y-5687102D01*
X4538808Y-5687102D02*
X4520060Y-5687102D01*
X4518185Y-5705849D01*
X4520060Y-5703974D01*
X4523810Y-5702100D01*
X4533183Y-5702100D01*
X4536933Y-5703974D01*
X4538808Y-5705849D01*
X4540682Y-5709599D01*
X4540682Y-5718973D01*
X4538808Y-5722722D01*
X4536933Y-5724597D01*
X4533183Y-5726472D01*
X4523810Y-5726472D01*
X4520060Y-5724597D01*
X4518185Y-5722722D01*
X4563180Y-5703974D02*
X4559430Y-5702100D01*
X4557555Y-5700225D01*
X4555681Y-5696475D01*
X4555681Y-5694601D01*
X4557555Y-5690851D01*
X4559430Y-5688976D01*
X4563180Y-5687102D01*
X4570679Y-5687102D01*
X4574428Y-5688976D01*
X4576303Y-5690851D01*
X4578178Y-5694601D01*
X4578178Y-5696475D01*
X4576303Y-5700225D01*
X4574428Y-5702100D01*
X4570679Y-5703974D01*
X4563180Y-5703974D01*
X4559430Y-5705849D01*
X4557555Y-5707724D01*
X4555681Y-5711474D01*
X4555681Y-5718973D01*
X4557555Y-5722722D01*
X4559430Y-5724597D01*
X4563180Y-5726472D01*
X4570679Y-5726472D01*
X4574428Y-5724597D01*
X4576303Y-5722722D01*
X4578178Y-5718973D01*
X4578178Y-5711474D01*
X4576303Y-5707724D01*
X4574428Y-5705849D01*
X4570679Y-5703974D01*
X4517248Y-5688976D02*
X4513498Y-5687102D01*
X4507874Y-5687102D01*
X4502250Y-5688976D01*
X4498500Y-5692726D01*
X4496625Y-5696475D01*
X4494751Y-5703974D01*
X4494751Y-5709599D01*
X4496625Y-5717098D01*
X4498500Y-5720847D01*
X4502250Y-5724597D01*
X4507874Y-5726472D01*
X4511624Y-5726472D01*
X4517248Y-5724597D01*
X4519123Y-5722722D01*
X4519123Y-5709599D01*
X4511624Y-5709599D01*
X4535996Y-5726472D02*
X4535996Y-5687102D01*
X4535996Y-5705849D02*
X4558493Y-5705849D01*
X4558493Y-5726472D02*
X4558493Y-5687102D01*
X4872516Y-5726472D02*
X4872516Y-5687102D01*
X4872516Y-5705849D02*
X4895013Y-5705849D01*
X4895013Y-5726472D02*
X4895013Y-5687102D01*
X4932508Y-5687102D02*
X4913761Y-5687102D01*
X4911886Y-5705849D01*
X4913761Y-5703974D01*
X4917510Y-5702100D01*
X4926884Y-5702100D01*
X4930634Y-5703974D01*
X4932508Y-5705849D01*
X4934383Y-5709599D01*
X4934383Y-5718973D01*
X4932508Y-5722722D01*
X4930634Y-5724597D01*
X4926884Y-5726472D01*
X4917510Y-5726472D01*
X4913761Y-5724597D01*
X4911886Y-5722722D01*
X4953131Y-5726472D02*
X4960630Y-5726472D01*
X4964379Y-5724597D01*
X4966254Y-5722722D01*
X4970004Y-5717098D01*
X4971879Y-5709599D01*
X4971879Y-5694601D01*
X4970004Y-5690851D01*
X4968129Y-5688976D01*
X4964379Y-5687102D01*
X4956880Y-5687102D01*
X4953131Y-5688976D01*
X4951256Y-5690851D01*
X4949381Y-5694601D01*
X4949381Y-5703974D01*
X4951256Y-5707724D01*
X4953131Y-5709599D01*
X4956880Y-5711474D01*
X4964379Y-5711474D01*
X4968129Y-5709599D01*
X4970004Y-5707724D01*
X4971879Y-5703974D01*
X4910949Y-5688976D02*
X4907199Y-5687102D01*
X4901575Y-5687102D01*
X4895951Y-5688976D01*
X4892201Y-5692726D01*
X4890326Y-5696475D01*
X4888451Y-5703974D01*
X4888451Y-5709599D01*
X4890326Y-5717098D01*
X4892201Y-5720847D01*
X4895951Y-5724597D01*
X4901575Y-5726472D01*
X4905324Y-5726472D01*
X4910949Y-5724597D01*
X4912823Y-5722722D01*
X4912823Y-5709599D01*
X4905324Y-5709599D01*
X4929696Y-5726472D02*
X4929696Y-5687102D01*
X4929696Y-5705849D02*
X4952194Y-5705849D01*
X4952194Y-5726472D02*
X4952194Y-5687102D01*
X5266217Y-5726472D02*
X5266217Y-5687102D01*
X5266217Y-5705849D02*
X5288714Y-5705849D01*
X5288714Y-5726472D02*
X5288714Y-5687102D01*
X5324334Y-5687102D02*
X5316835Y-5687102D01*
X5313086Y-5688976D01*
X5311211Y-5690851D01*
X5307462Y-5696475D01*
X5305587Y-5703974D01*
X5305587Y-5718973D01*
X5307462Y-5722722D01*
X5309336Y-5724597D01*
X5313086Y-5726472D01*
X5320585Y-5726472D01*
X5324334Y-5724597D01*
X5326209Y-5722722D01*
X5328084Y-5718973D01*
X5328084Y-5709599D01*
X5326209Y-5705849D01*
X5324334Y-5703974D01*
X5320585Y-5702100D01*
X5313086Y-5702100D01*
X5309336Y-5703974D01*
X5307462Y-5705849D01*
X5305587Y-5709599D01*
X5352456Y-5687102D02*
X5356206Y-5687102D01*
X5359955Y-5688976D01*
X5361830Y-5690851D01*
X5363705Y-5694601D01*
X5365579Y-5702100D01*
X5365579Y-5711474D01*
X5363705Y-5718973D01*
X5361830Y-5722722D01*
X5359955Y-5724597D01*
X5356206Y-5726472D01*
X5352456Y-5726472D01*
X5348706Y-5724597D01*
X5346832Y-5722722D01*
X5344957Y-5718973D01*
X5343082Y-5711474D01*
X5343082Y-5702100D01*
X5344957Y-5694601D01*
X5346832Y-5690851D01*
X5348706Y-5688976D01*
X5352456Y-5687102D01*
X5304649Y-5688976D02*
X5300900Y-5687102D01*
X5295276Y-5687102D01*
X5289651Y-5688976D01*
X5285902Y-5692726D01*
X5284027Y-5696475D01*
X5282152Y-5703974D01*
X5282152Y-5709599D01*
X5284027Y-5717098D01*
X5285902Y-5720847D01*
X5289651Y-5724597D01*
X5295276Y-5726472D01*
X5299025Y-5726472D01*
X5304649Y-5724597D01*
X5306524Y-5722722D01*
X5306524Y-5709599D01*
X5299025Y-5709599D01*
X5323397Y-5726472D02*
X5323397Y-5687102D01*
X5323397Y-5705849D02*
X5345894Y-5705849D01*
X5345894Y-5726472D02*
X5345894Y-5687102D01*
D11*
X2343333Y-4868095D02*
X2330000Y-4849048D01*
X2320476Y-4868095D02*
X2320476Y-4828095D01*
X2335714Y-4828095D01*
X2339524Y-4830000D01*
X2341429Y-4831905D01*
X2343333Y-4835714D01*
X2343333Y-4841429D01*
X2341429Y-4845238D01*
X2339524Y-4847143D01*
X2335714Y-4849048D01*
X2320476Y-4849048D01*
X2381429Y-4868095D02*
X2358571Y-4868095D01*
X2370000Y-4868095D02*
X2370000Y-4828095D01*
X2366191Y-4833810D01*
X2362381Y-4837619D01*
X2358571Y-4839524D01*
X2308333Y-4558095D02*
X2295000Y-4539048D01*
X2285476Y-4558095D02*
X2285476Y-4518095D01*
X2300714Y-4518095D01*
X2304524Y-4520000D01*
X2306429Y-4521905D01*
X2308333Y-4525714D01*
X2308333Y-4531429D01*
X2306429Y-4535238D01*
X2304524Y-4537143D01*
X2300714Y-4539048D01*
X2285476Y-4539048D01*
X2344524Y-4518095D02*
X2325476Y-4518095D01*
X2323571Y-4537143D01*
X2325476Y-4535238D01*
X2329286Y-4533333D01*
X2338810Y-4533333D01*
X2342619Y-4535238D01*
X2344524Y-4537143D01*
X2346429Y-4540952D01*
X2346429Y-4550476D01*
X2344524Y-4554286D01*
X2342619Y-4556190D01*
X2338810Y-4558095D01*
X2329286Y-4558095D01*
X2325476Y-4556190D01*
X2323571Y-4554286D01*
X3020476Y-3468095D02*
X3020476Y-3428095D01*
X3030000Y-3428095D01*
X3035714Y-3430000D01*
X3039524Y-3433810D01*
X3041429Y-3437619D01*
X3043333Y-3445238D01*
X3043333Y-3450952D01*
X3041429Y-3458571D01*
X3039524Y-3462381D01*
X3035714Y-3466190D01*
X3030000Y-3468095D01*
X3020476Y-3468095D01*
X3058571Y-3431905D02*
X3060476Y-3430000D01*
X3064286Y-3428095D01*
X3073810Y-3428095D01*
X3077619Y-3430000D01*
X3079524Y-3431905D01*
X3081429Y-3435714D01*
X3081429Y-3439524D01*
X3079524Y-3445238D01*
X3056667Y-3468095D01*
X3081429Y-3468095D01*
X3209762Y-3327857D02*
X3240238Y-3327857D01*
X3209762Y-3602857D02*
X3240238Y-3602857D01*
X3225000Y-3618095D02*
X3225000Y-3587619D01*
X3586667Y-4103095D02*
X3586667Y-4131667D01*
X3584762Y-4137381D01*
X3580952Y-4141190D01*
X3575238Y-4143095D01*
X3571429Y-4143095D01*
X3603810Y-4106905D02*
X3605714Y-4105000D01*
X3609524Y-4103095D01*
X3619048Y-4103095D01*
X3622857Y-4105000D01*
X3624762Y-4106905D01*
X3626667Y-4110714D01*
X3626667Y-4114524D01*
X3624762Y-4120238D01*
X3601905Y-4143095D01*
X3626667Y-4143095D01*
X3174286Y-4143095D02*
X3160952Y-4124048D01*
X3151429Y-4143095D02*
X3151429Y-4103095D01*
X3166667Y-4103095D01*
X3170476Y-4105000D01*
X3172381Y-4106905D01*
X3174286Y-4110714D01*
X3174286Y-4116429D01*
X3172381Y-4120238D01*
X3170476Y-4122143D01*
X3166667Y-4124048D01*
X3151429Y-4124048D01*
X3212381Y-4143095D02*
X3189524Y-4143095D01*
X3200952Y-4143095D02*
X3200952Y-4103095D01*
X3197143Y-4108810D01*
X3193333Y-4112619D01*
X3189524Y-4114524D01*
X3225714Y-4103095D02*
X3250476Y-4103095D01*
X3237143Y-4118333D01*
X3242857Y-4118333D01*
X3246667Y-4120238D01*
X3248571Y-4122143D01*
X3250476Y-4125952D01*
X3250476Y-4135476D01*
X3248571Y-4139286D01*
X3246667Y-4141190D01*
X3242857Y-4143095D01*
X3231429Y-4143095D01*
X3227619Y-4141190D01*
X3225714Y-4139286D01*
X3874286Y-4368095D02*
X3860952Y-4349048D01*
X3851429Y-4368095D02*
X3851429Y-4328095D01*
X3866667Y-4328095D01*
X3870476Y-4330000D01*
X3872381Y-4331905D01*
X3874286Y-4335714D01*
X3874286Y-4341429D01*
X3872381Y-4345238D01*
X3870476Y-4347143D01*
X3866667Y-4349048D01*
X3851429Y-4349048D01*
X3912381Y-4368095D02*
X3889524Y-4368095D01*
X3900952Y-4368095D02*
X3900952Y-4328095D01*
X3897143Y-4333810D01*
X3893333Y-4337619D01*
X3889524Y-4339524D01*
X3946667Y-4341429D02*
X3946667Y-4368095D01*
X3937143Y-4326190D02*
X3927619Y-4354762D01*
X3952381Y-4354762D01*
M02*
